<svg width="82" height="16" viewBox="0 0 82 16" fill="none" xmlns="http://www.w3.org/2000/svg">
<path d="M7.18896 6.63793V7.69519C6.6431 7.01311 5.722 6.41626 4.51075 6.41626C1.9863 6.41626 0.0585938 8.42845 0.0585938 10.884C0.0585938 13.2373 2.05439 15.4371 4.51075 15.4371C5.722 15.4371 6.6431 14.8574 7.18896 14.1751V15.2154H10.2935V6.63793H7.18896ZM7.32533 11.208C7.1377 12.2312 6.35297 12.8792 5.32953 12.8792C4.03317 12.8792 3.26564 11.9924 3.26564 10.884C3.26564 9.67333 3.96489 8.97417 5.32953 8.97417C6.35297 8.97417 7.1377 9.63923 7.32533 10.6624V11.208Z" fill="white"/>
<path d="M17.7078 6.41626C16.4969 6.41626 15.5758 6.99607 15.0128 7.67816V6.63793H11.9932V15.2154H15.0977V10.6453C15.2685 9.62213 15.8656 8.97415 16.7697 8.97415C17.7763 8.97415 18.049 9.3834 18.049 10.5601V15.2154H21.1536V10.5601C21.1536 7.9169 20.1299 6.41626 17.7078 6.41626Z" fill="white"/>
<path d="M26.797 9.11055H29.2707V6.6379H26.797V3.27856H23.6924V6.6379H22.1914V9.11055H23.6924V15.2154H26.797V9.11055Z" fill="white"/>
<path d="M33.3524 9.09352C33.3524 8.83775 33.5402 8.71834 34.3588 8.71834C35.1435 8.71834 35.8944 8.90595 36.6277 9.33225L37.6343 7.30299C36.6447 6.70614 35.6211 6.41626 34.154 6.41626C32.039 6.41626 30.1968 7.06429 30.1968 9.1106C30.1968 10.5771 31.3397 11.2251 32.6191 11.6855C34.0516 12.1971 34.4952 12.3847 34.4952 12.7598C34.4952 12.9985 34.2565 13.1179 33.4038 13.1179C32.7044 13.1179 31.5446 12.7769 30.7428 12.3165L29.8047 14.4821C30.8962 15.0961 32.056 15.4371 33.711 15.4371C35.9283 15.4371 37.6511 14.8574 37.6511 12.6916C37.6511 11.1398 36.5592 10.5259 34.9903 9.99731C33.6255 9.5369 33.3524 9.4175 33.3524 9.09352Z" fill="white"/>
<path d="M42.9895 9.11055H45.4631V6.6379H42.9895V3.27856H39.885V6.6379H38.3838V9.11055H39.885V15.2154H42.9895V9.11055Z" fill="white"/>
<path d="M53.2825 6.63793V7.69519C52.7365 7.01311 51.8154 6.41626 50.6045 6.41626C48.0799 6.41626 46.1523 8.42845 46.1523 10.884C46.1523 13.2373 48.148 15.4371 50.6045 15.4371C51.8154 15.4371 52.7365 14.8574 53.2825 14.1751V15.2154H56.3871V6.63793H53.2825ZM53.4189 11.208C53.2311 12.2312 52.4467 12.8792 51.4233 12.8792C50.1265 12.8792 49.3592 11.9924 49.3592 10.884C49.3592 9.67333 50.0586 8.97417 51.4233 8.97417C52.4467 8.97417 53.2311 9.63923 53.4189 10.6624V11.208Z" fill="white"/>
<path d="M62.9147 12.8792C61.7888 12.8792 60.9531 12.1288 60.9531 10.9011C60.97 9.62213 61.6015 8.97417 62.7954 8.97417C63.5292 8.97417 64.3819 9.12762 65.1496 9.4516V6.85964C64.3648 6.56977 63.7335 6.41626 62.7954 6.41626C60.1344 6.41626 57.7461 8.18971 57.7461 10.9011C57.7461 13.5613 60.1173 15.4371 62.7954 15.4371C63.6315 15.4371 64.4503 15.3177 65.1496 15.079V12.4699C64.2285 12.811 63.5631 12.8792 62.9147 12.8792Z" fill="white"/>
<path d="M76.119 15.2154L71.2232 10.2702L75.8633 6.63799H71.957L69.6713 8.4285V0.874268H66.6006V15.2154H69.6713V12.5382L72.2638 15.2154H76.119Z" fill="white"/>
<path d="M78.9586 0.827637C79.4878 0.827637 79.9622 0.949547 80.3818 1.19339C80.8016 1.42819 81.1299 1.75782 81.3671 2.18225C81.6043 2.59769 81.7228 3.06728 81.7228 3.59106C81.7228 4.11486 81.6043 4.58898 81.3671 5.01343C81.1299 5.43786 80.8016 5.77202 80.3818 6.01584C79.9622 6.25064 79.4878 6.36804 78.9586 6.36804C78.4204 6.36804 77.9415 6.25064 77.5217 6.01584C77.1021 5.77202 76.7737 5.43786 76.5365 5.01343C76.2993 4.58898 76.1807 4.11486 76.1807 3.59106C76.1807 3.06728 76.2993 2.59769 76.5365 2.18225C76.7737 1.75782 77.1021 1.42819 77.5217 1.19339C77.9415 0.949547 78.4204 0.827637 78.9586 0.827637ZM78.9586 5.82619C79.6156 5.82619 80.1446 5.61849 80.546 5.20307C80.9566 4.78766 81.1618 4.25031 81.1618 3.59106C81.1618 2.93182 80.9566 2.39448 80.546 1.97906C80.1446 1.56365 79.6156 1.35595 78.9586 1.35595C78.2926 1.35595 77.7589 1.56365 77.3575 1.97906C76.9652 2.39448 76.7692 2.93182 76.7692 3.59106C76.7692 4.25031 76.9652 4.78766 77.3575 5.20307C77.7589 5.61849 78.2926 5.82619 78.9586 5.82619ZM80.1902 3.02212C80.1902 3.23887 80.1309 3.42399 80.0123 3.57752C79.9029 3.72202 79.7478 3.82586 79.5471 3.88909L80.3135 5.01343L79.4513 5.02697L78.7945 3.94327H78.5618V5.02697H77.8502V2.11453H79.164C79.4741 2.11453 79.7205 2.19581 79.9029 2.35835C80.0944 2.52091 80.1902 2.74217 80.1902 3.02212ZM78.5618 3.36078H79.1228C79.2233 3.36078 79.3054 3.33369 79.3692 3.2795C79.4421 3.22533 79.4786 3.14856 79.4786 3.04922C79.4786 2.94987 79.4421 2.87763 79.3692 2.83247C79.3054 2.7783 79.2233 2.75119 79.1228 2.75119H78.5618V3.36078Z" fill="white"/>
</svg>
