<svg width="26" height="35" viewBox="0 0 26 35" fill="none" xmlns="http://www.w3.org/2000/svg">
<path fill-rule="evenodd" clip-rule="evenodd" d="M13.0047 32.6763C12.1746 32.6897 10.9837 32.0159 10.9837 32.0159C8.48882 30.7675 3.61301 25.9126 3.01309 19.7593C2.43116 13.7899 5.52683 7.96593 12.9277 7.94054L12.9392 7.94048C12.9437 7.94048 12.9481 7.94048 12.9526 7.94048L12.9763 7.94043C20.3772 7.96582 23.4729 13.7899 22.8909 19.7593C22.291 25.9126 17.4152 30.7675 14.9204 32.0159C14.9204 32.0159 13.7959 32.6635 13.0047 32.6763Z" fill="#082D59"/>
<path fill-rule="evenodd" clip-rule="evenodd" d="M19.702 4.37623C20.682 3.78747 21.9328 3.05707 23.0192 2.46879C23.5706 2.17017 24.0768 1.9097 24.4825 1.72319C24.6856 1.62982 24.8601 1.55654 25.0004 1.50649C25.1492 1.45345 25.2341 1.43605 25.2678 1.43496C25.6218 1.42353 25.8092 1.19651 25.8853 0.997364C25.965 0.788615 25.9592 0.534364 25.8556 0.336189C25.8034 0.236344 25.7204 0.139489 25.5942 0.0747596C25.4618 0.00680797 25.2992 -0.0165786 25.1222 0.0131821C24.9526 0.0417222 24.7771 0.117448 24.5957 0.235824C24.4129 0.355056 24.214 0.52416 23.9978 0.751759C22.6709 2.14818 20.6067 3.21015 19.7458 3.56369L19.7136 3.57687L19.6903 3.59771C19.6444 3.63855 19.5786 3.6902 19.4999 3.74239C19.3887 3.70571 19.2635 3.69942 19.1527 3.70653C18.9777 3.7177 18.7918 3.76403 18.6286 3.82772C18.4659 3.89124 18.3098 3.97826 18.2039 4.08046C18.0991 4.18153 18.0229 4.32002 18.0965 4.46579L18.0968 4.46628C18.097 4.46682 18.0974 4.46791 18.0979 4.46959C18.0988 4.47225 18.0998 4.47599 18.1008 4.48103C18.1028 4.49123 18.1043 4.5049 18.1048 4.52248C18.1059 4.55796 18.1026 4.60407 18.0943 4.66108C18.0776 4.77511 18.0423 4.92272 17.991 5.09762C17.8886 5.44687 17.7261 5.89339 17.5355 6.37474C17.1545 7.33684 16.6648 8.4288 16.33 9.14065L16.2058 9.40468L17.5516 9.1023L17.3632 8.93885C17.3128 8.89518 17.2927 8.80654 17.3314 8.67108C17.3676 8.54414 17.4446 8.41589 17.5038 8.3387L17.5212 8.31597L17.5264 8.2902C17.6466 7.69054 18.1735 6.16767 19.306 4.91822C19.4986 4.70568 19.6275 4.52649 19.702 4.37623ZM6.23687 4.3912C5.25684 3.80244 4.00598 3.07204 2.91965 2.48377C2.36819 2.18513 1.862 1.92467 1.45633 1.73816C1.25326 1.64479 1.07875 1.57151 0.938402 1.52146C0.789671 1.46842 0.70477 1.45102 0.671063 1.44994C0.317003 1.4385 0.129643 1.21148 0.0535723 1.01233C-0.0261625 0.803588 -0.0203241 0.549331 0.0832461 0.351156C0.135432 0.251311 0.218463 0.154456 0.3446 0.0897269C0.477009 0.0217753 0.639601 -0.00161132 0.81658 0.0281494C0.986289 0.0566895 1.16173 0.132415 1.34315 0.250791C1.52589 0.370029 1.72479 0.539127 1.94103 0.766726C3.26794 2.16315 5.33213 3.22513 6.19307 3.57861L6.22521 3.59185L6.24858 3.61262C6.29444 3.65353 6.36019 3.70517 6.4389 3.75736C6.55008 3.72069 6.67536 3.71439 6.7861 3.7215C6.96109 3.73268 7.14702 3.779 7.31019 3.84269C7.47298 3.90622 7.62899 3.99323 7.73491 4.09544C7.83969 4.1965 7.91591 4.335 7.8423 4.48076L7.84208 4.48125C7.84197 4.48152 7.84181 4.48185 7.84165 4.48234C7.84143 4.48293 7.84116 4.48364 7.84089 4.48456C7.84002 4.48722 7.83899 4.49096 7.83801 4.49601C7.83606 4.5062 7.83449 4.51988 7.834 4.53745C7.83297 4.57293 7.83628 4.61904 7.84457 4.67606C7.86127 4.79009 7.89656 4.9377 7.94784 5.11259C8.05019 5.46185 8.2127 5.90837 8.4033 6.38971C8.78433 7.35181 9.27404 8.44378 9.60883 9.15563L9.73302 9.41965L8.38725 9.11727L8.57568 8.95382C8.62604 8.91015 8.6461 8.82151 8.60745 8.68605C8.57123 8.55911 8.49426 8.43087 8.43506 8.35367L8.41766 8.33094L8.41246 8.30517C8.29228 7.70551 7.76537 6.18265 6.63286 4.93319C6.4402 4.72065 6.3113 4.54141 6.23687 4.3912Z" fill="#082D59"/>
<path fill-rule="evenodd" clip-rule="evenodd" d="M8.10262 27.9885C8.59418 28.4324 9.10384 28.8927 9.57491 29.3434C9.79218 29.5514 10.0641 29.8189 10.2673 30.0627C10.2748 30.0718 10.2842 30.0811 10.2938 30.0907C10.3236 30.1202 10.3557 30.1521 10.3437 30.187C10.3405 30.1964 10.3299 30.1998 10.3195 30.2031C10.3153 30.2044 10.3111 30.2057 10.3075 30.2074C10.2683 30.2257 10.2406 30.2371 10.2178 30.2465C10.1535 30.273 10.1282 30.2833 9.99454 30.3887C9.4311 30.8332 9.0473 31.4374 8.74059 32.081C8.72341 32.1172 8.70829 32.1543 8.69322 32.1914C8.67229 32.2429 8.65137 32.2943 8.62486 32.3429C8.62437 32.3438 8.62388 32.3447 8.62334 32.3457C8.6106 32.3691 8.59288 32.4019 8.56751 32.3989C8.51715 32.3932 8.48099 32.2558 8.45784 32.1677C8.45053 32.1397 8.44445 32.1167 8.43968 32.1045C8.39415 31.9881 8.38634 32.0628 8.37843 32.1388C8.3774 32.1485 8.37637 32.1583 8.37529 32.1677C8.31479 32.684 8.29224 33.2088 8.38737 33.7224C8.4367 33.9888 8.54675 34.2641 8.67722 34.5028C8.69826 34.5414 8.6936 34.5488 8.63494 34.5192C8.22312 34.3107 7.93257 33.8349 7.7262 33.4402C7.41623 32.8475 7.30153 32.2253 7.26125 31.5614C7.2097 30.7122 7.20417 29.8286 7.32462 28.9847C7.38311 28.5752 7.53153 28.2276 7.70104 27.86C7.70912 27.8423 7.71693 27.8223 7.72495 27.8017C7.73986 27.7634 7.75552 27.7231 7.77547 27.6929C7.88318 27.7904 7.99247 27.8891 8.10262 27.9885ZM17.8696 27.9886C17.3781 28.4324 16.8684 28.8927 16.3974 29.3434C16.1801 29.5514 15.9082 29.8189 15.705 30.0627C15.6974 30.0718 15.6881 30.0811 15.6785 30.0907C15.6487 30.1202 15.6166 30.1521 15.6285 30.187C15.6317 30.1964 15.6424 30.1998 15.6528 30.2031C15.657 30.2044 15.6611 30.2057 15.6647 30.2074C15.704 30.2258 15.7317 30.2372 15.7545 30.2466C15.8188 30.273 15.8441 30.2833 15.9777 30.3887C16.5412 30.8332 16.9249 31.4375 17.2317 32.0811C17.2488 32.1172 17.264 32.1543 17.2791 32.1914C17.3 32.2429 17.3209 32.2943 17.3474 32.3429L17.3489 32.3457C17.3616 32.3691 17.3794 32.4019 17.4047 32.3989C17.4552 32.3932 17.4913 32.2558 17.5144 32.1677C17.5217 32.1397 17.5278 32.1167 17.5326 32.1045C17.5781 31.988 17.5859 32.0629 17.5938 32.1388C17.5948 32.1486 17.5959 32.1583 17.597 32.1677C17.6575 32.684 17.68 33.2088 17.5849 33.7224C17.5355 33.9888 17.4255 34.2641 17.2951 34.5029C17.274 34.5415 17.2787 34.5488 17.3373 34.5192C17.7491 34.3107 18.0397 33.8349 18.2461 33.4402C18.556 32.8475 18.6708 32.2253 18.7111 31.5614C18.7625 30.7123 18.7681 29.8286 18.6476 28.9848C18.5891 28.5752 18.4407 28.2277 18.2713 27.86C18.2631 27.8423 18.2553 27.8223 18.2473 27.8017C18.2324 27.7634 18.2167 27.7232 18.1968 27.6929C18.0891 27.7904 17.9798 27.8891 17.8696 27.9886Z" fill="#082D59"/>
<path d="M10.8265 18.3872C10.8265 21.8026 8.62391 24.5713 5.90689 24.5713C3.18986 24.5713 0.987305 21.8026 0.987305 18.3872C0.987305 14.9719 3.18986 12.2031 5.90689 12.2031C8.62391 12.2031 10.8265 14.9719 10.8265 18.3872Z" fill="#DA2C2C"/>
<path fill-rule="evenodd" clip-rule="evenodd" d="M5.90689 23.7864C8.03337 23.7864 10.0422 21.5455 10.0422 18.3872C10.0422 15.229 8.03337 12.988 5.90689 12.988C3.78046 12.988 1.77167 15.229 1.77167 18.3872C1.77167 21.5455 3.78046 23.7864 5.90689 23.7864ZM5.90689 24.5713C8.62391 24.5713 10.8265 21.8026 10.8265 18.3872C10.8265 14.9719 8.62391 12.2031 5.90689 12.2031C3.18986 12.2031 0.987305 14.9719 0.987305 18.3872C0.987305 21.8026 3.18986 24.5713 5.90689 24.5713Z" fill="#082D59"/>
<path d="M25.0511 18.3794C25.0511 21.7948 22.8485 24.5635 20.1315 24.5635C17.4145 24.5635 15.2119 21.7948 15.2119 18.3794C15.2119 14.964 17.4145 12.1953 20.1315 12.1953C22.8485 12.1953 25.0511 14.964 25.0511 18.3794Z" fill="#DA2C2C"/>
<path fill-rule="evenodd" clip-rule="evenodd" d="M20.1315 23.7869C22.2579 23.7869 24.2667 21.546 24.2667 18.3877C24.2667 15.2294 22.2579 12.9885 20.1315 12.9885C18.005 12.9885 15.9963 15.2294 15.9963 18.3877C15.9963 21.546 18.005 23.7869 20.1315 23.7869ZM20.1315 24.5718C22.8485 24.5718 25.0511 21.8031 25.0511 18.3877C25.0511 14.9723 22.8485 12.2036 20.1315 12.2036C17.4145 12.2036 15.2119 14.9723 15.2119 18.3877C15.2119 21.8031 17.4145 24.5718 20.1315 24.5718Z" fill="#082D59"/>
</svg>
