<svg width="31" height="31" viewBox="0 0 31 31" fill="none" xmlns="http://www.w3.org/2000/svg">
<path d="M23.164 0.0463867H7.42398C3.34918 0.0463867 0.0458984 3.35577 0.0458984 7.43809V23.2072C0.0458984 27.2895 3.34918 30.5989 7.42398 30.5989H23.164C27.2388 30.5989 30.5421 27.2895 30.5421 23.2072V7.43809C30.5421 3.35577 27.2388 0.0463867 23.164 0.0463867Z" fill="white"/>
<path fill-rule="evenodd" clip-rule="evenodd" d="M15.3324 25.0739C14.8118 25.0824 14.065 24.6593 14.065 24.6593C12.5004 23.8756 9.44271 20.8277 9.06656 16.9646C8.7016 13.217 10.6429 9.56068 15.2841 9.54473H15.2913C15.2941 9.54473 15.2969 9.54473 15.2997 9.54473L15.3146 9.54468C19.9558 9.56063 21.8971 13.217 21.5322 16.9646C21.1559 20.8277 18.0983 23.8756 16.5337 24.6593C16.5337 24.6593 15.8285 25.0659 15.3324 25.0739Z" fill="#082D59"/>
<path fill-rule="evenodd" clip-rule="evenodd" d="M19.5317 7.30691C20.1463 6.93732 20.9307 6.47874 21.6119 6.10941C21.9578 5.92197 22.2752 5.7584 22.5296 5.64131C22.657 5.58269 22.7664 5.53673 22.8544 5.50528C22.9477 5.47198 23.0009 5.46107 23.0221 5.4604C23.2441 5.4532 23.3616 5.31068 23.4093 5.18566C23.4593 5.0546 23.4557 4.89498 23.3907 4.77057C23.358 4.70789 23.3059 4.64708 23.2268 4.60644C23.1438 4.56378 23.0418 4.5491 22.9308 4.56779C22.8244 4.5857 22.7144 4.63324 22.6006 4.70756C22.486 4.78241 22.3613 4.88857 22.2256 5.03146C21.3936 5.90812 20.0991 6.57484 19.5592 6.79676L19.539 6.8051L19.5244 6.81812C19.4956 6.84381 19.4543 6.87623 19.405 6.90896C19.3353 6.88596 19.2567 6.88199 19.1873 6.88647C19.0775 6.89347 18.9609 6.92255 18.8586 6.96254C18.7565 7.00243 18.6587 7.05709 18.5922 7.12122C18.5265 7.18468 18.4788 7.27166 18.5249 7.36317L18.5251 7.36342C18.5252 7.36379 18.5255 7.36445 18.5258 7.36553C18.5263 7.36718 18.5269 7.36955 18.5276 7.37269C18.5289 7.37912 18.5298 7.38767 18.5301 7.39873C18.5308 7.42102 18.5287 7.44994 18.5235 7.48576C18.513 7.5573 18.4909 7.65 18.4587 7.75978C18.3945 7.97908 18.2926 8.25938 18.1731 8.5616C17.9342 9.16557 17.6271 9.85112 17.4171 10.298L17.3392 10.4638L18.1832 10.274L18.065 10.1714C18.0334 10.1439 18.0209 10.0883 18.0451 10.0032C18.0678 9.92354 18.1161 9.84304 18.1532 9.79456L18.1641 9.7803L18.1673 9.76414C18.2427 9.38765 18.5731 8.43159 19.2834 7.64717C19.4042 7.51376 19.485 7.40125 19.5317 7.30691ZM11.0876 7.31633C10.473 6.94669 9.68859 6.48816 9.00734 6.11883C8.66155 5.93133 8.34406 5.76782 8.08966 5.65073C7.96231 5.59211 7.85288 5.5461 7.76488 5.5147C7.67159 5.4814 7.61837 5.47044 7.5972 5.46977C7.37517 5.46262 7.25768 5.3201 7.21 5.19503C7.15997 5.064 7.16367 4.90438 7.2286 4.77996C7.26133 4.71728 7.31342 4.65648 7.39248 4.61584C7.47555 4.57318 7.57747 4.5585 7.68849 4.57718C7.79488 4.5951 7.90493 4.64264 8.01872 4.71696C8.13328 4.79181 8.25801 4.89797 8.39364 5.04086C9.22572 5.91754 10.5202 6.58425 11.0601 6.80618L11.0803 6.81447L11.0949 6.82754C11.1237 6.85322 11.1649 6.8856 11.2143 6.91838C11.284 6.89538 11.3626 6.89141 11.432 6.89584C11.5418 6.90289 11.6583 6.93197 11.7607 6.97196C11.8627 7.01185 11.9606 7.06646 12.027 7.13064C12.0927 7.1941 12.1406 7.28102 12.0944 7.37253L12.0942 7.37284C12.0942 7.373 12.0941 7.37326 12.094 7.37356C12.0938 7.37387 12.0937 7.37434 12.0935 7.3749C12.093 7.3766 12.0923 7.37897 12.0917 7.38211C12.0904 7.38849 12.0895 7.39708 12.0892 7.40815C12.0885 7.43038 12.0906 7.45936 12.0958 7.49513C12.1063 7.56672 12.1284 7.65936 12.1606 7.7692C12.2248 7.98845 12.3266 8.2688 12.4462 8.57096C12.6851 9.17499 12.9922 9.86054 13.2022 10.3074L13.2801 10.4732L12.4361 10.2833L12.5543 10.1807C12.5859 10.1533 12.5985 10.0977 12.5742 10.0126C12.5515 9.9329 12.5032 9.85241 12.4661 9.80398L12.4552 9.78967L12.4519 9.77351C12.3766 9.39707 12.0462 8.44095 11.3359 7.65659C11.2151 7.52313 11.1343 7.41062 11.0876 7.31633Z" fill="#082D59"/>
<path fill-rule="evenodd" clip-rule="evenodd" d="M12.2583 22.1309C12.5666 22.4096 12.8863 22.6985 13.1816 22.9815C13.3179 23.112 13.4884 23.28 13.6158 23.4331C13.6206 23.4388 13.6264 23.4446 13.6325 23.4506C13.6512 23.4692 13.6712 23.4892 13.6638 23.5111C13.6618 23.517 13.6551 23.5191 13.6486 23.5212C13.646 23.522 13.6433 23.5229 13.6411 23.5239C13.6165 23.5355 13.5991 23.5426 13.5848 23.5485C13.5445 23.5651 13.5286 23.5716 13.4448 23.6378C13.0914 23.9168 12.8508 24.2962 12.6584 24.7002C12.6476 24.7229 12.6382 24.7462 12.6287 24.7695C12.6156 24.8018 12.6025 24.834 12.5859 24.8646C12.5855 24.8652 12.5852 24.8658 12.5849 24.8664C12.5769 24.8811 12.5658 24.9016 12.5499 24.8998C12.5183 24.8962 12.4956 24.8099 12.4811 24.7546C12.4765 24.737 12.4727 24.7226 12.4697 24.7149C12.4412 24.6418 12.4363 24.6888 12.4313 24.7365C12.4307 24.7426 12.43 24.7487 12.4294 24.7546C12.3914 25.0787 12.3773 25.4082 12.4369 25.7307C12.4679 25.8979 12.5369 26.0707 12.6187 26.2206C12.6319 26.2448 12.6289 26.2495 12.5922 26.2309C12.3339 26.1 12.1517 25.8013 12.0223 25.5535C11.8279 25.1814 11.756 24.7908 11.7307 24.374C11.6984 23.8409 11.6949 23.2861 11.7705 22.7563C11.8071 22.4993 11.9002 22.281 12.0065 22.0502C12.0116 22.0391 12.0165 22.0266 12.0215 22.0137C12.0309 21.9896 12.0407 21.9643 12.0532 21.9453C12.1208 22.0066 12.1893 22.0685 12.2583 22.1309ZM18.3834 22.131C18.0751 22.4096 17.7554 22.6985 17.4601 22.9815C17.3238 23.112 17.1533 23.28 17.0259 23.4331C17.0211 23.4388 17.0153 23.4446 17.0093 23.4506C16.9906 23.4692 16.9705 23.4892 16.9779 23.5111C16.9799 23.517 16.9866 23.5191 16.9931 23.5212C16.9957 23.522 16.9984 23.5229 17.0006 23.5239C17.0252 23.5355 17.0426 23.5426 17.0569 23.5485C17.0973 23.5651 17.1131 23.5716 17.1969 23.6378C17.5503 23.9168 17.7909 24.2962 17.9833 24.7002C17.9941 24.7229 18.0035 24.7462 18.013 24.7695C18.0261 24.8018 18.0392 24.834 18.0558 24.8646L18.0568 24.8664C18.0648 24.8811 18.0759 24.9016 18.0918 24.8998C18.1234 24.8962 18.1461 24.8099 18.1606 24.7546C18.1652 24.737 18.169 24.7226 18.172 24.715C18.2005 24.6418 18.2054 24.6888 18.2104 24.7365C18.211 24.7426 18.2117 24.7487 18.2124 24.7546C18.2503 25.0787 18.2644 25.4082 18.2048 25.7307C18.1738 25.8979 18.1048 26.0707 18.023 26.2206C18.0098 26.2448 18.0128 26.2495 18.0496 26.2309C18.3078 26.1 18.49 25.8013 18.6194 25.5535C18.8138 25.1814 18.8857 24.7908 18.911 24.374C18.9433 23.8409 18.9468 23.2862 18.8712 22.7563C18.8346 22.4993 18.7415 22.281 18.6352 22.0502C18.6301 22.0391 18.6252 22.0266 18.6202 22.0137C18.6109 21.9896 18.601 21.9643 18.5885 21.9453C18.521 22.0066 18.4524 22.0685 18.3834 22.131Z" fill="#082D59"/>
<path d="M13.9662 16.1031C13.9662 18.2473 12.5849 19.9855 10.881 19.9855C9.17716 19.9855 7.7959 18.2473 7.7959 16.1031C7.7959 13.9589 9.17716 12.2207 10.881 12.2207C12.5849 12.2207 13.9662 13.9589 13.9662 16.1031Z" fill="white"/>
<path fill-rule="evenodd" clip-rule="evenodd" d="M10.881 19.4927C12.2146 19.4927 13.4743 18.0859 13.4743 16.1031C13.4743 14.1203 12.2146 12.7135 10.881 12.7135C9.54751 12.7135 8.28779 14.1203 8.28779 16.1031C8.28779 18.0859 9.54751 19.4927 10.881 19.4927ZM10.881 19.9855C12.5849 19.9855 13.9662 18.2473 13.9662 16.1031C13.9662 13.9589 12.5849 12.2207 10.881 12.2207C9.17716 12.2207 7.7959 13.9589 7.7959 16.1031C7.7959 18.2473 9.17716 19.9855 10.881 19.9855Z" fill="#082D59"/>
<path d="M22.888 16.1033C22.888 18.2475 21.5068 19.9857 19.8029 19.9857C18.099 19.9857 16.7178 18.2475 16.7178 16.1033C16.7178 13.9592 18.099 12.2209 19.8029 12.2209C21.5068 12.2209 22.888 13.9592 22.888 16.1033Z" fill="white"/>
<path fill-rule="evenodd" clip-rule="evenodd" d="M19.8029 19.4929C21.1364 19.4929 22.3962 18.0861 22.3962 16.1033C22.3962 14.1206 21.1364 12.7138 19.8029 12.7138C18.4694 12.7138 17.2097 14.1206 17.2097 16.1033C17.2097 18.0861 18.4694 19.4929 19.8029 19.4929ZM19.8029 19.9857C21.5068 19.9857 22.888 18.2475 22.888 16.1033C22.888 13.9592 21.5068 12.2209 19.8029 12.2209C18.099 12.2209 16.7178 13.9592 16.7178 16.1033C16.7178 18.2475 18.099 19.9857 19.8029 19.9857Z" fill="#082D59"/>
</svg>
