<svg width="87" height="17" viewBox="0 0 87 17" fill="none" xmlns="http://www.w3.org/2000/svg">
<path d="M7.94523 7.01768V8.12553C7.37325 7.41081 6.40807 6.7854 5.13885 6.7854C2.49359 6.7854 0.473633 8.89388 0.473633 11.467C0.473633 13.9329 2.56494 16.2379 5.13885 16.2379C6.40807 16.2379 7.37325 15.6305 7.94523 14.9156V16.0056H11.1983V7.01768H7.94523ZM8.08813 11.8065C7.89152 12.8786 7.06923 13.5576 5.99682 13.5576C4.63842 13.5576 3.83416 12.6284 3.83416 11.467C3.83416 10.1983 4.56687 9.46573 5.99682 9.46573C7.06923 9.46573 7.89152 10.1626 8.08813 11.2347V11.8065Z" fill="#DA2C2C"/>
<path d="M18.9676 6.96265C17.6988 6.96265 16.7336 7.5702 16.1436 8.28494V7.19493H12.9795V16.1829H16.2326V11.3941C16.4116 10.3219 17.0373 9.64295 17.9846 9.64295C19.0394 9.64295 19.3252 10.0718 19.3252 11.3048V16.1829H22.5783V11.3048C22.5783 8.5351 21.5057 6.96265 18.9676 6.96265Z" fill="#DA2C2C"/>
<path d="M28.2615 9.53808H30.8536V6.94711H28.2615V3.427H25.0084V6.94711H23.4355V9.53808H25.0084V15.9351H28.2615V9.53808Z" fill="#DA2C2C"/>
<path d="M35.361 9.59078C35.361 9.32277 35.5578 9.19765 36.4156 9.19765C37.2379 9.19765 38.0247 9.39424 38.7931 9.84094L39.8479 7.71456C38.8109 7.08915 37.7383 6.7854 36.201 6.7854C33.9848 6.7854 32.0544 7.46444 32.0544 9.60868C32.0544 11.1453 33.2521 11.8244 34.5926 12.3068C36.0937 12.8429 36.5585 13.0394 36.5585 13.4325C36.5585 13.6827 36.3084 13.8077 35.4149 13.8077C34.682 13.8077 33.4667 13.4504 32.6266 12.968L31.6436 15.2372C32.7873 15.8806 34.0026 16.2379 35.7368 16.2379C38.0602 16.2379 39.8655 15.6305 39.8655 13.361C39.8655 11.735 38.7214 11.0917 37.0774 10.5378C35.6472 10.0554 35.361 9.93027 35.361 9.59078Z" fill="#DA2C2C"/>
<path d="M45.459 9.50439H48.0509V6.91341H45.459V3.39331H42.2059V6.91341H40.6328V9.50439H42.2059V15.9014H45.459V9.50439Z" fill="#DA2C2C"/>
<path d="M56.2448 7.01768V8.12553C55.6727 7.41081 54.7075 6.7854 53.4387 6.7854C50.7932 6.7854 48.7734 8.89388 48.7734 11.467C48.7734 13.9329 50.8646 16.2379 53.4387 16.2379C54.7075 16.2379 55.6727 15.6305 56.2448 14.9156V16.0056H59.4979V7.01768H56.2448ZM56.3877 11.8065C56.1909 12.8786 55.369 13.5576 54.2966 13.5576C52.9378 13.5576 52.1338 12.6284 52.1338 11.467C52.1338 10.1983 52.8667 9.46573 54.2966 9.46573C55.369 9.46573 56.1909 10.1626 56.3877 11.2347V11.8065Z" fill="#DA2C2C"/>
<path d="M66.3369 13.5576C65.157 13.5576 64.2814 12.7714 64.2814 11.4848C64.2991 10.1447 64.9608 9.46573 66.2118 9.46573C66.9808 9.46573 67.8742 9.62652 68.6787 9.966V7.25C67.8564 6.94625 67.1948 6.7854 66.2118 6.7854C63.4235 6.7854 60.9209 8.64373 60.9209 11.4848C60.9209 14.2724 63.4056 16.2379 66.2118 16.2379C67.088 16.2379 67.946 16.1129 68.6787 15.8627V13.1288C67.7135 13.4862 67.0163 13.5576 66.3369 13.5576Z" fill="#DA2C2C"/>
<path d="M80.1732 15.901L75.043 10.7191L79.9052 6.91309H75.812L73.4168 8.78929V0.873535H70.1992V15.901H73.4168V13.0956L76.1335 15.901H80.1732Z" fill="#DA2C2C"/>
<path d="M83.1501 0.824463C83.7047 0.824463 84.2018 0.952208 84.6414 1.20772C85.0813 1.45376 85.4253 1.79916 85.6739 2.2439C85.9224 2.67922 86.0467 3.17128 86.0467 3.72013C86.0467 4.269 85.9224 4.76581 85.6739 5.21057C85.4253 5.65532 85.0813 6.00546 84.6414 6.26095C84.2018 6.50699 83.7047 6.63001 83.1501 6.63001C82.5862 6.63001 82.0844 6.50699 81.6445 6.26095C81.2048 6.00546 80.8606 5.65532 80.6121 5.21057C80.3635 4.76581 80.2393 4.269 80.2393 3.72013C80.2393 3.17128 80.3635 2.67922 80.6121 2.2439C80.8606 1.79916 81.2048 1.45376 81.6445 1.20772C82.0844 0.952208 82.5862 0.824463 83.1501 0.824463ZM83.1501 6.06223C83.8385 6.06223 84.3929 5.84459 84.8135 5.40929C85.2438 4.974 85.4588 4.41094 85.4588 3.72013C85.4588 3.02935 85.2438 2.46629 84.8135 2.03099C84.3929 1.59569 83.8385 1.37806 83.1501 1.37806C82.4523 1.37806 81.8931 1.59569 81.4724 2.03099C81.0614 2.46629 80.8559 3.02935 80.8559 3.72013C80.8559 4.41094 81.0614 4.974 81.4724 5.40929C81.8931 5.84459 82.4523 6.06223 83.1501 6.06223ZM84.4407 3.12396C84.4407 3.35109 84.3786 3.54507 84.2543 3.70594C84.1396 3.85736 83.9771 3.96617 83.7668 4.03243L84.5699 5.21057L83.6664 5.22476L82.9782 4.08919H82.7344V5.22476H81.9887V2.17295H83.3653C83.6903 2.17295 83.9485 2.25812 84.1396 2.42844C84.3403 2.59877 84.4407 2.83062 84.4407 3.12396ZM82.7344 3.47883H83.3222C83.4275 3.47883 83.5135 3.45045 83.5804 3.39367C83.6568 3.3369 83.695 3.25645 83.695 3.15237C83.695 3.04826 83.6568 2.97256 83.5804 2.92524C83.5135 2.86848 83.4275 2.84007 83.3222 2.84007H82.7344V3.47883Z" fill="#DA2C2C"/>
</svg>
