<svg width="1512" height="1658" viewBox="0 0 1512 1658" fill="none" xmlns="http://www.w3.org/2000/svg">
<g opacity="0.02">
<path d="M412.262 1L475.676 64.4137C476.959 65.6973 476.959 67.7785 475.676 69.0621L412.262 132.476" stroke="url(#paint0_linear_1183_36)" stroke-width="32.8689" stroke-linecap="round"/>
<path d="M349.676 1L286.263 64.4137C284.979 65.6973 284.979 67.7785 286.263 69.0621L349.676 132.476" stroke="url(#paint1_linear_1183_36)" stroke-width="32.8689" stroke-linecap="round"/>
<path d="M283.938 66.7378L349.676 132.476" stroke="url(#paint2_linear_1183_36)" stroke-width="32.8689" stroke-linecap="round"/>
<path d="M137.792 1L201.206 64.4137C202.49 65.6973 202.49 67.7785 201.206 69.0621L137.792 132.476" stroke="url(#paint3_linear_1183_36)" stroke-width="32.8689" stroke-linecap="round"/>
<path d="M75.2066 1L11.7929 64.4137C10.5093 65.6973 10.5093 67.7785 11.7929 69.0621L75.2066 132.476" stroke="url(#paint4_linear_1183_36)" stroke-width="32.8689" stroke-linecap="round"/>
<path d="M9.46875 66.7378L75.2066 132.476" stroke="url(#paint5_linear_1183_36)" stroke-width="32.8689" stroke-linecap="round"/>
<path d="M-8.35312 198.577L55.0606 261.991C56.3442 263.274 56.3442 265.356 55.0606 266.639L-8.35312 330.053" stroke="url(#paint6_linear_1183_36)" stroke-width="32.8689" stroke-linecap="round"/>
<path d="M283.939 198.577L347.353 261.991C348.636 263.274 348.636 265.356 347.353 266.639L283.939 330.053" stroke="url(#paint7_linear_1183_36)" stroke-width="32.8689" stroke-linecap="round"/>
<path d="M221.353 198.577L157.939 261.991C156.656 263.274 156.656 265.356 157.939 266.639L221.353 330.053" stroke="url(#paint8_linear_1183_36)" stroke-width="32.8689" stroke-linecap="round"/>
<path d="M155.615 264.315L221.353 330.053" stroke="url(#paint9_linear_1183_36)" stroke-width="32.8689" stroke-linecap="round"/>
<path d="M137.792 396.154L201.206 459.568C202.49 460.852 202.49 462.933 201.206 464.216L137.792 527.63" stroke="url(#paint10_linear_1183_36)" stroke-width="32.8689" stroke-linecap="round"/>
<path d="M75.2066 396.154L11.7929 459.568C10.5093 460.852 10.5093 462.933 11.7929 464.216L75.2066 527.63" stroke="url(#paint11_linear_1183_36)" stroke-width="32.8689" stroke-linecap="round"/>
<path d="M9.46875 461.893L75.2066 527.63" stroke="url(#paint12_linear_1183_36)" stroke-width="32.8689" stroke-linecap="round"/>
<path d="M-8.67636 594L54.7373 657.414C56.021 658.697 56.021 660.778 54.7373 662.062L-8.67636 725.476" stroke="url(#paint13_linear_1183_36)" stroke-width="32.8689" stroke-linecap="round"/>
</g>
<g opacity="0.04">
<path d="M1270.74 693.476L1207.32 630.062C1206.04 628.778 1206.04 626.697 1207.32 625.414L1270.74 562" stroke="url(#paint14_linear_1183_36)" stroke-width="32.8689" stroke-linecap="round"/>
<path d="M1333.32 693.476L1396.74 630.062C1398.02 628.778 1398.02 626.697 1396.74 625.414L1333.32 562" stroke="url(#paint15_linear_1183_36)" stroke-width="32.8689" stroke-linecap="round"/>
<path d="M1399.06 627.738L1333.32 562" stroke="url(#paint16_linear_1183_36)" stroke-width="32.8689" stroke-linecap="round"/>
<path d="M1545.21 693.476L1481.79 630.062C1480.51 628.778 1480.51 626.697 1481.79 625.414L1545.21 562" stroke="url(#paint17_linear_1183_36)" stroke-width="32.8689" stroke-linecap="round"/>
<path d="M1399.06 495.898L1335.65 432.485C1334.36 431.201 1334.36 429.12 1335.65 427.836L1399.06 364.423" stroke="url(#paint18_linear_1183_36)" stroke-width="32.8689" stroke-linecap="round"/>
<path d="M1461.65 495.898L1525.06 432.485C1526.34 431.201 1526.34 429.12 1525.06 427.836L1461.65 364.423" stroke="url(#paint19_linear_1183_36)" stroke-width="32.8689" stroke-linecap="round"/>
<path d="M1527.38 430.161L1461.65 364.423" stroke="url(#paint20_linear_1183_36)" stroke-width="32.8689" stroke-linecap="round"/>
<path d="M1545.21 298.321L1481.79 234.908C1480.51 233.624 1480.51 231.543 1481.79 230.259L1545.21 166.846" stroke="url(#paint21_linear_1183_36)" stroke-width="32.8689" stroke-linecap="round"/>
</g>
<path opacity="0.05" fill-rule="evenodd" clip-rule="evenodd" d="M44.2911 1078.61C38.9973 1082.57 33.7311 1090.35 31.7698 1097.11C30.7272 1100.7 30.0495 1104 30.2625 1104.44C30.476 1104.88 29.109 1105.99 27.2254 1106.9C21.9304 1109.46 16.893 1116.72 16.0335 1123.04C14.7528 1132.46 18.3822 1140.14 26.5011 1145.17C33.1022 1149.26 38.5178 1149.52 47.0334 1146.12L54.0516 1143.32L56.4585 1147.16C58.2956 1150.08 59.447 1150.97 61.3203 1150.9C63.2407 1150.82 64.1319 1151.54 65.4116 1154.19L67.0478 1157.58L58.0757 1161.91C50.2452 1165.7 48.887 1166.09 47.3958 1165.01C46.4571 1164.32 44.2608 1163.85 42.5167 1163.95C39.9075 1164.1 38.9882 1164.61 37.331 1166.81C34.1267 1171.09 35.2085 1175.21 40.1691 1177.63C44.2407 1179.62 48.9462 1177.43 49.8959 1173.12C50.5369 1170.21 51.1072 1169.78 61.1459 1164.63L71.721 1159.2L69.7101 1154.35C68.0121 1150.25 67.9729 1149.36 69.4531 1148.64C71.0233 1147.89 71.524 1148.45 74.2333 1154.06L77.2593 1160.32L69.9578 1164.17L62.6558 1168.02L63.9766 1171.46C64.9053 1173.87 64.8519 1175.64 63.7938 1177.4C62.6331 1179.33 62.6686 1180.69 63.9513 1183.34C65.9533 1187.49 69.613 1188.89 73.4998 1187.01C79.5359 1184.1 78.5928 1175.6 72.0097 1173.59C65.9124 1171.72 66.4557 1170.07 74.4356 1166.21C82.7658 1162.19 82.7087 1162.4 78.0339 1152.73L74.8084 1146.06L77.9597 1144.53L81.111 1143.01L85.0092 1151.08C88.3664 1158.02 88.7351 1159.38 87.6635 1160.85C86.9798 1161.79 86.5015 1163.98 86.601 1165.73C86.7507 1168.34 87.2591 1169.25 89.4673 1170.91C93.7396 1174.11 97.8673 1173.03 100.29 1168.07C102.288 1163.98 100.097 1159.29 95.7376 1158.34C92.8303 1157.7 92.3775 1157.13 88.672 1149.46L84.7125 1141.27L87.8286 1139.76L90.9448 1138.26L95.0097 1146L99.0746 1153.75L106.629 1150.42C113.265 1147.5 114.281 1147.3 114.985 1148.75C115.426 1149.67 115.116 1151.53 114.295 1152.9C109.938 1160.15 120.016 1167.61 125.846 1161.45C129.623 1157.46 127.931 1151.26 122.609 1149.59C120.81 1149.03 118.967 1147.8 118.515 1146.86C116.443 1142.58 114.526 1142.4 107.425 1145.83L100.704 1149.08L97.6603 1142.78C95.2444 1137.78 94.8956 1136.35 95.9671 1135.83C96.9151 1135.37 97.7798 1136.13 98.8682 1138.39C101.921 1144.7 102.76 1144.76 113.959 1139.34C123.463 1134.75 124.109 1134.58 127.127 1135.76C133.521 1138.26 139.179 1132.17 136.195 1126C133.25 1119.9 124.739 1120.93 122.962 1127.59C122.093 1130.85 121.694 1131.17 113.01 1135.36L103.963 1139.74L102.523 1136.76C101.427 1134.49 101.498 1132.99 102.819 1130.47C104.242 1127.77 104.244 1126.53 102.83 1123.6L101.103 1120.03L108.351 1116.53C116.256 1112.71 118.538 1110.41 120.366 1104.44C122.047 1098.94 121.855 1096.32 119.399 1091.24C115.104 1082.35 105.97 1078.46 96.6394 1081.53C92.5437 1082.88 91.7169 1082.78 89.3037 1080.65C76.6873 1069.48 57.6331 1068.62 44.2911 1078.61ZM62.6077 1075.51C70.7008 1074.71 81.8831 1078.6 87.4877 1084.16L91.4371 1088.08L95.5004 1086.11C107.713 1080.21 120.593 1090.27 117.071 1102.95C115.631 1108.14 111.759 1111.79 104.411 1114.88L99.1439 1117.09L92.9238 1103.71C84.4154 1085.4 86.8572 1085.85 61.8063 1097.96C45.4835 1105.85 41.9753 1107.83 40.869 1109.81C39.583 1112.11 39.7645 1112.64 46.3128 1125.77L53.0866 1139.35L49.5097 1141.42C44.2073 1144.48 38.1855 1145.26 32.528 1143.6C16.7019 1138.98 14.923 1117.29 29.7804 1110.11C33.761 1108.18 33.9444 1107.88 34.529 1102.41C36.0229 1088.41 47.975 1076.96 62.6077 1075.51ZM85.5443 1097.03L87.9359 1101.98L68.1278 1111.55L48.3198 1121.12L45.9282 1116.17L43.5367 1111.23L63.3448 1101.65L83.1528 1092.08L85.5443 1097.03ZM48.6293 1114.87C49.1711 1115.99 51.0319 1115.37 59.6358 1111.21C68.2397 1107.06 69.8796 1105.98 69.3378 1104.86C68.796 1103.74 66.9352 1104.36 58.3313 1108.52C49.7274 1112.67 48.0876 1113.75 48.6293 1114.87ZM72.0389 1103.56C72.4011 1104.3 73.4915 1104.52 74.4918 1104.03C75.4922 1103.55 76.0025 1102.56 75.6403 1101.81C75.2781 1101.07 74.1877 1100.85 73.1874 1101.34C72.1871 1101.82 71.6767 1102.81 72.0389 1103.56ZM79.2418 1100.07C79.6005 1100.82 80.5018 1101.13 81.2446 1100.77C81.9874 1100.41 82.3016 1099.51 81.9429 1098.77C81.5842 1098.03 80.6829 1097.71 79.9401 1098.07C79.1973 1098.43 78.8831 1099.33 79.2418 1100.07ZM91.7797 1110.39L93.7906 1115.24L74.325 1124.95L54.859 1134.65L52.4593 1129.69L50.059 1124.72L69.9139 1115.13L89.7697 1105.53L91.7797 1110.39ZM54.9692 1126.38C54.7904 1126.9 54.9051 1127.85 55.2243 1128.51C55.6739 1129.45 58.1413 1128.58 66.2238 1124.68C75.6633 1120.12 76.5441 1119.51 75.5812 1118.21C74.6631 1116.98 73.2155 1117.37 64.9071 1121.12C59.6203 1123.5 55.1489 1125.87 54.9692 1126.38ZM78.3745 1115.08C77.7148 1116.97 79.2792 1118.37 81.0799 1117.5C82.3386 1116.89 82.6157 1116.15 81.9307 1115.24C80.8087 1113.74 78.8726 1113.65 78.3745 1115.08ZM85.5467 1113.12C86.0298 1114.12 87.0169 1114.63 87.7669 1114.27C88.5169 1113.9 88.7309 1112.81 88.2478 1111.81C87.7647 1110.82 86.7776 1110.31 86.0276 1110.67C85.2776 1111.03 85.0636 1112.12 85.5467 1113.12ZM98.302 1123.88L100.313 1128.74L80.8474 1138.44L61.3814 1148.15L58.9816 1143.18L56.5814 1138.22L76.4362 1128.62L96.292 1119.03L98.302 1123.88ZM61.4915 1139.88C61.3127 1140.39 61.4274 1141.35 61.7466 1142.01C62.1962 1142.94 64.6636 1142.08 72.7462 1138.17C82.1856 1133.61 83.0664 1133 82.1035 1131.71C81.1854 1130.47 79.7378 1130.87 71.4294 1134.61C66.1426 1137 61.6712 1139.37 61.4915 1139.88ZM84.887 1128.61C84.2455 1130.44 85.8015 1131.86 87.5365 1131.03C88.7367 1130.45 89.0472 1129.56 88.4676 1128.36C87.6297 1126.62 85.5272 1126.77 84.887 1128.61ZM92.069 1126.62C92.5521 1127.62 93.5392 1128.13 94.2892 1127.76C95.0392 1127.4 95.2532 1126.31 94.7701 1125.31C94.287 1124.31 93.2999 1123.8 92.5499 1124.16C91.7999 1124.53 91.5859 1125.62 92.069 1126.62ZM44.2643 1167.98C47.2299 1169.33 47.2201 1172.15 44.2444 1173.59C42.3843 1174.49 41.2348 1174.44 40.4743 1173.42C39.2203 1171.73 39.7506 1168.55 41.4181 1167.74C42.0393 1167.44 43.32 1167.55 44.2643 1167.98ZM131.808 1126.2C134.254 1127.98 134.255 1130.65 131.811 1131.83C128.873 1133.25 126.346 1131.88 126.469 1128.93C126.591 1125.99 129.485 1124.51 131.808 1126.2ZM96.2506 1164C97.3363 1166.24 97.194 1166.87 95.4023 1167.73C92.5202 1169.13 89.7343 1167.39 90.4176 1164.63C90.6979 1163.5 91.8316 1162.29 92.9366 1161.94C94.4637 1161.45 95.2592 1161.94 96.2506 1164ZM72.2846 1177.73C74.5662 1178.77 74.4131 1182.87 72.0506 1184.01C69.688 1185.16 66.3747 1182.72 66.9779 1180.29C67.225 1179.29 68.138 1178.14 69.0068 1177.72C69.8757 1177.3 71.3505 1177.3 72.2846 1177.73ZM123.331 1154.97C124.402 1156.66 124.359 1157.62 123.162 1158.76C121.292 1160.52 118.223 1160.05 117.149 1157.83C116.094 1155.64 116.711 1154.51 119.483 1153.55C121.299 1152.92 122.25 1153.27 123.331 1154.97Z" fill="white"/>
<path opacity="0.05" fill-rule="evenodd" clip-rule="evenodd" d="M1468.06 1066.61C1473.35 1070.57 1478.62 1078.35 1480.58 1085.11C1481.62 1088.7 1482.3 1092 1482.09 1092.44C1481.87 1092.88 1483.24 1093.99 1485.12 1094.9C1490.42 1097.46 1495.45 1104.72 1496.31 1111.04C1497.59 1120.46 1493.97 1128.14 1485.85 1133.17C1479.25 1137.26 1473.83 1137.52 1465.31 1134.12L1458.3 1131.32L1455.89 1135.16C1454.05 1138.08 1452.9 1138.97 1451.03 1138.9C1449.11 1138.82 1448.22 1139.54 1446.94 1142.19L1445.3 1145.58L1454.27 1149.91C1462.1 1153.7 1463.46 1154.09 1464.95 1153.01C1465.89 1152.32 1468.09 1151.85 1469.83 1151.95C1472.44 1152.1 1473.36 1152.61 1475.02 1154.81C1478.22 1159.09 1477.14 1163.21 1472.18 1165.63C1468.11 1167.62 1463.4 1165.43 1462.45 1161.12C1461.81 1158.21 1461.24 1157.78 1451.2 1152.63L1440.63 1147.2L1442.64 1142.35C1444.34 1138.25 1444.37 1137.36 1442.89 1136.64C1441.32 1135.89 1440.82 1136.45 1438.11 1142.06L1435.09 1148.32L1442.39 1152.17L1449.69 1156.02L1448.37 1159.46C1447.44 1161.87 1447.5 1163.64 1448.55 1165.4C1449.71 1167.33 1449.68 1168.69 1448.4 1171.34C1446.39 1175.49 1442.73 1176.89 1438.85 1175.01C1432.81 1172.1 1433.75 1163.6 1440.34 1161.59C1446.44 1159.72 1445.89 1158.07 1437.91 1154.21C1429.58 1150.19 1429.64 1150.4 1434.31 1140.73L1437.54 1134.06L1434.39 1132.53L1431.24 1131.01L1427.34 1139.08C1423.98 1146.02 1423.61 1147.38 1424.68 1148.85C1425.37 1149.79 1425.85 1151.98 1425.75 1153.73C1425.6 1156.34 1425.09 1157.25 1422.88 1158.91C1418.61 1162.11 1414.48 1161.03 1412.06 1156.07C1410.06 1151.98 1412.25 1147.29 1416.61 1146.34C1419.52 1145.7 1419.97 1145.13 1423.68 1137.46L1427.64 1129.27L1424.52 1127.76L1421.4 1126.26L1417.34 1134L1413.27 1141.75L1405.72 1138.42C1399.08 1135.5 1398.07 1135.3 1397.36 1136.75C1396.92 1137.67 1397.23 1139.53 1398.05 1140.9C1402.41 1148.15 1392.33 1155.61 1386.5 1149.45C1382.72 1145.46 1384.42 1139.26 1389.74 1137.59C1391.54 1137.03 1393.38 1135.8 1393.83 1134.86C1395.9 1130.58 1397.82 1130.4 1404.92 1133.83L1411.64 1137.08L1414.69 1130.78C1417.1 1125.78 1417.45 1124.35 1416.38 1123.83C1415.43 1123.37 1414.57 1124.13 1413.48 1126.39C1410.43 1132.7 1409.59 1132.76 1398.39 1127.34C1388.88 1122.75 1388.24 1122.58 1385.22 1123.76C1378.83 1126.26 1373.17 1120.17 1376.15 1114C1379.1 1107.9 1387.61 1108.93 1389.39 1115.59C1390.25 1118.85 1390.65 1119.17 1399.34 1123.36L1408.38 1127.74L1409.82 1124.76C1410.92 1122.49 1410.85 1120.99 1409.53 1118.47C1408.11 1115.77 1408.1 1114.53 1409.52 1111.6L1411.24 1108.03L1404 1104.53C1396.09 1100.71 1393.81 1098.41 1391.98 1092.44C1390.3 1086.94 1390.49 1084.32 1392.95 1079.24C1397.24 1070.35 1406.38 1066.46 1415.71 1069.53C1419.8 1070.88 1420.63 1070.78 1423.04 1068.65C1435.66 1057.48 1454.71 1056.62 1468.06 1066.61ZM1449.74 1063.51C1441.65 1062.71 1430.46 1066.6 1424.86 1072.16L1420.91 1076.08L1416.85 1074.11C1404.63 1068.21 1391.76 1078.27 1395.28 1090.95C1396.72 1096.14 1400.59 1099.79 1407.94 1102.88L1413.2 1105.09L1419.42 1091.71C1427.93 1073.4 1425.49 1073.85 1450.54 1085.96C1466.86 1093.85 1470.37 1095.83 1471.48 1097.81C1472.76 1100.11 1472.58 1100.64 1466.03 1113.77L1459.26 1127.35L1462.84 1129.42C1468.14 1132.48 1474.16 1133.26 1479.82 1131.6C1495.65 1126.98 1497.42 1105.29 1482.57 1098.11C1478.59 1096.18 1478.4 1095.88 1477.82 1090.41C1476.32 1076.41 1464.37 1064.96 1449.74 1063.51ZM1426.8 1085.03L1424.41 1089.98L1444.22 1099.55L1464.03 1109.12L1466.42 1104.17L1468.81 1099.23L1449 1089.65L1429.19 1080.08L1426.8 1085.03ZM1463.72 1102.87C1463.18 1103.99 1461.32 1103.37 1452.71 1099.21C1444.11 1095.06 1442.47 1093.98 1443.01 1092.86C1443.55 1091.74 1445.41 1092.36 1454.02 1096.52C1462.62 1100.67 1464.26 1101.75 1463.72 1102.87ZM1440.31 1091.56C1439.95 1092.3 1438.86 1092.52 1437.86 1092.03C1436.86 1091.55 1436.35 1090.56 1436.71 1089.81C1437.07 1089.07 1438.16 1088.85 1439.16 1089.34C1440.16 1089.82 1440.67 1090.81 1440.31 1091.56ZM1433.11 1088.07C1432.75 1088.82 1431.85 1089.13 1431.1 1088.77C1430.36 1088.41 1430.05 1087.51 1430.4 1086.77C1430.76 1086.03 1431.66 1085.71 1432.41 1086.07C1433.15 1086.43 1433.46 1087.33 1433.11 1088.07ZM1420.57 1098.39L1418.56 1103.24L1438.02 1112.95L1457.49 1122.65L1459.89 1117.69L1462.29 1112.72L1442.43 1103.13L1422.58 1093.53L1420.57 1098.39ZM1457.38 1114.38C1457.56 1114.9 1457.44 1115.85 1457.12 1116.51C1456.67 1117.45 1454.21 1116.58 1446.12 1112.68C1436.68 1108.12 1435.8 1107.51 1436.77 1106.21C1437.68 1104.98 1439.13 1105.37 1447.44 1109.12C1452.73 1111.5 1457.2 1113.87 1457.38 1114.38ZM1433.97 1103.08C1434.63 1104.97 1433.07 1106.37 1431.27 1105.5C1430.01 1104.89 1429.73 1104.15 1430.42 1103.24C1431.54 1101.74 1433.48 1101.65 1433.97 1103.08ZM1426.8 1101.12C1426.32 1102.12 1425.33 1102.63 1424.58 1102.27C1423.83 1101.9 1423.62 1100.81 1424.1 1099.81C1424.58 1098.82 1425.57 1098.31 1426.32 1098.67C1427.07 1099.03 1427.28 1100.12 1426.8 1101.12ZM1414.05 1111.88L1412.03 1116.74L1431.5 1126.44L1450.97 1136.15L1453.37 1131.18L1455.77 1126.22L1435.91 1116.62L1416.06 1107.03L1414.05 1111.88ZM1450.86 1127.88C1451.03 1128.39 1450.92 1129.35 1450.6 1130.01C1450.15 1130.94 1447.68 1130.08 1439.6 1126.17C1430.16 1121.61 1429.28 1121 1430.24 1119.71C1431.16 1118.47 1432.61 1118.87 1440.92 1122.61C1446.21 1125 1450.68 1127.37 1450.86 1127.88ZM1427.46 1116.61C1428.1 1118.44 1426.55 1119.86 1424.81 1119.03C1423.61 1118.45 1423.3 1117.56 1423.88 1116.36C1424.72 1114.62 1426.82 1114.77 1427.46 1116.61ZM1420.28 1114.62C1419.8 1115.62 1418.81 1116.13 1418.06 1115.76C1417.31 1115.4 1417.09 1114.31 1417.58 1113.31C1418.06 1112.31 1419.05 1111.8 1419.8 1112.16C1420.55 1112.53 1420.76 1113.62 1420.28 1114.62ZM1468.08 1155.98C1465.12 1157.33 1465.13 1160.15 1468.1 1161.59C1469.96 1162.49 1471.11 1162.44 1471.87 1161.42C1473.13 1159.73 1472.6 1156.55 1470.93 1155.74C1470.31 1155.44 1469.03 1155.55 1468.08 1155.98ZM1380.54 1114.2C1378.09 1115.98 1378.09 1118.65 1380.54 1119.83C1383.47 1121.25 1386 1119.88 1385.88 1116.93C1385.76 1113.99 1382.86 1112.51 1380.54 1114.2ZM1416.1 1152C1415.01 1154.24 1415.15 1154.87 1416.95 1155.73C1419.83 1157.13 1422.61 1155.39 1421.93 1152.63C1421.65 1151.5 1420.52 1150.29 1419.41 1149.94C1417.88 1149.45 1417.09 1149.94 1416.1 1152ZM1440.06 1165.73C1437.78 1166.77 1437.93 1170.87 1440.3 1172.01C1442.66 1173.16 1445.97 1170.72 1445.37 1168.29C1445.12 1167.29 1444.21 1166.14 1443.34 1165.72C1442.47 1165.3 1441 1165.3 1440.06 1165.73ZM1389.02 1142.97C1387.95 1144.66 1387.99 1145.62 1389.19 1146.76C1391.06 1148.52 1394.13 1148.05 1395.2 1145.83C1396.25 1143.64 1395.64 1142.51 1392.86 1141.55C1391.05 1140.92 1390.1 1141.27 1389.02 1142.97Z" fill="white"/>
<path opacity="0.05" fill-rule="evenodd" clip-rule="evenodd" d="M303.253 1281.32C301.97 1282.11 300.664 1283.1 300.351 1283.5C299.587 1284.5 298.295 1283.41 295.997 1279.82C294.28 1277.14 293.767 1276.88 291.012 1277.24C288.257 1277.6 287.831 1277.99 286.87 1281.02C285.331 1285.88 284.892 1286.18 281.399 1284.8C278.661 1283.72 277.932 1283.92 275.733 1286.34C273.402 1288.91 273.357 1289.37 275.131 1292.47C277.299 1296.24 277.317 1296.18 273.303 1298.75C270.766 1300.38 270.395 1301.01 270.588 1303.37C270.824 1306.24 273.672 1309.18 275.54 1308.47C277.971 1307.55 279.476 1310.27 278.248 1313.38C277.167 1316.12 277.365 1316.85 279.789 1319.05C282.37 1321.39 282.817 1321.43 286.012 1319.6C288.908 1317.94 289.666 1317.92 290.781 1319.5C294.076 1324.16 294.757 1324.59 298.042 1324.05C301.226 1323.53 301.412 1323.35 301.986 1320.12C302.78 1315.68 302.679 1315.74 306.909 1316.86C310.137 1317.72 310.837 1317.49 312.765 1314.97C314.693 1312.46 314.73 1311.72 313.067 1308.83C310.889 1305.03 310.85 1305.15 314.939 1303.23C317.902 1301.84 318.032 1301.61 317.708 1298.4C317.375 1295.09 316.785 1294.54 311.427 1292.57C309.618 1291.9 309.431 1291.17 310.267 1288C311.147 1284.67 310.933 1283.98 308.424 1282.06C306.109 1280.28 305.157 1280.15 303.253 1281.32ZM305.973 1288.34C305.414 1289.64 305.384 1291.92 305.909 1293.41C306.772 1295.88 307.169 1296.19 310.205 1296.73C314.104 1297.43 314.367 1298.93 310.909 1300.77C307.168 1302.76 306.096 1306.37 308.425 1309.13C310.96 1312.13 309.806 1313.64 305.878 1312.46C301.995 1311.28 299.977 1312.52 298.576 1316.94C297.249 1321.13 296.183 1321.48 294.707 1318.23C292.952 1314.36 289.793 1313.19 286.275 1315.13C282.384 1317.26 280.797 1316.18 282.497 1312.54C284.028 1309.27 282.054 1306.07 277.923 1305.12C274.144 1304.24 273.954 1302.72 277.423 1301.09C281.334 1299.25 282.356 1295.25 279.714 1292.11C278.675 1290.88 278.192 1289.4 278.64 1288.81C279.089 1288.23 280.65 1288.31 282.11 1288.99C285.821 1290.73 289.422 1288.7 290.181 1284.45C290.88 1280.53 292.645 1280.41 293.968 1284.18C295.26 1287.87 299.554 1288.91 302.668 1286.28C305.424 1283.96 307.349 1285.16 305.973 1288.34ZM324.354 1300.74C323.689 1301.17 321.674 1302.77 319.877 1304.3C317.263 1306.51 316.774 1307.33 317.43 1308.4C318.639 1310.37 318.782 1310.4 321.004 1309.01C322.831 1307.88 322.86 1308.2 321.286 1312.05C318.7 1318.38 312.934 1324.4 306.623 1327.35C302.445 1329.3 301.367 1330.18 301.771 1331.3C302.5 1333.33 307.892 1331.87 313.186 1328.21C318.469 1324.57 323.845 1317.61 325.568 1312.2C326.277 1309.97 326.919 1308.06 326.996 1307.94C327.073 1307.83 328.029 1308.42 329.121 1309.26C331.407 1311.01 333.434 1309.31 331.77 1307.03C328.441 1302.48 325.512 1299.99 324.354 1300.74ZM292.895 1291.46C289.862 1291.86 288.221 1292.75 286.576 1294.9C281.519 1301.49 287.175 1311.38 295.39 1310.3C300.914 1309.57 304.594 1304.44 303.415 1299.1C302.201 1293.61 298.265 1290.75 292.895 1291.46ZM300.143 1299.88C300.265 1300.81 299.517 1302.67 298.48 1304.02C296.068 1307.17 293.884 1307.42 290.641 1304.94C286.748 1301.95 288.473 1295.82 293.386 1295.17C295.993 1294.83 299.827 1297.5 300.143 1299.88ZM262.823 1276.63C261.261 1276.99 260.884 1277.47 260.944 1279.02C261.011 1280.72 260.4 1280.49 256.245 1277.31C247.406 1270.53 232.232 1266.83 220.667 1268.63C217.136 1269.18 216.729 1269.47 217.124 1271.21C217.503 1272.87 218.614 1273.06 224.436 1272.49C232.623 1271.69 242.748 1273.84 250.541 1278.03C258.188 1282.14 258.653 1282.55 256.894 1283.63C256.077 1284.13 255.441 1285.37 255.481 1286.38C255.541 1287.92 256.3 1288.13 260.174 1287.68C262.716 1287.39 265.099 1286.75 265.469 1286.27C265.84 1285.79 265.835 1283.32 265.46 1280.79C264.858 1276.74 264.544 1276.24 262.823 1276.63ZM248.012 1286.42C247.154 1286.63 245.351 1287.74 244.004 1288.89C240.508 1291.87 237.864 1290.43 237.813 1285.52C237.775 1281.84 237.595 1281.58 234.569 1280.77C229.627 1279.44 228.141 1280.1 226.698 1284.24C224.868 1289.5 222.694 1289.78 219.668 1285.13C217.455 1281.74 217.336 1281.69 214.064 1282.69C209.705 1284.03 208.876 1285.25 209.549 1289.36C210.413 1294.61 208.636 1295.93 203.596 1293.75L199.289 1291.89L196.735 1295.72C194.21 1299.49 194.215 1299.58 197.045 1302.79C200.43 1306.63 199.573 1308.66 194.349 1309.18C190.128 1309.6 188.718 1311.33 189.012 1315.73C189.224 1318.91 189.487 1319.22 192.954 1320.49C198.114 1322.38 198.281 1324.2 193.607 1327.57C190.496 1329.82 190.183 1330.33 190.709 1332.31C191.89 1336.75 193.981 1338.37 197.975 1337.93C203.511 1337.32 204.7 1338.78 202.425 1343.39C200.512 1347.26 200.516 1347.28 204.054 1349.99C207.529 1352.65 207.673 1352.66 211.252 1350.16C215.525 1347.17 217.48 1348.03 217.994 1353.12C218.404 1357.19 219.796 1358.42 223.988 1358.41C226.89 1358.41 227.225 1358.14 228.722 1354.52C230.861 1349.37 232.977 1349.11 236.184 1353.61C238.731 1357.18 240.111 1357.41 244.353 1354.96C247.021 1353.42 247.132 1353.09 246.271 1349.23C245.148 1344.2 247.162 1342.54 251.625 1344.8C258.2 1348.13 264.21 1340.08 258.447 1335.66C257.409 1334.86 256.685 1333.32 256.838 1332.22C257.058 1330.66 258.078 1330.09 261.61 1329.56L266.102 1328.88L266.75 1324.87C267.378 1320.97 267.276 1320.78 263.513 1318.63C258.69 1315.88 257.94 1313.7 261.138 1311.73C265.028 1309.33 265.627 1307.66 263.941 1303.91L262.318 1300.31L257.805 1300.82C254.255 1301.22 253.122 1300.94 252.502 1299.48C252.07 1298.47 252.267 1296.91 252.941 1296.04C255.275 1292.99 255.026 1290.22 252.223 1288.07C250.764 1286.96 248.869 1286.21 248.012 1286.42ZM248.885 1295.57C247.169 1298.81 247.229 1299.44 249.538 1302.46C251.882 1305.51 252.369 1305.74 255.774 1305.37C259.429 1304.96 261.846 1305.79 260.846 1307.09C260.562 1307.46 259.048 1308.61 257.482 1309.63C254.888 1311.34 254.676 1311.87 255.091 1315.61C255.407 1318.46 256.138 1319.96 257.484 1320.5C263.322 1322.84 263.7 1323.09 262.93 1324.09C262.494 1324.66 260.485 1325.38 258.465 1325.69C255.08 1326.21 254.669 1326.56 253.201 1330.12C251.756 1333.63 251.862 1334.25 254.363 1336.94C257.57 1340.38 256.699 1342.72 252.887 1340.89C248.815 1338.94 247.264 1339 244.416 1341.22C242.119 1343.02 241.792 1343.85 242.141 1347C242.818 1353.12 240.652 1353.8 237.37 1348.49C236.147 1346.51 235.272 1346.19 231.739 1346.46C227.703 1346.76 227.509 1346.9 226.249 1350.52C224.313 1356.08 221.884 1356.04 221.622 1350.43C221.425 1346.22 221.393 1346.17 217.403 1344.85C214.046 1343.74 212.894 1343.91 210.424 1345.86C206.93 1348.62 204.898 1347.67 206.588 1344.06C207.244 1342.66 207.958 1341.06 208.175 1340.5C208.391 1339.94 207.52 1338.01 206.239 1336.21C204.02 1333.09 203.703 1332.97 199.43 1333.46C195.635 1333.9 195.025 1333.72 195.449 1332.28C195.725 1331.35 197.107 1329.83 198.52 1328.9C200.816 1327.39 201.015 1326.76 200.396 1322.92C199.796 1319.2 199.331 1318.51 196.904 1317.71C195.365 1317.2 193.694 1316.12 193.191 1315.3C192.423 1314.05 192.993 1313.7 196.74 1313.15C200.995 1312.52 201.268 1312.31 202.601 1308.73C203.37 1306.66 203.709 1304.58 203.354 1304.09C202.998 1303.61 201.891 1302.24 200.893 1301.06C198.323 1298.01 200.037 1296.57 204.129 1298.33C207.023 1299.57 208.178 1299.44 211.131 1297.49C214.641 1295.19 214.661 1295.14 213.753 1291.01C212.547 1285.53 214.881 1284.86 218.198 1289.73C220.357 1292.9 220.581 1292.98 224.558 1292.23C228.038 1291.57 228.802 1291.04 229.467 1288.81C231.255 1282.84 233.523 1282.93 234.462 1289.02C234.946 1292.15 235.477 1292.87 238.163 1294C241.492 1295.41 243.006 1295.07 246.43 1292.13C249.636 1289.38 251.085 1291.41 248.885 1295.57ZM287.764 1331.12C285.614 1332.45 285.075 1332.33 283.081 1330.11C280.071 1326.76 276.176 1327.3 274.184 1331.36C273.023 1333.72 272.399 1334.06 270.154 1333.54C266.344 1332.66 262.86 1337.23 264.702 1340.68C266.131 1343.37 265.847 1344.11 262.889 1345.45C261.276 1346.18 260.974 1347.04 261.346 1349.84C261.741 1352.82 262.21 1353.45 264.564 1354.16C266.08 1354.61 267.325 1355.14 267.33 1355.34C267.335 1355.54 267.143 1356.82 266.902 1358.2C266.246 1361.92 271.143 1365.47 274.275 1363.53C276.851 1361.94 277.119 1362.03 278.437 1364.94C279.21 1366.65 280 1366.98 282.685 1366.71C285.291 1366.45 286.282 1365.79 287.415 1363.55C288.645 1361.12 289.25 1360.81 291.672 1361.37C294.01 1361.91 294.792 1361.54 296.219 1359.26C297.418 1357.34 297.57 1355.83 296.717 1354.3C295.674 1352.42 295.868 1351.76 298.025 1349.82C301.647 1346.56 301.227 1343.06 296.934 1340.73C294.176 1339.23 293.814 1338.64 294.35 1336.53C294.787 1334.81 294.257 1333.4 292.583 1331.85C290.571 1329.97 289.813 1329.85 287.764 1331.12ZM290.196 1337.84C288.997 1339.4 291.679 1343.75 294.087 1344.15C296.683 1344.57 296.861 1345.91 294.464 1347C292.084 1348.07 290.912 1352.66 292.453 1354.87C293.776 1356.76 292.923 1358.31 291.259 1357.04C289.625 1355.78 284.409 1358.37 284.215 1360.53C283.948 1363.49 283.181 1363.57 280.773 1360.89C278.805 1358.69 277.864 1358.37 274.931 1358.87C270.93 1359.55 270.034 1359.21 271.353 1357.48C272.542 1355.93 270.055 1351.89 267.135 1350.62C265.022 1349.71 265.038 1349.5 267.401 1347.27C269.911 1344.91 270.348 1342.01 268.601 1339.33C268.116 1338.58 269.186 1338.06 271.766 1337.8C275.088 1337.47 275.897 1336.95 277.245 1334.28C278.796 1331.22 278.855 1331.2 280.295 1333.53C282.003 1336.3 284.947 1337.1 288.11 1335.67C290.256 1334.7 291.561 1336.06 290.196 1337.84ZM235.01 1298.88C230.662 1297.2 222.555 1297.84 218.093 1300.22C204.279 1307.59 202.543 1326.85 214.849 1336.2C222.771 1342.22 233.068 1342.35 240.85 1336.51C254.324 1326.4 251.012 1305.06 235.01 1298.88ZM244.64 1314.32C247.984 1326.62 238.282 1338.28 225.974 1336.74C221.642 1336.2 220.197 1335.51 216.47 1332.2C209.008 1325.57 208.179 1316.62 214.288 1308.65C222.891 1297.43 240.965 1300.8 244.64 1314.32ZM280.146 1339.75C278.069 1339.95 276.454 1340.97 274.805 1343.12C270.346 1348.94 275.227 1356.7 282.329 1355.08C291.324 1353.04 289.306 1338.87 280.146 1339.75ZM284.238 1347.19C284.332 1349.61 282.284 1351.4 279.685 1351.16C278.071 1351.01 277.56 1350.35 277.25 1348.01C276.925 1345.55 277.233 1344.87 279.049 1344.05C281.578 1342.91 284.131 1344.45 284.238 1347.19Z" fill="white"/>
<path opacity="0.05" fill-rule="evenodd" clip-rule="evenodd" d="M1198.04 1519.61C1198.31 1521.1 1198.75 1522.67 1199.02 1523.11C1199.67 1524.19 1198.18 1524.99 1194.01 1525.83C1190.89 1526.46 1190.45 1526.84 1189.79 1529.54C1189.13 1532.24 1189.34 1532.77 1191.81 1534.77C1195.78 1537.97 1195.9 1538.49 1193.35 1541.24C1191.34 1543.4 1191.26 1544.15 1192.72 1547.08C1194.26 1550.18 1194.68 1550.39 1198.21 1549.86C1202.51 1549.22 1202.46 1549.18 1203.4 1553.85C1203.99 1556.8 1204.45 1557.38 1206.72 1558.06C1209.48 1558.88 1213.25 1557.29 1213.27 1555.3C1213.29 1552.7 1216.38 1552.29 1218.83 1554.56C1220.98 1556.56 1221.73 1556.64 1224.66 1555.18C1227.78 1553.63 1227.98 1553.22 1227.44 1549.58C1226.94 1546.28 1227.2 1545.57 1229.08 1545.1C1234.62 1543.73 1235.27 1543.25 1235.96 1539.99C1236.63 1536.84 1236.52 1536.6 1233.73 1534.89C1229.88 1532.54 1229.9 1532.65 1232.48 1529.12C1234.45 1526.42 1234.49 1525.69 1232.85 1522.98C1231.21 1520.27 1230.54 1519.97 1227.23 1520.46C1222.91 1521.11 1223 1521.19 1222.7 1516.69C1222.48 1513.42 1222.31 1513.22 1219.2 1512.35C1216 1511.46 1215.27 1511.81 1211.49 1516.08C1210.21 1517.53 1209.46 1517.44 1206.81 1515.51C1204.03 1513.48 1203.31 1513.43 1200.6 1515.06C1198.11 1516.58 1197.64 1517.41 1198.04 1519.61ZM1205.57 1519.63C1206.57 1520.62 1208.69 1521.48 1210.27 1521.53C1212.88 1521.62 1213.31 1521.37 1214.92 1518.73C1216.99 1515.36 1218.49 1515.66 1218.94 1519.55C1219.44 1523.76 1222.41 1526.06 1225.83 1524.9C1229.55 1523.63 1230.53 1525.25 1228 1528.48C1225.5 1531.67 1225.92 1534 1229.53 1536.91C1232.95 1539.67 1232.89 1540.79 1229.32 1540.98C1225.08 1541.21 1222.85 1543.73 1223.37 1547.71C1223.94 1552.11 1222.36 1553.2 1219.59 1550.29C1217.1 1547.68 1213.4 1548.36 1211.01 1551.86C1208.82 1555.06 1207.33 1554.68 1207.08 1550.86C1206.78 1546.55 1203.42 1544.14 1199.55 1545.47C1198.02 1545.99 1196.46 1545.9 1196.08 1545.27C1195.7 1544.64 1196.34 1543.21 1197.51 1542.1C1200.47 1539.27 1199.89 1535.18 1196.21 1532.93C1192.81 1530.86 1193.34 1529.17 1197.34 1529.31C1201.24 1529.44 1203.77 1525.82 1202.45 1521.96C1201.29 1518.55 1203.11 1517.19 1205.57 1519.63ZM1223.8 1507.01C1223.96 1507.79 1224.72 1510.24 1225.48 1512.47C1226.6 1515.71 1227.19 1516.47 1228.42 1516.24C1230.69 1515.83 1230.77 1515.71 1230.29 1513.14C1229.89 1511.02 1230.2 1511.11 1233.22 1513.98C1238.18 1518.68 1241.69 1526.24 1242.15 1533.19C1242.45 1537.8 1242.88 1539.12 1244.07 1539.15C1246.22 1539.21 1246.82 1533.65 1245.34 1527.39C1243.86 1521.15 1239.33 1513.61 1234.91 1510.04C1233.1 1508.57 1231.54 1507.28 1231.47 1507.16C1231.39 1507.05 1232.29 1506.37 1233.46 1505.66C1235.93 1504.17 1235.08 1501.66 1232.35 1502.39C1226.9 1503.83 1223.52 1505.66 1223.8 1507.01ZM1203.72 1532.95C1202.99 1535.92 1203.23 1537.77 1204.63 1540.08C1208.94 1547.19 1220.2 1545.51 1222.18 1537.47C1223.51 1532.05 1220.06 1526.76 1214.67 1525.92C1209.11 1525.06 1205.01 1527.69 1203.72 1532.95ZM1214.2 1529.26C1215.11 1529.48 1216.57 1530.85 1217.46 1532.31C1219.51 1535.7 1218.96 1537.83 1215.46 1539.94C1211.27 1542.49 1206.18 1538.65 1207.36 1533.84C1207.99 1531.29 1211.87 1528.68 1214.2 1529.26ZM1178.98 1555.58C1178.75 1557.16 1179.06 1557.69 1180.53 1558.2C1182.13 1558.75 1181.7 1559.24 1177.23 1561.95C1167.7 1567.73 1158.74 1580.52 1156.21 1591.95C1155.44 1595.44 1155.57 1595.93 1157.33 1596.19C1159.02 1596.44 1159.6 1595.47 1161.19 1589.84C1163.41 1581.92 1169.09 1573.27 1175.83 1567.53C1182.44 1561.9 1182.99 1561.62 1183.35 1563.65C1183.52 1564.59 1184.44 1565.63 1185.4 1565.96C1186.86 1566.47 1187.33 1565.83 1188.32 1562.06C1188.97 1559.59 1189.24 1557.14 1188.92 1556.62C1188.61 1556.09 1186.31 1555.2 1183.81 1554.63C1179.82 1553.72 1179.24 1553.83 1178.98 1555.58ZM1182.72 1572.94C1182.61 1573.81 1182.99 1575.89 1183.57 1577.56C1185.08 1581.91 1182.78 1583.85 1178.18 1582.11C1174.74 1580.81 1174.43 1580.88 1172.58 1583.41C1169.55 1587.53 1169.62 1589.15 1172.96 1592C1177.19 1595.62 1176.65 1597.74 1171.23 1598.88C1167.27 1599.71 1167.17 1599.8 1166.92 1603.21C1166.58 1607.76 1167.42 1608.97 1171.49 1609.84C1176.7 1610.94 1177.28 1613.08 1173.42 1616.98L1170.12 1620.32L1172.76 1624.09C1175.36 1627.81 1175.44 1627.84 1179.46 1626.37C1184.27 1624.61 1185.85 1626.14 1184.44 1631.2C1183.3 1635.29 1184.4 1637.23 1188.6 1638.55C1191.64 1639.51 1192.03 1639.38 1194.47 1636.61C1198.1 1632.49 1199.86 1632.99 1201.3 1638.57C1202.27 1642.29 1202.63 1642.76 1204.66 1642.99C1209.23 1643.51 1211.5 1642.15 1212.54 1638.27C1213.99 1632.89 1215.78 1632.31 1219.24 1636.1C1222.16 1639.29 1222.17 1639.29 1225.99 1636.98C1229.73 1634.71 1229.79 1634.58 1228.75 1630.34C1227.52 1625.27 1229.04 1623.76 1233.97 1625.13C1237.9 1626.23 1239.55 1625.38 1241.07 1621.47C1242.13 1618.76 1241.99 1618.35 1239.17 1615.65C1235.14 1611.78 1235.67 1609.71 1241.03 1608.36C1245.28 1607.29 1246 1606.08 1245.25 1601.24C1244.79 1598.2 1244.52 1597.97 1240.62 1597.37C1235.52 1596.59 1234.7 1594.11 1238.43 1590.77C1243.92 1585.86 1238.6 1577.33 1232.39 1581.1C1231.27 1581.78 1229.57 1581.89 1228.6 1581.35C1227.23 1580.58 1227.07 1579.42 1227.86 1575.94L1228.86 1571.51L1225.35 1569.44C1221.95 1567.44 1221.73 1567.47 1218.37 1570.19C1214.06 1573.69 1211.75 1573.6 1211.07 1569.9C1210.25 1565.4 1208.91 1564.24 1204.81 1564.45L1200.86 1564.65L1199.7 1569.04C1198.78 1572.5 1198.11 1573.45 1196.53 1573.5C1195.42 1573.53 1194.05 1572.78 1193.47 1571.84C1191.48 1568.55 1188.82 1567.78 1185.8 1569.61C1184.22 1570.57 1182.84 1572.06 1182.72 1572.94ZM1191.57 1575.45C1193.96 1578.22 1194.57 1578.39 1198.22 1577.34C1201.92 1576.26 1202.31 1575.89 1203.2 1572.59C1204.15 1569.03 1205.79 1567.08 1206.64 1568.49C1206.89 1568.89 1207.4 1570.71 1207.79 1572.54C1208.44 1575.58 1208.85 1575.97 1212.49 1576.94C1215.27 1577.69 1216.92 1577.55 1217.91 1576.49C1222.22 1571.9 1222.59 1571.64 1223.25 1572.72C1223.62 1573.33 1223.56 1575.47 1223.11 1577.46C1222.37 1580.8 1222.54 1581.31 1225.32 1583.97C1228.07 1586.59 1228.69 1586.72 1232.1 1585.37C1236.48 1583.63 1238.33 1585.29 1235.25 1588.18C1231.95 1591.26 1231.44 1592.73 1232.48 1596.19C1233.32 1598.98 1233.97 1599.59 1237.03 1600.41C1242.98 1602 1242.83 1604.27 1236.69 1605.4C1234.4 1605.82 1233.79 1606.52 1232.75 1609.91C1231.57 1613.78 1231.63 1614.01 1234.54 1616.5C1239.02 1620.32 1238.1 1622.57 1232.78 1620.77C1228.78 1619.43 1228.73 1619.44 1226.05 1622.68C1223.79 1625.4 1223.53 1626.54 1224.45 1629.55C1225.75 1633.8 1224.13 1635.35 1221.38 1632.47C1220.32 1631.35 1219.08 1630.1 1218.64 1629.69C1218.19 1629.29 1216.08 1629.4 1213.94 1629.94C1210.23 1630.88 1210 1631.13 1208.91 1635.29C1207.94 1638.98 1207.55 1639.48 1206.36 1638.57C1205.59 1637.97 1204.68 1636.13 1204.33 1634.48C1203.76 1631.79 1203.24 1631.37 1199.44 1630.56C1195.75 1629.77 1194.94 1629.95 1193.31 1631.92C1192.28 1633.17 1190.66 1634.33 1189.72 1634.5C1188.27 1634.76 1188.16 1634.11 1189 1630.41C1189.96 1626.22 1189.87 1625.89 1187.02 1623.35C1185.37 1621.88 1183.55 1620.81 1182.97 1620.96C1182.39 1621.12 1180.71 1621.65 1179.25 1622.15C1175.48 1623.44 1174.75 1621.32 1177.88 1618.15C1180.09 1615.9 1180.38 1614.78 1179.65 1611.32C1178.77 1607.21 1178.73 1607.17 1174.56 1606.52C1169.02 1605.66 1169.24 1603.24 1174.98 1601.91C1178.71 1601.05 1178.88 1600.88 1179.62 1596.9C1180.27 1593.42 1180.05 1592.51 1178.22 1591.08C1173.3 1587.25 1174.21 1585.17 1180.22 1586.5C1183.32 1587.19 1184.18 1586.96 1186.21 1584.87C1188.74 1582.28 1188.97 1580.74 1187.47 1576.48C1186.08 1572.5 1188.49 1571.88 1191.57 1575.45ZM1238.81 1552.13C1239.27 1554.62 1238.96 1555.08 1236.17 1556.13C1231.95 1557.72 1231.05 1561.55 1234.1 1564.87C1235.88 1566.82 1235.97 1567.52 1234.67 1569.42C1232.47 1572.65 1235.45 1577.56 1239.34 1577.1C1242.36 1576.74 1242.95 1577.27 1243.13 1580.52C1243.22 1582.29 1243.91 1582.88 1246.66 1583.55C1249.58 1584.26 1250.34 1584.06 1251.85 1582.12C1252.82 1580.87 1253.77 1579.9 1253.95 1579.97C1254.14 1580.04 1255.27 1580.68 1256.46 1581.41C1259.69 1583.37 1264.78 1580.1 1264.11 1576.48C1263.56 1573.5 1263.75 1573.28 1266.94 1573.11C1268.81 1573.01 1269.4 1572.39 1270.12 1569.79C1270.83 1567.27 1270.57 1566.11 1268.9 1564.24C1267.08 1562.21 1267.01 1561.53 1268.41 1559.48C1269.76 1557.5 1269.71 1556.64 1268.1 1554.48C1266.74 1552.66 1265.39 1551.97 1263.66 1552.21C1261.53 1552.5 1260.99 1552.08 1259.96 1549.37C1258.24 1544.81 1254.83 1543.93 1251.09 1547.08C1248.69 1549.11 1248.02 1549.23 1246.24 1547.96C1244.8 1546.93 1243.3 1546.92 1241.24 1547.91C1238.76 1549.1 1238.38 1549.77 1238.81 1552.13ZM1245.95 1552.31C1246.97 1553.99 1252 1553.08 1253.24 1550.98C1254.58 1548.71 1255.9 1549.03 1256.04 1551.66C1256.18 1554.27 1260.02 1557.03 1262.64 1556.39C1264.88 1555.85 1266.02 1557.21 1264.23 1558.29C1262.47 1559.36 1262.98 1565.16 1264.92 1566.12C1267.59 1567.45 1267.38 1568.19 1264.01 1569.46C1261.25 1570.5 1260.6 1571.26 1260 1574.17C1259.19 1578.15 1258.54 1578.86 1257.41 1577C1256.4 1575.33 1251.73 1576.18 1249.49 1578.44C1247.87 1580.08 1247.68 1579.98 1246.46 1576.97C1245.17 1573.78 1242.63 1572.32 1239.5 1572.97C1238.62 1573.15 1238.53 1571.97 1239.23 1569.47C1240.12 1566.25 1239.93 1565.31 1237.94 1563.08C1235.64 1560.53 1235.65 1560.47 1238.34 1559.97C1241.54 1559.38 1243.36 1556.93 1243.18 1553.47C1243.05 1551.11 1244.79 1550.39 1245.95 1552.31ZM1189.61 1589.57C1186.46 1593.02 1184.12 1600.8 1184.72 1605.82C1186.57 1621.37 1203.88 1629.98 1217.06 1621.92C1225.55 1616.72 1229.4 1607.17 1226.79 1597.8C1222.27 1581.58 1201.18 1576.91 1189.61 1589.57ZM1207.49 1586.21C1220.17 1587.57 1227.51 1600.84 1221.6 1611.75C1219.53 1615.59 1218.36 1616.68 1213.92 1618.95C1205.03 1623.5 1196.39 1621.02 1191.19 1612.43C1183.86 1600.34 1193.57 1584.73 1207.49 1586.21ZM1244.09 1562.37C1243.52 1564.38 1243.88 1566.25 1245.28 1568.57C1249.08 1574.84 1258.09 1573.11 1259.16 1565.9C1260.53 1556.78 1246.6 1553.52 1244.09 1562.37ZM1252.5 1561.26C1254.79 1562.05 1255.72 1564.61 1254.55 1566.94C1253.82 1568.39 1253.02 1568.63 1250.73 1568.06C1248.32 1567.48 1247.8 1566.94 1247.69 1564.95C1247.55 1562.18 1249.91 1560.36 1252.5 1561.26Z" fill="white"/>
<path opacity="0.05" fill-rule="evenodd" clip-rule="evenodd" d="M4.38495 1446.19C1.26639 1449.6 1.86693 1451.72 16.4925 1489.03L30.4967 1524.75L33.7666 1526.48L37.0375 1528.21L81.4236 1510.81L125.81 1493.41L126.728 1490.52C127.598 1487.77 126.88 1485.67 113.139 1450.61C99.3996 1415.57 98.4915 1413.53 95.9908 1412.11L93.3506 1410.61L49.6706 1427.52C20.6953 1438.74 5.45035 1445.02 4.38495 1446.19ZM108.056 1452C119.364 1480.28 122.308 1488.39 121.617 1489.33C120.097 1491.41 38.0418 1523.19 36.2368 1522.41C33.9939 1521.43 6.96002 1452.44 7.94028 1450.2C8.4607 1449.01 18.8459 1444.69 51.1187 1432.25L93.6119 1415.87L108.056 1452ZM27.7938 1462.07C27.8061 1463.83 28.0941 1463.95 44.8595 1469.04C51.0334 1470.91 56.1667 1472.65 56.2661 1472.91C56.3655 1473.17 53.1197 1479.03 49.0531 1485.93C42.0036 1497.91 40.9861 1501.48 44.8297 1500.77C46.4737 1500.46 63.4354 1471.78 62.8518 1470.29C62.3649 1469.05 30.6722 1459.33 29.1071 1459.94C28.3791 1460.23 27.7877 1461.19 27.7938 1462.07ZM69.948 1487.32C69.9715 1490.72 71.8982 1490.39 87.3009 1484.36L102.672 1478.33L101.554 1476.35C100.453 1474.41 100.198 1474.47 85.1861 1480.06C72.4357 1484.81 69.938 1486 69.948 1487.32Z" fill="white"/>
<path opacity="0.05" fill-rule="evenodd" clip-rule="evenodd" d="M1384.69 1313.22C1380.1 1313.73 1379.15 1315.72 1365.56 1353.42L1352.55 1389.52L1353.87 1392.97L1355.19 1396.43L1400.04 1412.6L1444.89 1428.77L1447.48 1427.19C1449.95 1425.71 1450.8 1423.65 1463.56 1388.23C1476.33 1352.82 1476.99 1350.68 1476.05 1347.97L1475.05 1345.1L1431.05 1329.03C1401.87 1318.37 1386.26 1313.05 1384.69 1313.22ZM1458.83 1385.92C1448.69 1414.65 1445.56 1422.68 1444.42 1422.93C1441.91 1423.49 1359.25 1393.32 1358.41 1391.54C1357.37 1389.32 1382.51 1319.62 1384.72 1318.58C1385.9 1318.03 1396.55 1321.63 1429.02 1333.54L1471.78 1349.23L1458.83 1385.92ZM1391.83 1340.59C1390.68 1341.92 1390.82 1342.2 1400.07 1357.08C1403.48 1362.56 1406.19 1367.25 1406.1 1367.51C1406 1367.77 1399.7 1370.04 1392.09 1372.55C1378.9 1376.91 1375.77 1378.93 1379.13 1380.93C1380.57 1381.78 1412.23 1371.39 1412.78 1369.88C1413.23 1368.63 1395.8 1340.43 1394.22 1339.86C1393.48 1339.6 1392.41 1339.93 1391.83 1340.59ZM1406.89 1387.37C1404.66 1389.94 1406.33 1390.96 1421.89 1396.58L1437.42 1402.17L1437.89 1399.95C1438.34 1397.76 1438.11 1397.64 1423.13 1391.95C1410.41 1387.12 1407.75 1386.37 1406.89 1387.37Z" fill="white"/>
<path opacity="0.05" fill-rule="evenodd" clip-rule="evenodd" d="M267.29 1537.36C255.824 1538.42 252 1539.17 251.213 1540.54C250.644 1541.53 248.385 1549.13 246.192 1557.43L242.204 1572.52L226.843 1573.91L211.483 1575.3L206.713 1593.42L201.942 1611.53L204.323 1613.29C210.832 1618.1 228.555 1630.16 229.465 1630.4C230.035 1630.55 237.313 1630.08 245.636 1629.35L260.769 1628.02L273.6 1636.88L286.432 1645.73L294.93 1645.05C299.603 1644.67 307.134 1643.99 311.665 1643.52L319.904 1642.66L324.683 1624.51L329.462 1606.36L316.778 1597.59L304.094 1588.81L308.308 1572.75C310.626 1563.91 312.324 1556.14 312.081 1555.48C311.472 1553.82 287.212 1537.09 284.513 1536.47C283.315 1536.19 275.565 1536.59 267.29 1537.36ZM292.053 1545.51C306.126 1555.12 306.126 1554.06 292.053 1555.42L279.694 1556.61L269.576 1549.69C264.012 1545.88 259.737 1542.6 260.078 1542.39C261.138 1541.73 281.199 1539.88 283.094 1540.26C284.083 1540.46 288.114 1542.83 292.053 1545.51ZM272.97 1556.8L276.699 1559.33L272.785 1574.19L268.872 1589.06L261.678 1583.98C257.722 1581.18 252.805 1577.77 250.752 1576.38L247.021 1573.86L250.915 1559.07L254.81 1544.28L262.025 1549.28C265.993 1552.02 270.918 1555.41 272.97 1556.8ZM303.959 1572.74L299.819 1587.38L294.509 1587.91C291.588 1588.2 285.5 1588.79 280.98 1589.22L272.763 1589.99L276.654 1575.21L280.544 1560.43L293.55 1559.15C300.703 1558.44 306.903 1557.92 307.327 1557.98C307.751 1558.05 306.236 1564.69 303.959 1572.74ZM253.487 1583.17C258.982 1586.99 263.059 1590.34 262.544 1590.61C262.03 1590.89 256.63 1591.53 250.543 1592.05C240.401 1592.91 239.218 1592.82 236.375 1590.88C234.669 1589.71 229.976 1586.5 225.948 1583.73L218.622 1578.7L230.703 1577.45C237.347 1576.77 242.944 1576.21 243.139 1576.22C243.334 1576.22 247.991 1579.35 253.487 1583.17ZM311.261 1598.58L321.564 1605.8L312.716 1606.58C307.849 1607 302.184 1607.49 300.126 1607.66C296.697 1607.95 295.619 1607.45 287.217 1601.71C282.175 1598.26 277.792 1595.03 277.477 1594.54C277.052 1593.87 296.505 1591.15 300.389 1591.33C300.702 1591.34 305.595 1594.61 311.261 1598.58ZM226.298 1588.75L236.159 1595.48L232.261 1610.28C228.665 1623.94 228.244 1625.01 226.813 1624.1C225.959 1623.56 221.126 1620.27 216.071 1616.78L206.881 1610.45L210.508 1595.59C213.358 1583.91 214.38 1580.87 215.286 1581.38C215.92 1581.73 220.876 1585.05 226.298 1588.75ZM263.242 1609.56L259.101 1624.2L247.984 1625.19C241.869 1625.73 236.042 1626.21 235.032 1626.26C233.34 1626.35 233.5 1625.21 237.102 1611.55L241.006 1596.75L252.93 1595.62C259.488 1595 265.423 1594.59 266.119 1594.71C267.104 1594.87 266.47 1598.14 263.242 1609.56ZM283.142 1603.59L293.641 1610.84L290.056 1625.54C287.266 1636.98 286.201 1640.16 285.254 1639.85C284.585 1639.64 279.514 1636.32 273.985 1632.47L263.932 1625.49L267.541 1610.7C269.526 1602.56 271.486 1596 271.896 1596.12C272.307 1596.24 277.367 1599.6 283.142 1603.59ZM320.297 1624.58L316.156 1639.22L305.039 1640.21C298.924 1640.75 293.097 1641.24 292.088 1641.29C290.396 1641.37 290.555 1640.24 294.157 1626.58L298.061 1611.78L309.985 1610.65C316.543 1610.03 322.479 1609.61 323.174 1609.73C324.16 1609.89 323.526 1613.16 320.297 1624.58Z" fill="white"/>
<path opacity="0.05" fill-rule="evenodd" clip-rule="evenodd" d="M1189.86 1087.53C1180.8 1094.63 1177.99 1097.33 1178.07 1098.91C1178.12 1100.05 1180.34 1107.66 1182.99 1115.83L1187.8 1130.67L1175.64 1140.16L1163.47 1149.64L1169.27 1167.45L1175.06 1185.27L1178.01 1185.46C1186.09 1185.98 1207.52 1186.53 1208.41 1186.24C1208.97 1186.06 1214.84 1181.72 1221.44 1176.6L1233.45 1167.3L1249.03 1167.8L1264.61 1168.3L1271.39 1163.13C1275.12 1160.29 1281.08 1155.63 1284.63 1152.78L1291.1 1147.61L1285.3 1129.76L1279.49 1111.91L1264.08 1111.4L1248.66 1110.88L1243.51 1095.09C1240.68 1086.41 1237.9 1078.95 1237.34 1078.53C1235.93 1077.46 1206.47 1076.52 1203.87 1077.46C1202.71 1077.88 1196.41 1082.41 1189.86 1087.53ZM1215.1 1080.99C1232.14 1081.45 1231.56 1080.56 1220.46 1089.32L1210.72 1097.01L1198.46 1096.66C1191.72 1096.47 1186.35 1096.02 1186.52 1095.66C1187.06 1094.54 1202.93 1082.13 1204.73 1081.42C1205.67 1081.05 1210.34 1080.86 1215.1 1080.99ZM1205.16 1100.81L1209.67 1100.91L1214.42 1115.53L1219.17 1130.15L1210.38 1129.77C1205.54 1129.56 1199.55 1129.35 1197.08 1129.29L1192.58 1129.2L1187.85 1114.65L1183.12 1100.1L1191.89 1100.4C1196.71 1100.57 1202.69 1100.75 1205.16 1100.81ZM1239.85 1097.44L1244.29 1111.99L1240.11 1115.31C1237.81 1117.14 1233.01 1120.93 1229.44 1123.73L1222.95 1128.83L1218.23 1114.29L1213.5 1099.76L1223.74 1091.64C1229.37 1087.18 1234.3 1083.38 1234.7 1083.21C1235.09 1083.03 1237.41 1089.44 1239.85 1097.44ZM1203.05 1133.52C1209.74 1133.76 1214.98 1134.37 1214.7 1134.88C1214.41 1135.39 1210.22 1138.86 1205.38 1142.59C1197.32 1148.8 1196.27 1149.36 1192.83 1149.27C1190.77 1149.21 1185.08 1149.05 1180.2 1148.9L1171.31 1148.63L1180.8 1141.05C1186.01 1136.87 1190.42 1133.38 1190.59 1133.28C1190.75 1133.18 1196.36 1133.29 1203.05 1133.52ZM1259.97 1115.22L1272.55 1115.71L1265.52 1121.15C1261.66 1124.14 1257.16 1127.62 1255.53 1128.88C1252.8 1130.98 1251.62 1131.14 1241.45 1130.86C1235.34 1130.69 1229.91 1130.35 1229.38 1130.1C1228.66 1129.77 1243.54 1116.95 1246.91 1115C1247.18 1114.84 1253.06 1114.94 1259.97 1115.22ZM1183.21 1152.93L1195.14 1153.25L1199.87 1167.81C1204.24 1181.24 1204.47 1182.37 1202.77 1182.38C1201.76 1182.38 1195.92 1182.23 1189.78 1182.04L1178.63 1181.69L1173.63 1167.23C1169.71 1155.86 1168.92 1152.76 1169.96 1152.69C1170.68 1152.64 1176.65 1152.75 1183.21 1152.93ZM1225.54 1150.43L1229.98 1164.99L1221.16 1171.83C1216.32 1175.6 1211.68 1179.16 1210.86 1179.75C1209.48 1180.74 1209 1179.69 1204.64 1166.26L1199.91 1151.7L1209.32 1144.3C1214.5 1140.23 1219.27 1136.67 1219.92 1136.39C1220.83 1135.99 1222.07 1139.09 1225.54 1150.43ZM1239.04 1134.64L1251.79 1135.06L1256.73 1149.36C1260.58 1160.49 1261.4 1163.74 1260.44 1163.99C1259.76 1164.18 1253.7 1164.13 1246.97 1163.89L1234.74 1163.46L1229.77 1149.07C1227.04 1141.15 1225.13 1134.58 1225.54 1134.45C1225.95 1134.33 1232.02 1134.42 1239.04 1134.64ZM1281.64 1132.19L1286.09 1146.74L1277.27 1153.59C1272.42 1157.35 1267.79 1160.91 1266.96 1161.5C1265.59 1162.49 1265.11 1161.45 1260.74 1148.01L1256.02 1133.46L1265.43 1126.05C1270.61 1121.98 1275.38 1118.42 1276.02 1118.14C1276.94 1117.75 1278.18 1120.84 1281.64 1132.19Z" fill="white"/>
<path opacity="0.05" fill-rule="evenodd" clip-rule="evenodd" d="M218.363 1154.61C216.273 1158.44 217.956 1158.64 221.286 1154.97L224.069 1151.89L228.047 1153.99C230.235 1155.14 232.248 1156.63 232.52 1157.29C232.793 1157.96 232.601 1163.99 232.094 1170.69C231.578 1177.52 231.666 1182.96 232.293 1183.07C232.91 1183.17 233.795 1177.97 234.261 1171.51C234.727 1165.05 235.328 1159.68 235.596 1159.58C235.863 1159.47 240.572 1162.64 246.059 1166.62C255.47 1173.44 258.125 1174.79 256.959 1172.13C256.683 1171.5 249.744 1166.2 241.539 1160.36C227.232 1150.18 226.482 1149.79 223.24 1150.81C220.972 1151.53 219.365 1152.78 218.363 1154.61Z" fill="white"/>
<path opacity="0.05" fill-rule="evenodd" clip-rule="evenodd" d="M269.462 1445.32C265.485 1447.1 266.703 1448.28 271.577 1447.37L275.65 1446.61L277.549 1450.69C278.594 1452.93 279.298 1455.33 279.113 1456.02C278.929 1456.72 275.129 1461.4 270.67 1466.43C266.129 1471.56 262.905 1475.95 263.342 1476.41C263.772 1476.86 267.623 1473.25 271.901 1468.39C276.179 1463.53 279.906 1459.62 280.182 1459.7C280.458 1459.78 282.29 1465.15 284.252 1471.64C287.618 1482.77 288.92 1485.44 289.601 1482.62C289.762 1481.95 287.438 1473.54 284.437 1463.92C279.204 1447.16 278.844 1446.4 275.645 1445.25C273.407 1444.44 271.37 1444.47 269.462 1445.32Z" fill="white"/>
<path opacity="0.05" fill-rule="evenodd" clip-rule="evenodd" d="M226.691 1021.21C225.517 1022.11 223.82 1024.07 222.921 1025.57C221.854 1027.34 220.305 1028.46 218.456 1028.78C215.039 1029.37 210.792 1033.13 210.127 1036.16C209.775 1037.77 208.654 1038.65 205.959 1039.41C193.478 1042.94 195.343 1062.9 208.359 1065.1C213.652 1065.99 253.457 1054.81 257.089 1051.41C259.875 1048.8 261.159 1043.87 260.057 1040C259.081 1036.56 254.413 1032.21 251.171 1031.72C249.307 1031.43 248.406 1030.5 247.645 1028.08C244.892 1019.3 233.878 1015.69 226.691 1021.21ZM239.712 1022.47C242.961 1024.05 243.836 1025.1 245.079 1028.91C246.371 1032.87 246.978 1033.55 249.717 1034.12C254.142 1035.04 255.921 1036.63 257.115 1040.72C257.815 1043.11 257.645 1045.35 256.592 1047.62L255.035 1050.97L234.098 1057.19C210.354 1064.24 207.867 1064.38 202.597 1058.92C200.067 1056.29 199.747 1055.45 199.807 1051.61C199.887 1046.54 203.206 1042.27 208.155 1040.87C210.529 1040.19 211.764 1039.03 212.992 1036.31C214.418 1033.15 215.204 1032.54 218.802 1031.75C222.286 1031 223.394 1030.19 225.597 1026.79C229.14 1021.32 234.187 1019.77 239.712 1022.47Z" fill="white"/>
<path opacity="0.05" fill-rule="evenodd" clip-rule="evenodd" d="M110.417 1270.76C108.937 1270.79 106.409 1271.37 104.8 1272.04C102.889 1272.84 100.981 1272.82 99.3015 1271.98C96.1979 1270.44 90.5452 1270.96 88.2176 1273.01C86.9801 1274.1 85.5603 1274.14 82.9372 1273.16C70.7857 1268.63 60.4784 1285.83 69.6733 1295.3C73.4135 1299.15 112.12 1313.68 117.06 1313.09C120.85 1312.63 124.804 1309.41 126.206 1305.64C127.45 1302.29 126.26 1296.03 123.939 1293.71C122.604 1292.38 122.428 1291.09 123.25 1288.69C126.222 1279.98 119.476 1270.56 110.417 1270.76ZM120.172 1279.47C121.856 1282.67 121.94 1284.03 120.688 1287.84C119.389 1291.8 119.475 1292.71 121.345 1294.79C124.367 1298.15 124.863 1300.48 123.407 1304.48C122.555 1306.83 121.093 1308.53 118.905 1309.73L115.665 1311.52L95.106 1304.15C71.7905 1295.79 69.7039 1294.42 68.6867 1286.9C68.1979 1283.29 68.4358 1282.43 70.7605 1279.36C73.82 1275.33 79.0221 1273.85 83.8432 1275.64C86.1563 1276.5 87.8404 1276.29 90.4393 1274.83C93.4564 1273.13 94.4546 1273.09 97.8193 1274.59C101.076 1276.04 102.449 1276.04 106.236 1274.61C112.327 1272.29 117.31 1274.03 120.172 1279.47Z" fill="white"/>
<path opacity="0.05" fill-rule="evenodd" clip-rule="evenodd" d="M93.0818 1575.88C91.6989 1576.41 89.512 1577.8 88.2225 1578.97C86.6917 1580.37 84.8882 1580.99 83.0253 1580.77C79.583 1580.36 74.4351 1582.75 72.9308 1585.46C72.1314 1586.9 70.8075 1587.42 68.0079 1587.38C55.0383 1587.18 51.1077 1606.85 62.9497 1612.68C67.7661 1615.05 109.105 1615.74 113.559 1613.52C116.975 1611.82 119.618 1607.46 119.672 1603.43C119.72 1599.86 116.493 1594.36 113.528 1592.95C111.824 1592.15 111.227 1591 111.193 1588.46C111.068 1579.26 101.549 1572.65 93.0818 1575.88ZM105.198 1580.81C107.858 1583.25 108.396 1584.51 108.495 1588.52C108.6 1592.68 108.987 1593.51 111.447 1594.84C115.423 1596.99 116.673 1599.02 116.646 1603.28C116.631 1605.77 115.827 1607.87 114.17 1609.74L111.718 1612.51L89.8767 1612.47C65.1077 1612.43 62.685 1611.85 59.2005 1605.1C57.5272 1601.87 57.4604 1600.97 58.6199 1597.3C60.1465 1592.47 64.5495 1589.33 69.693 1589.4C72.1608 1589.44 73.6772 1588.68 75.6328 1586.42C77.9028 1583.81 78.8323 1583.44 82.5046 1583.72C86.059 1583.99 87.3529 1583.53 90.4371 1580.91C95.3972 1576.68 100.675 1576.65 105.198 1580.81Z" fill="white"/>
<path opacity="0.05" fill-rule="evenodd" clip-rule="evenodd" d="M1248.22 1354.15C1247.23 1355.25 1245.91 1357.48 1245.3 1359.12C1244.57 1361.06 1243.24 1362.43 1241.48 1363.08C1238.23 1364.27 1234.73 1368.74 1234.62 1371.84C1234.56 1373.49 1233.62 1374.55 1231.11 1375.79C1219.46 1381.51 1224.9 1400.81 1238.09 1400.63C1243.46 1400.55 1280.6 1382.38 1283.56 1378.38C1285.83 1375.31 1286.21 1370.23 1284.43 1366.62C1282.85 1363.42 1277.47 1359.98 1274.19 1360.08C1272.31 1360.13 1271.25 1359.38 1270.07 1357.13C1265.78 1348.99 1254.3 1347.43 1248.22 1354.15ZM1261.25 1353.04C1264.74 1354.01 1265.79 1354.89 1267.69 1358.41C1269.68 1362.07 1270.4 1362.63 1273.2 1362.7C1277.71 1362.81 1279.75 1364.05 1281.66 1367.86C1282.78 1370.09 1283.02 1372.32 1282.39 1374.74L1281.46 1378.32L1261.99 1388.21C1239.9 1399.42 1237.48 1400 1231.31 1395.58C1228.35 1393.46 1227.89 1392.69 1227.25 1388.89C1226.42 1383.9 1228.91 1379.1 1233.53 1376.83C1235.74 1375.74 1236.75 1374.37 1237.47 1371.47C1238.3 1368.11 1238.96 1367.36 1242.36 1365.94C1245.65 1364.57 1246.59 1363.57 1248.15 1359.83C1250.65 1353.82 1255.33 1351.39 1261.25 1353.04Z" fill="white"/>
<path opacity="0.05" fill-rule="evenodd" clip-rule="evenodd" d="M1377.15 1520.65C1375.81 1521.29 1373.74 1522.85 1372.54 1524.12C1371.13 1525.63 1369.38 1526.39 1367.5 1526.32C1364.04 1526.18 1359.09 1528.96 1357.81 1531.78C1357.12 1533.28 1355.84 1533.9 1353.05 1534.08C1340.1 1534.9 1337.72 1554.81 1349.98 1559.7C1354.97 1561.69 1396.24 1559.14 1400.5 1556.58C1403.78 1554.61 1406.07 1550.06 1405.81 1546.04C1405.58 1542.48 1401.93 1537.25 1398.87 1536.08C1397.1 1535.41 1396.42 1534.31 1396.18 1531.78C1395.34 1522.62 1385.33 1516.77 1377.15 1520.65ZM1389.61 1524.62C1392.45 1526.85 1393.09 1528.07 1393.5 1532.05C1393.93 1536.19 1394.38 1536.99 1396.94 1538.12C1401.07 1539.96 1402.47 1541.88 1402.78 1546.13C1402.96 1548.62 1402.32 1550.77 1400.82 1552.76L1398.59 1555.72L1376.81 1557.39C1352.12 1559.28 1349.66 1558.89 1345.65 1552.44C1343.73 1549.35 1343.6 1548.46 1344.46 1544.71C1345.61 1539.78 1349.75 1536.3 1354.89 1535.97C1357.35 1535.81 1358.8 1534.93 1360.57 1532.53C1362.63 1529.75 1363.53 1529.31 1367.21 1529.3C1370.78 1529.29 1372.03 1528.73 1374.9 1525.88C1379.52 1521.28 1384.78 1520.83 1389.61 1524.62Z" fill="white"/>
<path opacity="0.05" fill-rule="evenodd" clip-rule="evenodd" d="M1387.82 1220.61C1386.48 1221.24 1384.41 1222.8 1383.22 1224.08C1381.8 1225.59 1380.05 1226.35 1378.18 1226.27C1374.71 1226.13 1369.77 1228.92 1368.48 1231.74C1367.8 1233.24 1366.52 1233.86 1363.72 1234.03C1350.78 1234.86 1348.4 1254.77 1360.66 1259.66C1365.65 1261.64 1406.91 1259.09 1411.18 1256.53C1414.45 1254.57 1416.74 1250.02 1416.48 1246C1416.25 1242.44 1412.6 1237.2 1409.54 1236.04C1407.78 1235.36 1407.09 1234.27 1406.86 1231.73C1406.01 1222.57 1396.01 1216.73 1387.82 1220.61ZM1400.28 1224.58C1403.13 1226.81 1403.76 1228.02 1404.17 1232.01C1404.6 1236.15 1405.05 1236.94 1407.61 1238.08C1411.74 1239.91 1413.15 1241.84 1413.45 1246.09C1413.63 1248.57 1413 1250.73 1411.49 1252.72L1409.26 1255.67L1387.49 1257.34C1362.79 1259.24 1360.33 1258.85 1356.33 1252.4C1354.41 1249.3 1354.27 1248.41 1355.14 1244.66C1356.28 1239.73 1360.43 1236.26 1365.56 1235.92C1368.02 1235.76 1369.48 1234.89 1371.25 1232.49C1373.31 1229.7 1374.21 1229.26 1377.89 1229.26C1381.45 1229.25 1382.71 1228.69 1385.58 1225.83C1390.19 1221.23 1395.45 1220.78 1400.28 1224.58Z" fill="white"/>
<path opacity="0.05" fill-rule="evenodd" clip-rule="evenodd" d="M307.265 1121.98C306.947 1122.49 308.123 1123.05 309.879 1123.22C314.12 1123.64 314.941 1126.04 310.844 1126.04C308.787 1126.04 307.436 1126.71 306.691 1128.1C305.06 1131.14 307.043 1132.95 311.801 1132.76C315.66 1132.61 315.725 1132.54 315.725 1128.76C315.725 1123.34 314.242 1121.04 310.749 1121.04C309.151 1121.04 307.583 1121.46 307.265 1121.98ZM317.056 1122.67C317.354 1123.7 318.147 1126.45 318.82 1128.79C319.492 1131.12 320.581 1133.03 321.241 1133.03C321.901 1133.03 322.875 1131.12 323.406 1128.79L324.372 1124.54L325.604 1128.85C326.282 1131.22 327.34 1132.99 327.955 1132.79C329.128 1132.4 333.034 1122.02 332.288 1121.27C331.212 1120.2 329.837 1122.41 329.173 1126.29C328.405 1130.78 327.637 1130.1 326.259 1123.72C325.406 1119.76 323.49 1120.88 322.16 1126.11L321.035 1130.53L320.114 1126.12C319.607 1123.69 318.59 1121.5 317.854 1121.25C316.946 1120.95 316.689 1121.4 317.056 1122.67ZM334.736 1122.53C333.076 1124.53 334.121 1126.86 337.199 1128.03C340.649 1129.34 340.381 1131.03 336.725 1131.03C335.075 1131.03 333.725 1131.51 333.725 1132.09C333.725 1132.71 335.304 1133.02 337.475 1132.84C340.72 1132.57 341.225 1132.2 341.225 1130.05C341.225 1128.32 340.384 1127.16 338.475 1126.25C334.842 1124.51 334.983 1123.04 338.784 1123.04C340.569 1123.04 341.586 1122.62 341.225 1122.04C340.291 1120.53 336.135 1120.84 334.736 1122.53ZM313.48 1129.29C312.847 1131.21 308.725 1131.48 308.725 1129.61C308.725 1128.58 309.628 1128.04 311.308 1128.04C312.928 1128.04 313.738 1128.5 313.48 1129.29ZM339.583 1136.75C341.632 1137.14 341.865 1137.61 341.356 1140.36L340.77 1143.53L342.212 1141.03C344.474 1137.11 344.084 1136.02 340.475 1136.17C337.942 1136.27 337.745 1136.4 339.583 1136.75ZM307.032 1139.06C314.232 1144.71 326.349 1146.05 335.153 1142.16C337.838 1140.97 339.849 1139.82 339.624 1139.59C339.398 1139.37 336.291 1139.86 332.719 1140.7C325.153 1142.46 318.132 1141.93 310.457 1139.02C303.98 1136.56 303.857 1136.56 307.032 1139.06Z" fill="white"/>
<path opacity="0.05" fill-rule="evenodd" clip-rule="evenodd" d="M1221.16 1272.44C1220.71 1272.84 1221.67 1273.72 1223.29 1274.41C1227.23 1276.05 1227.31 1278.58 1223.39 1277.38C1221.42 1276.77 1219.94 1277.02 1218.81 1278.13C1216.36 1280.56 1217.73 1282.87 1222.33 1284.09C1226.06 1285.07 1226.15 1285.03 1227.26 1281.41C1228.85 1276.23 1228.11 1273.6 1224.77 1272.57C1223.24 1272.1 1221.62 1272.05 1221.16 1272.44ZM1230.32 1275.98C1230.3 1277.05 1230.25 1279.92 1230.21 1282.35C1230.16 1284.78 1230.64 1286.92 1231.28 1287.12C1231.91 1287.31 1233.4 1285.77 1234.59 1283.69L1236.76 1279.92L1236.67 1284.4C1236.63 1286.87 1237.12 1288.87 1237.76 1288.86C1239 1288.83 1245.78 1280.05 1245.29 1279.12C1244.58 1277.77 1242.61 1279.49 1240.84 1283C1238.78 1287.07 1238.25 1286.19 1238.81 1279.69C1239.15 1275.65 1236.99 1276.16 1234.19 1280.77L1231.81 1284.67L1232.23 1280.17C1232.46 1277.7 1232.13 1275.31 1231.5 1274.86C1230.72 1274.3 1230.34 1274.66 1230.32 1275.98ZM1247.26 1281.04C1245.09 1282.46 1245.4 1284.99 1248 1287.02C1250.91 1289.28 1250.16 1290.83 1246.66 1289.75C1245.09 1289.27 1243.66 1289.33 1243.49 1289.88C1243.3 1290.47 1244.72 1291.24 1246.85 1291.7C1250.03 1292.4 1250.62 1292.19 1251.26 1290.13C1251.76 1288.48 1251.3 1287.12 1249.74 1285.69C1246.78 1282.96 1247.35 1281.6 1250.98 1282.71C1252.69 1283.24 1253.78 1283.14 1253.61 1282.48C1253.16 1280.76 1249.09 1279.84 1247.26 1281.04ZM1224.96 1281.26C1223.79 1282.91 1219.77 1281.96 1220.32 1280.17C1220.62 1279.19 1221.64 1278.93 1223.25 1279.42C1224.8 1279.9 1225.43 1280.58 1224.96 1281.26ZM1247.72 1296.06C1249.56 1297.03 1249.65 1297.55 1248.35 1300.03L1246.86 1302.88L1248.98 1300.92C1252.29 1297.83 1252.24 1296.67 1248.74 1295.76C1246.29 1295.12 1246.06 1295.18 1247.72 1296.06ZM1215.92 1288.7C1221.15 1296.23 1232.34 1301.06 1241.89 1299.93C1244.81 1299.58 1247.07 1299.07 1246.92 1298.78C1246.77 1298.5 1243.66 1298.07 1240 1297.81C1232.25 1297.28 1225.69 1294.71 1219.21 1289.67C1213.74 1285.42 1213.62 1285.38 1215.92 1288.7Z" fill="white"/>
<defs>
<linearGradient id="paint0_linear_1183_36" x1="445.131" y1="1" x2="445.131" y2="132.476" gradientUnits="userSpaceOnUse">
<stop stop-color="#1A8DBA"/>
<stop offset="1" stop-color="#17DEBD"/>
</linearGradient>
<linearGradient id="paint1_linear_1183_36" x1="316.807" y1="1" x2="316.807" y2="132.476" gradientUnits="userSpaceOnUse">
<stop stop-color="#F48E1C"/>
<stop offset="1" stop-color="#BF2C43"/>
</linearGradient>
<linearGradient id="paint2_linear_1183_36" x1="262.808" y1="17.4344" x2="316.807" y2="132.476" gradientUnits="userSpaceOnUse">
<stop stop-color="#F48E1C"/>
<stop offset="1" stop-color="#BF2C43"/>
</linearGradient>
<linearGradient id="paint3_linear_1183_36" x1="170.661" y1="1" x2="170.661" y2="132.476" gradientUnits="userSpaceOnUse">
<stop stop-color="#1A8DBA"/>
<stop offset="1" stop-color="#17DEBD"/>
</linearGradient>
<linearGradient id="paint4_linear_1183_36" x1="42.3377" y1="1" x2="42.3377" y2="132.476" gradientUnits="userSpaceOnUse">
<stop stop-color="#F48E1C"/>
<stop offset="1" stop-color="#BF2C43"/>
</linearGradient>
<linearGradient id="paint5_linear_1183_36" x1="-11.6613" y1="17.4344" x2="42.3377" y2="132.476" gradientUnits="userSpaceOnUse">
<stop stop-color="#F48E1C"/>
<stop offset="1" stop-color="#BF2C43"/>
</linearGradient>
<linearGradient id="paint6_linear_1183_36" x1="24.5158" y1="198.577" x2="24.5158" y2="330.053" gradientUnits="userSpaceOnUse">
<stop stop-color="#1A8DBA"/>
<stop offset="1" stop-color="#17DEBD"/>
</linearGradient>
<linearGradient id="paint7_linear_1183_36" x1="316.808" y1="198.577" x2="316.808" y2="330.053" gradientUnits="userSpaceOnUse">
<stop stop-color="#1A8DBA"/>
<stop offset="1" stop-color="#17DEBD"/>
</linearGradient>
<linearGradient id="paint8_linear_1183_36" x1="188.484" y1="198.577" x2="188.484" y2="330.053" gradientUnits="userSpaceOnUse">
<stop stop-color="#F48E1C"/>
<stop offset="1" stop-color="#BF2C43"/>
</linearGradient>
<linearGradient id="paint9_linear_1183_36" x1="134.485" y1="215.012" x2="188.484" y2="330.053" gradientUnits="userSpaceOnUse">
<stop stop-color="#F48E1C"/>
<stop offset="1" stop-color="#BF2C43"/>
</linearGradient>
<linearGradient id="paint10_linear_1183_36" x1="170.661" y1="396.154" x2="170.661" y2="527.63" gradientUnits="userSpaceOnUse">
<stop stop-color="#1A8DBA"/>
<stop offset="1" stop-color="#17DEBD"/>
</linearGradient>
<linearGradient id="paint11_linear_1183_36" x1="42.3377" y1="396.154" x2="42.3377" y2="527.63" gradientUnits="userSpaceOnUse">
<stop stop-color="#F48E1C"/>
<stop offset="1" stop-color="#BF2C43"/>
</linearGradient>
<linearGradient id="paint12_linear_1183_36" x1="-11.6613" y1="412.589" x2="42.3377" y2="527.63" gradientUnits="userSpaceOnUse">
<stop stop-color="#F48E1C"/>
<stop offset="1" stop-color="#BF2C43"/>
</linearGradient>
<linearGradient id="paint13_linear_1183_36" x1="24.1926" y1="594" x2="24.1926" y2="725.476" gradientUnits="userSpaceOnUse">
<stop stop-color="#1A8DBA"/>
<stop offset="1" stop-color="#17DEBD"/>
</linearGradient>
<linearGradient id="paint14_linear_1183_36" x1="1237.87" y1="693.476" x2="1237.87" y2="562" gradientUnits="userSpaceOnUse">
<stop stop-color="#1A8DBA"/>
<stop offset="1" stop-color="#17DEBD"/>
</linearGradient>
<linearGradient id="paint15_linear_1183_36" x1="1366.19" y1="693.476" x2="1366.19" y2="562" gradientUnits="userSpaceOnUse">
<stop stop-color="#F48E1C"/>
<stop offset="1" stop-color="#BF2C43"/>
</linearGradient>
<linearGradient id="paint16_linear_1183_36" x1="1420.19" y1="677.041" x2="1366.19" y2="562" gradientUnits="userSpaceOnUse">
<stop stop-color="#F48E1C"/>
<stop offset="1" stop-color="#BF2C43"/>
</linearGradient>
<linearGradient id="paint17_linear_1183_36" x1="1512.34" y1="693.476" x2="1512.34" y2="562" gradientUnits="userSpaceOnUse">
<stop stop-color="#1A8DBA"/>
<stop offset="1" stop-color="#17DEBD"/>
</linearGradient>
<linearGradient id="paint18_linear_1183_36" x1="1366.19" y1="495.898" x2="1366.19" y2="364.423" gradientUnits="userSpaceOnUse">
<stop stop-color="#1A8DBA"/>
<stop offset="1" stop-color="#17DEBD"/>
</linearGradient>
<linearGradient id="paint19_linear_1183_36" x1="1494.52" y1="495.898" x2="1494.52" y2="364.423" gradientUnits="userSpaceOnUse">
<stop stop-color="#F48E1C"/>
<stop offset="1" stop-color="#BF2C43"/>
</linearGradient>
<linearGradient id="paint20_linear_1183_36" x1="1548.51" y1="479.464" x2="1494.52" y2="364.423" gradientUnits="userSpaceOnUse">
<stop stop-color="#F48E1C"/>
<stop offset="1" stop-color="#BF2C43"/>
</linearGradient>
<linearGradient id="paint21_linear_1183_36" x1="1512.34" y1="298.321" x2="1512.34" y2="166.846" gradientUnits="userSpaceOnUse">
<stop stop-color="#1A8DBA"/>
<stop offset="1" stop-color="#17DEBD"/>
</linearGradient>
</defs>
</svg>
