<svg width="1512" height="1657" viewBox="0 0 1512 1657" fill="none" xmlns="http://www.w3.org/2000/svg">
<path opacity="0.05" fill-rule="evenodd" clip-rule="evenodd" d="M44.2911 1077.61C38.9973 1081.57 33.7311 1089.35 31.7698 1096.11C30.7272 1099.7 30.0495 1103 30.2625 1103.44C30.476 1103.88 29.109 1104.99 27.2254 1105.9C21.9304 1108.46 16.893 1115.72 16.0335 1122.04C14.7528 1131.46 18.3822 1139.14 26.5011 1144.17C33.1022 1148.26 38.5178 1148.52 47.0334 1145.12L54.0516 1142.32L56.4585 1146.16C58.2956 1149.08 59.447 1149.97 61.3203 1149.9C63.2407 1149.82 64.1319 1150.54 65.4116 1153.19L67.0478 1156.58L58.0757 1160.91C50.2452 1164.7 48.887 1165.09 47.3958 1164.01C46.4571 1163.32 44.2608 1162.85 42.5167 1162.95C39.9075 1163.1 38.9882 1163.61 37.331 1165.81C34.1267 1170.09 35.2085 1174.21 40.1691 1176.63C44.2407 1178.62 48.9462 1176.43 49.8959 1172.12C50.5369 1169.21 51.1072 1168.78 61.1459 1163.63L71.721 1158.2L69.7101 1153.35C68.0121 1149.25 67.9729 1148.36 69.4531 1147.64C71.0233 1146.89 71.524 1147.45 74.2333 1153.06L77.2593 1159.32L69.9578 1163.17L62.6558 1167.02L63.9766 1170.46C64.9053 1172.87 64.8519 1174.64 63.7938 1176.4C62.6331 1178.33 62.6686 1179.69 63.9513 1182.34C65.9533 1186.49 69.613 1187.89 73.4998 1186.01C79.5359 1183.1 78.5929 1174.6 72.0097 1172.59C65.9124 1170.72 66.4557 1169.07 74.4356 1165.21C82.7658 1161.19 82.7087 1161.4 78.0339 1151.73L74.8084 1145.06L77.9597 1143.53L81.111 1142.01L85.0092 1150.08C88.3664 1157.02 88.7351 1158.38 87.6635 1159.85C86.9798 1160.79 86.5015 1162.98 86.601 1164.73C86.7507 1167.34 87.2591 1168.25 89.4673 1169.91C93.7396 1173.11 97.8673 1172.03 100.29 1167.07C102.288 1162.98 100.097 1158.29 95.7376 1157.34C92.8303 1156.7 92.3775 1156.13 88.672 1148.46L84.7125 1140.27L87.8286 1138.76L90.9448 1137.26L95.0097 1145L99.0746 1152.75L106.629 1149.42C113.265 1146.5 114.281 1146.3 114.985 1147.75C115.426 1148.67 115.116 1150.53 114.295 1151.9C109.938 1159.15 120.016 1166.61 125.846 1160.45C129.623 1156.46 127.931 1150.26 122.609 1148.59C120.81 1148.03 118.967 1146.8 118.515 1145.86C116.443 1141.58 114.526 1141.4 107.425 1144.83L100.704 1148.08L97.6603 1141.78C95.2444 1136.78 94.8956 1135.35 95.9671 1134.83C96.9151 1134.37 97.7798 1135.13 98.8682 1137.39C101.921 1143.7 102.76 1143.76 113.959 1138.34C123.463 1133.75 124.109 1133.58 127.127 1134.75C133.521 1137.26 139.179 1131.17 136.195 1124.99C133.25 1118.9 124.739 1119.93 122.962 1126.59C122.093 1129.85 121.694 1130.17 113.01 1134.36L103.963 1138.74L102.523 1135.76C101.427 1133.49 101.498 1131.99 102.819 1129.47C104.242 1126.77 104.244 1125.53 102.83 1122.6L101.103 1119.03L108.351 1115.53C116.256 1111.71 118.538 1109.41 120.366 1103.44C122.047 1097.94 121.855 1095.32 119.399 1090.24C115.104 1081.35 105.97 1077.46 96.6394 1080.53C92.5437 1081.88 91.7169 1081.78 89.3037 1079.65C76.6873 1068.48 57.6331 1067.62 44.2911 1077.61ZM62.6077 1074.51C70.7008 1073.71 81.8831 1077.6 87.4877 1083.16L91.4371 1087.08L95.5004 1085.11C107.713 1079.21 120.593 1089.27 117.071 1101.95C115.631 1107.14 111.759 1110.79 104.411 1113.88L99.1439 1116.09L92.9238 1102.71C84.4154 1084.4 86.8572 1084.85 61.8063 1096.96C45.4835 1104.85 41.9753 1106.83 40.869 1108.81C39.583 1111.11 39.7645 1111.64 46.3128 1124.77L53.0866 1138.35L49.5097 1140.42C44.2073 1143.48 38.1855 1144.26 32.528 1142.6C16.7019 1137.98 14.923 1116.29 29.7804 1109.11C33.761 1107.18 33.9444 1106.88 34.529 1101.41C36.0229 1087.41 47.975 1075.96 62.6077 1074.51ZM85.5443 1096.03L87.9359 1100.98L68.1278 1110.55L48.3198 1120.12L45.9282 1115.17L43.5367 1110.23L63.3448 1100.65L83.1528 1091.08L85.5443 1096.03ZM48.6293 1113.87C49.1711 1114.99 51.0319 1114.37 59.6358 1110.21C68.2397 1106.06 69.8796 1104.98 69.3378 1103.86C68.796 1102.74 66.9352 1103.36 58.3313 1107.51C49.7274 1111.67 48.0876 1112.75 48.6293 1113.87ZM72.0389 1102.56C72.4011 1103.3 73.4915 1103.52 74.4918 1103.03C75.4922 1102.55 76.0025 1101.56 75.6403 1100.81C75.2781 1100.07 74.1877 1099.85 73.1874 1100.34C72.1871 1100.82 71.6767 1101.81 72.0389 1102.56ZM79.2418 1099.07C79.6005 1099.82 80.5018 1100.13 81.2446 1099.77C81.9874 1099.41 82.3016 1098.51 81.9429 1097.77C81.5842 1097.03 80.6829 1096.71 79.9401 1097.07C79.1973 1097.43 78.8831 1098.33 79.2418 1099.07ZM91.7797 1109.39L93.7906 1114.24L74.325 1123.95L54.859 1133.65L52.4593 1128.69L50.059 1123.72L69.9139 1114.13L89.7697 1104.53L91.7797 1109.39ZM54.9692 1125.38C54.7904 1125.9 54.9051 1126.85 55.2243 1127.51C55.6739 1128.44 58.1413 1127.58 66.2238 1123.68C75.6633 1119.12 76.5441 1118.51 75.5812 1117.21C74.6631 1115.98 73.2155 1116.37 64.9071 1120.12C59.6203 1122.5 55.1489 1124.87 54.9692 1125.38ZM78.3745 1114.08C77.7148 1115.97 79.2792 1117.37 81.0799 1116.5C82.3386 1115.89 82.6157 1115.15 81.9307 1114.24C80.8087 1112.74 78.8726 1112.65 78.3745 1114.08ZM85.5467 1112.12C86.0298 1113.12 87.0169 1113.63 87.7669 1113.27C88.5169 1112.9 88.7309 1111.81 88.2478 1110.81C87.7647 1109.81 86.7776 1109.31 86.0276 1109.67C85.2776 1110.03 85.0636 1111.12 85.5467 1112.12ZM98.302 1122.88L100.313 1127.74L80.8474 1137.44L61.3814 1147.15L58.9816 1142.18L56.5814 1137.22L76.4362 1127.62L96.292 1118.03L98.302 1122.88ZM61.4915 1138.88C61.3127 1139.39 61.4274 1140.35 61.7466 1141.01C62.1962 1141.94 64.6636 1141.08 72.7462 1137.17C82.1856 1132.61 83.0664 1132 82.1035 1130.71C81.1854 1129.47 79.7378 1129.87 71.4294 1133.61C66.1426 1136 61.6712 1138.37 61.4915 1138.88ZM84.887 1127.61C84.2455 1129.44 85.8015 1130.86 87.5365 1130.03C88.7367 1129.45 89.0472 1128.56 88.4676 1127.36C87.6297 1125.62 85.5272 1125.77 84.887 1127.61ZM92.069 1125.62C92.5521 1126.62 93.5392 1127.12 94.2892 1126.76C95.0392 1126.4 95.2532 1125.31 94.7701 1124.31C94.287 1123.31 93.2999 1122.8 92.5499 1123.16C91.7999 1123.53 91.5859 1124.62 92.069 1125.62ZM44.2643 1166.98C47.2299 1168.33 47.2201 1171.15 44.2444 1172.59C42.3843 1173.49 41.2348 1173.44 40.4743 1172.42C39.2203 1170.73 39.7506 1167.55 41.4181 1166.74C42.0393 1166.44 43.32 1166.55 44.2643 1166.98ZM131.808 1125.2C134.254 1126.98 134.255 1129.64 131.811 1130.83C128.873 1132.25 126.346 1130.88 126.469 1127.93C126.591 1124.99 129.485 1123.51 131.808 1125.2ZM96.2506 1163C97.3363 1165.24 97.194 1165.87 95.4023 1166.73C92.5202 1168.13 89.7343 1166.39 90.4176 1163.63C90.6979 1162.5 91.8316 1161.29 92.9366 1160.94C94.4637 1160.45 95.2592 1160.94 96.2506 1163ZM72.2846 1176.73C74.5662 1177.77 74.4131 1181.87 72.0506 1183.01C69.688 1184.16 66.3747 1181.72 66.9779 1179.29C67.225 1178.29 68.138 1177.14 69.0068 1176.72C69.8757 1176.3 71.3505 1176.3 72.2846 1176.73ZM123.331 1153.97C124.402 1155.66 124.359 1156.62 123.162 1157.76C121.292 1159.52 118.223 1159.05 117.149 1156.83C116.094 1154.64 116.711 1153.51 119.483 1152.55C121.299 1151.92 122.25 1152.27 123.331 1153.97Z" fill="#939393"/>
<path opacity="0.05" fill-rule="evenodd" clip-rule="evenodd" d="M1468.06 1065.61C1473.35 1069.57 1478.62 1077.35 1480.58 1084.11C1481.62 1087.7 1482.3 1091 1482.09 1091.44C1481.87 1091.88 1483.24 1092.99 1485.12 1093.9C1490.42 1096.46 1495.45 1103.72 1496.31 1110.04C1497.59 1119.46 1493.97 1127.14 1485.85 1132.17C1479.25 1136.26 1473.83 1136.52 1465.31 1133.12L1458.3 1130.32L1455.89 1134.16C1454.05 1137.08 1452.9 1137.97 1451.03 1137.9C1449.11 1137.82 1448.22 1138.54 1446.94 1141.19L1445.3 1144.58L1454.27 1148.91C1462.1 1152.7 1463.46 1153.09 1464.95 1152.01C1465.89 1151.32 1468.09 1150.85 1469.83 1150.95C1472.44 1151.1 1473.36 1151.61 1475.02 1153.81C1478.22 1158.09 1477.14 1162.21 1472.18 1164.63C1468.11 1166.62 1463.4 1164.43 1462.45 1160.12C1461.81 1157.21 1461.24 1156.78 1451.2 1151.63L1440.63 1146.2L1442.64 1141.35C1444.34 1137.25 1444.37 1136.36 1442.89 1135.64C1441.32 1134.89 1440.82 1135.45 1438.11 1141.06L1435.09 1147.32L1442.39 1151.17L1449.69 1155.02L1448.37 1158.46C1447.44 1160.87 1447.5 1162.64 1448.55 1164.4C1449.71 1166.33 1449.68 1167.69 1448.4 1170.34C1446.39 1174.49 1442.73 1175.89 1438.85 1174.01C1432.81 1171.1 1433.75 1162.6 1440.34 1160.59C1446.44 1158.72 1445.89 1157.07 1437.91 1153.21C1429.58 1149.19 1429.64 1149.4 1434.31 1139.73L1437.54 1133.06L1434.39 1131.53L1431.24 1130.01L1427.34 1138.08C1423.98 1145.02 1423.61 1146.38 1424.68 1147.85C1425.37 1148.79 1425.85 1150.98 1425.75 1152.73C1425.6 1155.34 1425.09 1156.25 1422.88 1157.91C1418.61 1161.11 1414.48 1160.03 1412.06 1155.07C1410.06 1150.98 1412.25 1146.29 1416.61 1145.34C1419.52 1144.7 1419.97 1144.13 1423.68 1136.46L1427.64 1128.27L1424.52 1126.76L1421.4 1125.26L1417.34 1133L1413.27 1140.75L1405.72 1137.42C1399.08 1134.5 1398.07 1134.3 1397.36 1135.75C1396.92 1136.67 1397.23 1138.53 1398.05 1139.9C1402.41 1147.15 1392.33 1154.61 1386.5 1148.45C1382.72 1144.46 1384.42 1138.26 1389.74 1136.59C1391.54 1136.03 1393.38 1134.8 1393.83 1133.86C1395.9 1129.58 1397.82 1129.4 1404.92 1132.83L1411.64 1136.08L1414.69 1129.78C1417.1 1124.78 1417.45 1123.35 1416.38 1122.83C1415.43 1122.37 1414.57 1123.13 1413.48 1125.39C1410.43 1131.7 1409.59 1131.76 1398.39 1126.34C1388.88 1121.75 1388.24 1121.58 1385.22 1122.75C1378.83 1125.26 1373.17 1119.17 1376.15 1112.99C1379.1 1106.9 1387.61 1107.93 1389.39 1114.59C1390.25 1117.85 1390.65 1118.17 1399.34 1122.36L1408.38 1126.74L1409.82 1123.76C1410.92 1121.49 1410.85 1119.99 1409.53 1117.47C1408.11 1114.77 1408.1 1113.53 1409.52 1110.6L1411.24 1107.03L1404 1103.53C1396.09 1099.71 1393.81 1097.41 1391.98 1091.44C1390.3 1085.94 1390.49 1083.32 1392.95 1078.24C1397.24 1069.35 1406.38 1065.46 1415.71 1068.53C1419.8 1069.88 1420.63 1069.78 1423.04 1067.65C1435.66 1056.48 1454.71 1055.62 1468.06 1065.61ZM1449.74 1062.51C1441.65 1061.71 1430.46 1065.6 1424.86 1071.16L1420.91 1075.08L1416.85 1073.11C1404.63 1067.21 1391.76 1077.27 1395.28 1089.95C1396.72 1095.14 1400.59 1098.79 1407.94 1101.88L1413.2 1104.09L1419.42 1090.71C1427.93 1072.4 1425.49 1072.85 1450.54 1084.96C1466.86 1092.85 1470.37 1094.83 1471.48 1096.81C1472.76 1099.11 1472.58 1099.64 1466.03 1112.77L1459.26 1126.35L1462.84 1128.42C1468.14 1131.48 1474.16 1132.26 1479.82 1130.6C1495.65 1125.98 1497.42 1104.29 1482.57 1097.11C1478.59 1095.18 1478.4 1094.88 1477.82 1089.41C1476.32 1075.41 1464.37 1063.96 1449.74 1062.51ZM1426.8 1084.03L1424.41 1088.98L1444.22 1098.55L1464.03 1108.12L1466.42 1103.17L1468.81 1098.23L1449 1088.65L1429.19 1079.08L1426.8 1084.03ZM1463.72 1101.87C1463.18 1102.99 1461.32 1102.37 1452.71 1098.21C1444.11 1094.06 1442.47 1092.98 1443.01 1091.86C1443.55 1090.74 1445.41 1091.36 1454.02 1095.51C1462.62 1099.67 1464.26 1100.75 1463.72 1101.87ZM1440.31 1090.56C1439.95 1091.3 1438.86 1091.52 1437.86 1091.03C1436.86 1090.55 1436.35 1089.56 1436.71 1088.81C1437.07 1088.07 1438.16 1087.85 1439.16 1088.34C1440.16 1088.82 1440.67 1089.81 1440.31 1090.56ZM1433.11 1087.07C1432.75 1087.82 1431.85 1088.13 1431.1 1087.77C1430.36 1087.41 1430.05 1086.51 1430.4 1085.77C1430.76 1085.03 1431.66 1084.71 1432.41 1085.07C1433.15 1085.43 1433.46 1086.33 1433.11 1087.07ZM1420.57 1097.39L1418.56 1102.24L1438.02 1111.95L1457.49 1121.65L1459.89 1116.69L1462.29 1111.72L1442.43 1102.13L1422.58 1092.53L1420.57 1097.39ZM1457.38 1113.38C1457.56 1113.9 1457.44 1114.85 1457.12 1115.51C1456.67 1116.44 1454.21 1115.58 1446.12 1111.68C1436.68 1107.12 1435.8 1106.51 1436.77 1105.21C1437.68 1103.98 1439.13 1104.37 1447.44 1108.12C1452.73 1110.5 1457.2 1112.87 1457.38 1113.38ZM1433.97 1102.08C1434.63 1103.97 1433.07 1105.37 1431.27 1104.5C1430.01 1103.89 1429.73 1103.15 1430.42 1102.24C1431.54 1100.74 1433.48 1100.65 1433.97 1102.08ZM1426.8 1100.12C1426.32 1101.12 1425.33 1101.63 1424.58 1101.27C1423.83 1100.9 1423.62 1099.81 1424.1 1098.81C1424.58 1097.81 1425.57 1097.31 1426.32 1097.67C1427.07 1098.03 1427.28 1099.12 1426.8 1100.12ZM1414.05 1110.88L1412.03 1115.74L1431.5 1125.44L1450.97 1135.15L1453.37 1130.18L1455.77 1125.22L1435.91 1115.62L1416.06 1106.03L1414.05 1110.88ZM1450.86 1126.88C1451.03 1127.39 1450.92 1128.35 1450.6 1129.01C1450.15 1129.94 1447.68 1129.08 1439.6 1125.17C1430.16 1120.61 1429.28 1120 1430.24 1118.71C1431.16 1117.47 1432.61 1117.87 1440.92 1121.61C1446.21 1124 1450.68 1126.37 1450.86 1126.88ZM1427.46 1115.61C1428.1 1117.44 1426.55 1118.86 1424.81 1118.03C1423.61 1117.45 1423.3 1116.56 1423.88 1115.36C1424.72 1113.62 1426.82 1113.77 1427.46 1115.61ZM1420.28 1113.62C1419.8 1114.62 1418.81 1115.12 1418.06 1114.76C1417.31 1114.4 1417.09 1113.31 1417.58 1112.31C1418.06 1111.31 1419.05 1110.8 1419.8 1111.16C1420.55 1111.53 1420.76 1112.62 1420.28 1113.62ZM1468.08 1154.98C1465.12 1156.33 1465.13 1159.15 1468.1 1160.59C1469.96 1161.49 1471.11 1161.44 1471.87 1160.42C1473.13 1158.73 1472.6 1155.55 1470.93 1154.74C1470.31 1154.44 1469.03 1154.55 1468.08 1154.98ZM1380.54 1113.2C1378.09 1114.98 1378.09 1117.64 1380.54 1118.83C1383.47 1120.25 1386 1118.88 1385.88 1115.93C1385.76 1112.99 1382.86 1111.51 1380.54 1113.2ZM1416.1 1151C1415.01 1153.24 1415.15 1153.87 1416.95 1154.73C1419.83 1156.13 1422.61 1154.39 1421.93 1151.63C1421.65 1150.5 1420.52 1149.29 1419.41 1148.94C1417.88 1148.45 1417.09 1148.94 1416.1 1151ZM1440.06 1164.73C1437.78 1165.77 1437.93 1169.87 1440.3 1171.01C1442.66 1172.16 1445.97 1169.72 1445.37 1167.29C1445.12 1166.29 1444.21 1165.14 1443.34 1164.72C1442.47 1164.3 1441 1164.3 1440.06 1164.73ZM1389.02 1141.97C1387.95 1143.66 1387.99 1144.62 1389.19 1145.76C1391.06 1147.52 1394.13 1147.05 1395.2 1144.83C1396.25 1142.64 1395.64 1141.51 1392.86 1140.55C1391.05 1139.92 1390.1 1140.27 1389.02 1141.97Z" fill="#939393"/>
<path opacity="0.05" fill-rule="evenodd" clip-rule="evenodd" d="M303.253 1280.32C301.97 1281.11 300.664 1282.1 300.351 1282.5C299.587 1283.5 298.295 1282.41 295.997 1278.82C294.28 1276.14 293.767 1275.88 291.012 1276.24C288.257 1276.6 287.831 1276.99 286.87 1280.02C285.331 1284.88 284.892 1285.18 281.399 1283.8C278.661 1282.72 277.932 1282.92 275.733 1285.34C273.402 1287.91 273.357 1288.37 275.131 1291.47C277.299 1295.24 277.317 1295.18 273.303 1297.75C270.766 1299.38 270.395 1300.01 270.588 1302.37C270.824 1305.24 273.672 1308.18 275.54 1307.47C277.971 1306.55 279.476 1309.27 278.248 1312.38C277.167 1315.12 277.365 1315.85 279.789 1318.05C282.37 1320.39 282.817 1320.43 286.012 1318.6C288.908 1316.94 289.666 1316.92 290.781 1318.5C294.076 1323.16 294.757 1323.59 298.042 1323.05C301.226 1322.53 301.412 1322.35 301.986 1319.12C302.78 1314.68 302.679 1314.74 306.909 1315.86C310.137 1316.72 310.837 1316.49 312.765 1313.97C314.693 1311.46 314.73 1310.72 313.067 1307.83C310.889 1304.03 310.85 1304.15 314.939 1302.23C317.902 1300.84 318.032 1300.61 317.708 1297.4C317.375 1294.09 316.785 1293.54 311.427 1291.57C309.618 1290.9 309.431 1290.17 310.267 1287C311.147 1283.67 310.933 1282.98 308.424 1281.06C306.109 1279.28 305.157 1279.15 303.253 1280.32ZM305.973 1287.34C305.414 1288.64 305.384 1290.92 305.909 1292.41C306.772 1294.88 307.169 1295.19 310.205 1295.73C314.104 1296.43 314.367 1297.93 310.909 1299.77C307.168 1301.76 306.096 1305.37 308.425 1308.13C310.96 1311.13 309.806 1312.64 305.878 1311.46C301.995 1310.28 299.977 1311.52 298.576 1315.94C297.249 1320.13 296.183 1320.48 294.707 1317.23C292.952 1313.36 289.793 1312.19 286.275 1314.13C282.384 1316.26 280.797 1315.18 282.497 1311.54C284.028 1308.27 282.054 1305.07 277.923 1304.12C274.144 1303.24 273.954 1301.72 277.423 1300.09C281.334 1298.25 282.356 1294.25 279.714 1291.11C278.675 1289.88 278.192 1288.4 278.64 1287.81C279.089 1287.23 280.65 1287.31 282.11 1287.99C285.821 1289.73 289.422 1287.7 290.181 1283.45C290.88 1279.53 292.645 1279.41 293.968 1283.18C295.26 1286.87 299.554 1287.91 302.668 1285.28C305.424 1282.96 307.349 1284.16 305.973 1287.34ZM324.354 1299.74C323.689 1300.17 321.674 1301.77 319.877 1303.3C317.263 1305.51 316.774 1306.33 317.43 1307.4C318.639 1309.37 318.782 1309.4 321.004 1308.01C322.831 1306.88 322.86 1307.2 321.286 1311.05C318.7 1317.38 312.934 1323.4 306.623 1326.35C302.445 1328.3 301.367 1329.18 301.771 1330.3C302.5 1332.33 307.892 1330.87 313.186 1327.21C318.469 1323.57 323.845 1316.61 325.568 1311.2C326.277 1308.97 326.919 1307.06 326.996 1306.94C327.073 1306.83 328.029 1307.42 329.121 1308.26C331.407 1310.01 333.434 1308.31 331.77 1306.03C328.441 1301.48 325.512 1298.99 324.354 1299.74ZM292.895 1290.46C289.862 1290.86 288.221 1291.75 286.576 1293.9C281.519 1300.49 287.175 1310.38 295.39 1309.3C300.914 1308.57 304.594 1303.44 303.415 1298.1C302.201 1292.61 298.265 1289.75 292.895 1290.46ZM300.143 1298.88C300.265 1299.81 299.517 1301.67 298.48 1303.02C296.068 1306.17 293.884 1306.42 290.641 1303.94C286.748 1300.95 288.473 1294.82 293.386 1294.17C295.993 1293.83 299.827 1296.5 300.143 1298.88ZM262.823 1275.63C261.261 1275.99 260.884 1276.47 260.944 1278.02C261.011 1279.72 260.4 1279.49 256.245 1276.31C247.406 1269.53 232.232 1265.83 220.667 1267.63C217.136 1268.18 216.729 1268.47 217.124 1270.21C217.503 1271.87 218.614 1272.06 224.436 1271.49C232.623 1270.69 242.748 1272.84 250.541 1277.03C258.188 1281.14 258.653 1281.55 256.894 1282.63C256.077 1283.13 255.441 1284.37 255.481 1285.38C255.541 1286.92 256.3 1287.13 260.174 1286.68C262.716 1286.39 265.099 1285.75 265.469 1285.27C265.84 1284.79 265.835 1282.32 265.46 1279.79C264.858 1275.74 264.544 1275.24 262.823 1275.63ZM248.012 1285.42C247.154 1285.63 245.351 1286.74 244.004 1287.89C240.508 1290.87 237.864 1289.43 237.813 1284.52C237.775 1280.84 237.595 1280.58 234.569 1279.77C229.627 1278.44 228.141 1279.1 226.698 1283.24C224.868 1288.5 222.694 1288.78 219.668 1284.13C217.455 1280.74 217.336 1280.69 214.064 1281.69C209.705 1283.03 208.876 1284.25 209.549 1288.36C210.413 1293.61 208.636 1294.93 203.596 1292.75L199.289 1290.89L196.735 1294.72C194.21 1298.49 194.215 1298.58 197.045 1301.79C200.43 1305.63 199.573 1307.66 194.349 1308.18C190.128 1308.6 188.718 1310.33 189.012 1314.73C189.224 1317.91 189.487 1318.22 192.954 1319.49C198.114 1321.38 198.281 1323.2 193.607 1326.57C190.496 1328.82 190.183 1329.33 190.709 1331.31C191.89 1335.75 193.981 1337.37 197.975 1336.93C203.511 1336.32 204.7 1337.78 202.425 1342.39C200.512 1346.26 200.516 1346.28 204.054 1348.99C207.529 1351.65 207.673 1351.66 211.252 1349.16C215.525 1346.17 217.48 1347.03 217.994 1352.12C218.404 1356.19 219.796 1357.42 223.988 1357.41C226.89 1357.41 227.225 1357.14 228.722 1353.52C230.861 1348.37 232.977 1348.11 236.184 1352.61C238.731 1356.18 240.111 1356.41 244.353 1353.96C247.021 1352.42 247.132 1352.09 246.271 1348.23C245.148 1343.2 247.162 1341.54 251.625 1343.8C258.2 1347.13 264.21 1339.08 258.447 1334.66C257.409 1333.86 256.685 1332.32 256.838 1331.22C257.058 1329.66 258.078 1329.09 261.61 1328.56L266.102 1327.88L266.75 1323.87C267.378 1319.97 267.276 1319.78 263.513 1317.63C258.69 1314.88 257.94 1312.7 261.138 1310.73C265.028 1308.33 265.627 1306.66 263.941 1302.91L262.318 1299.31L257.805 1299.82C254.255 1300.22 253.122 1299.94 252.502 1298.48C252.07 1297.47 252.267 1295.91 252.941 1295.04C255.275 1291.99 255.026 1289.22 252.223 1287.07C250.764 1285.96 248.869 1285.21 248.012 1285.42ZM248.885 1294.57C247.169 1297.81 247.229 1298.44 249.538 1301.46C251.882 1304.51 252.369 1304.74 255.774 1304.37C259.429 1303.96 261.846 1304.79 260.846 1306.09C260.562 1306.46 259.048 1307.61 257.482 1308.63C254.888 1310.34 254.676 1310.87 255.091 1314.61C255.407 1317.46 256.138 1318.96 257.484 1319.5C263.322 1321.84 263.7 1322.09 262.93 1323.09C262.494 1323.66 260.485 1324.38 258.465 1324.69C255.08 1325.21 254.669 1325.56 253.201 1329.12C251.756 1332.63 251.862 1333.25 254.363 1335.94C257.57 1339.38 256.699 1341.72 252.887 1339.89C248.815 1337.94 247.264 1338 244.416 1340.22C242.119 1342.02 241.792 1342.85 242.141 1346C242.818 1352.12 240.652 1352.8 237.37 1347.49C236.147 1345.51 235.272 1345.19 231.739 1345.46C227.703 1345.76 227.509 1345.9 226.249 1349.52C224.313 1355.08 221.884 1355.04 221.622 1349.43C221.425 1345.22 221.393 1345.17 217.403 1343.85C214.046 1342.74 212.894 1342.91 210.424 1344.86C206.93 1347.62 204.898 1346.67 206.588 1343.06C207.244 1341.66 207.958 1340.06 208.175 1339.5C208.391 1338.94 207.52 1337.01 206.239 1335.21C204.02 1332.09 203.703 1331.97 199.43 1332.46C195.635 1332.9 195.025 1332.72 195.449 1331.28C195.725 1330.35 197.107 1328.83 198.52 1327.9C200.816 1326.39 201.015 1325.76 200.396 1321.92C199.796 1318.2 199.331 1317.51 196.904 1316.71C195.365 1316.2 193.694 1315.12 193.191 1314.3C192.423 1313.05 192.993 1312.7 196.74 1312.15C200.995 1311.52 201.268 1311.31 202.601 1307.73C203.37 1305.66 203.709 1303.58 203.354 1303.09C202.998 1302.61 201.891 1301.24 200.893 1300.06C198.323 1297.01 200.037 1295.57 204.129 1297.33C207.023 1298.57 208.178 1298.44 211.131 1296.49C214.641 1294.19 214.661 1294.14 213.753 1290.01C212.547 1284.53 214.881 1283.86 218.198 1288.73C220.357 1291.9 220.581 1291.98 224.558 1291.23C228.038 1290.57 228.802 1290.04 229.467 1287.81C231.255 1281.84 233.523 1281.93 234.462 1288.02C234.946 1291.15 235.477 1291.87 238.163 1293C241.492 1294.41 243.006 1294.07 246.43 1291.13C249.636 1288.38 251.085 1290.41 248.885 1294.57ZM287.764 1330.12C285.614 1331.45 285.075 1331.33 283.081 1329.11C280.071 1325.76 276.176 1326.3 274.184 1330.36C273.023 1332.72 272.399 1333.06 270.154 1332.54C266.344 1331.66 262.86 1336.23 264.702 1339.68C266.131 1342.37 265.847 1343.11 262.889 1344.45C261.276 1345.18 260.974 1346.04 261.346 1348.84C261.741 1351.82 262.21 1352.45 264.564 1353.16C266.08 1353.61 267.325 1354.14 267.33 1354.34C267.335 1354.54 267.143 1355.82 266.902 1357.2C266.246 1360.92 271.143 1364.47 274.275 1362.53C276.851 1360.94 277.119 1361.03 278.437 1363.94C279.21 1365.65 280 1365.98 282.685 1365.71C285.291 1365.45 286.282 1364.79 287.415 1362.55C288.645 1360.12 289.25 1359.81 291.672 1360.37C294.01 1360.91 294.792 1360.54 296.219 1358.26C297.418 1356.34 297.57 1354.83 296.717 1353.3C295.674 1351.42 295.868 1350.76 298.025 1348.82C301.647 1345.56 301.227 1342.06 296.934 1339.73C294.176 1338.23 293.814 1337.64 294.35 1335.53C294.787 1333.81 294.257 1332.4 292.583 1330.85C290.571 1328.97 289.813 1328.85 287.764 1330.12ZM290.196 1336.84C288.997 1338.4 291.679 1342.75 294.087 1343.15C296.683 1343.57 296.861 1344.91 294.464 1346C292.084 1347.07 290.912 1351.66 292.453 1353.87C293.776 1355.76 292.923 1357.31 291.259 1356.04C289.625 1354.78 284.409 1357.37 284.215 1359.53C283.948 1362.49 283.181 1362.57 280.773 1359.89C278.805 1357.69 277.864 1357.37 274.931 1357.87C270.93 1358.55 270.034 1358.21 271.353 1356.48C272.542 1354.93 270.055 1350.89 267.135 1349.62C265.022 1348.71 265.038 1348.5 267.401 1346.27C269.911 1343.91 270.348 1341.01 268.601 1338.33C268.116 1337.58 269.186 1337.06 271.766 1336.8C275.088 1336.47 275.897 1335.95 277.245 1333.28C278.796 1330.22 278.855 1330.2 280.295 1332.53C282.003 1335.3 284.947 1336.1 288.11 1334.67C290.256 1333.7 291.561 1335.06 290.196 1336.84ZM235.01 1297.88C230.662 1296.2 222.555 1296.84 218.093 1299.22C204.279 1306.59 202.543 1325.85 214.849 1335.2C222.771 1341.22 233.068 1341.35 240.85 1335.51C254.324 1325.4 251.012 1304.06 235.01 1297.88ZM244.64 1313.32C247.984 1325.62 238.282 1337.28 225.974 1335.74C221.642 1335.2 220.197 1334.51 216.47 1331.2C209.008 1324.57 208.179 1315.62 214.288 1307.65C222.891 1296.43 240.965 1299.8 244.64 1313.32ZM280.146 1338.75C278.069 1338.95 276.454 1339.97 274.805 1342.12C270.346 1347.94 275.227 1355.7 282.329 1354.08C291.324 1352.04 289.306 1337.87 280.146 1338.75ZM284.238 1346.19C284.332 1348.61 282.284 1350.4 279.685 1350.16C278.071 1350.01 277.56 1349.35 277.25 1347.01C276.925 1344.55 277.233 1343.87 279.049 1343.05C281.578 1341.91 284.131 1343.45 284.238 1346.19Z" fill="#939393"/>
<path opacity="0.05" fill-rule="evenodd" clip-rule="evenodd" d="M1198.04 1518.61C1198.31 1520.1 1198.75 1521.67 1199.02 1522.11C1199.67 1523.19 1198.18 1523.99 1194.01 1524.83C1190.89 1525.46 1190.45 1525.84 1189.79 1528.54C1189.13 1531.24 1189.34 1531.77 1191.81 1533.77C1195.78 1536.97 1195.9 1537.49 1193.35 1540.24C1191.34 1542.4 1191.26 1543.15 1192.72 1546.08C1194.26 1549.18 1194.68 1549.39 1198.21 1548.86C1202.51 1548.22 1202.46 1548.18 1203.4 1552.85C1203.99 1555.8 1204.45 1556.38 1206.72 1557.06C1209.48 1557.88 1213.25 1556.29 1213.27 1554.3C1213.29 1551.7 1216.38 1551.29 1218.83 1553.56C1220.98 1555.56 1221.73 1555.64 1224.66 1554.18C1227.78 1552.63 1227.98 1552.22 1227.44 1548.58C1226.94 1545.28 1227.2 1544.57 1229.08 1544.1C1234.62 1542.73 1235.27 1542.25 1235.96 1538.99C1236.63 1535.84 1236.52 1535.6 1233.73 1533.89C1229.88 1531.54 1229.9 1531.65 1232.48 1528.12C1234.45 1525.42 1234.49 1524.69 1232.85 1521.98C1231.21 1519.27 1230.54 1518.97 1227.23 1519.46C1222.91 1520.11 1223 1520.19 1222.7 1515.69C1222.48 1512.42 1222.31 1512.22 1219.2 1511.35C1216 1510.46 1215.27 1510.81 1211.49 1515.08C1210.21 1516.53 1209.46 1516.44 1206.81 1514.51C1204.03 1512.48 1203.31 1512.43 1200.6 1514.06C1198.11 1515.58 1197.64 1516.41 1198.04 1518.61ZM1205.57 1518.63C1206.57 1519.62 1208.69 1520.48 1210.27 1520.53C1212.88 1520.62 1213.31 1520.37 1214.92 1517.73C1216.99 1514.36 1218.49 1514.66 1218.94 1518.55C1219.44 1522.76 1222.41 1525.06 1225.83 1523.9C1229.55 1522.63 1230.53 1524.25 1228 1527.48C1225.5 1530.67 1225.92 1533 1229.53 1535.91C1232.95 1538.67 1232.89 1539.79 1229.32 1539.98C1225.08 1540.21 1222.85 1542.73 1223.37 1546.71C1223.94 1551.11 1222.36 1552.2 1219.59 1549.29C1217.1 1546.68 1213.4 1547.36 1211.01 1550.86C1208.82 1554.06 1207.33 1553.68 1207.08 1549.86C1206.78 1545.55 1203.42 1543.14 1199.55 1544.47C1198.02 1544.99 1196.46 1544.9 1196.08 1544.27C1195.7 1543.64 1196.34 1542.21 1197.51 1541.1C1200.47 1538.27 1199.89 1534.18 1196.21 1531.93C1192.81 1529.86 1193.34 1528.17 1197.34 1528.31C1201.24 1528.44 1203.77 1524.82 1202.45 1520.96C1201.29 1517.55 1203.11 1516.19 1205.57 1518.63ZM1223.8 1506.01C1223.96 1506.79 1224.72 1509.24 1225.48 1511.47C1226.6 1514.71 1227.19 1515.47 1228.42 1515.24C1230.69 1514.83 1230.77 1514.71 1230.29 1512.14C1229.89 1510.02 1230.2 1510.11 1233.22 1512.98C1238.18 1517.68 1241.69 1525.24 1242.15 1532.19C1242.45 1536.8 1242.88 1538.12 1244.07 1538.15C1246.22 1538.21 1246.82 1532.65 1245.34 1526.39C1243.86 1520.15 1239.33 1512.61 1234.91 1509.04C1233.1 1507.57 1231.54 1506.28 1231.47 1506.16C1231.39 1506.05 1232.29 1505.37 1233.46 1504.66C1235.93 1503.17 1235.08 1500.66 1232.35 1501.39C1226.9 1502.83 1223.52 1504.66 1223.8 1506.01ZM1203.72 1531.95C1202.99 1534.92 1203.23 1536.77 1204.63 1539.08C1208.94 1546.19 1220.2 1544.51 1222.18 1536.47C1223.51 1531.05 1220.06 1525.76 1214.67 1524.92C1209.11 1524.06 1205.01 1526.69 1203.72 1531.95ZM1214.2 1528.26C1215.11 1528.48 1216.57 1529.85 1217.46 1531.31C1219.51 1534.7 1218.96 1536.83 1215.46 1538.94C1211.27 1541.49 1206.18 1537.65 1207.36 1532.84C1207.99 1530.29 1211.87 1527.68 1214.2 1528.26ZM1178.98 1554.58C1178.75 1556.16 1179.06 1556.69 1180.53 1557.2C1182.13 1557.75 1181.7 1558.24 1177.23 1560.95C1167.7 1566.73 1158.74 1579.52 1156.21 1590.95C1155.44 1594.44 1155.57 1594.93 1157.33 1595.19C1159.02 1595.44 1159.6 1594.47 1161.19 1588.84C1163.41 1580.92 1169.09 1572.27 1175.83 1566.53C1182.44 1560.9 1182.99 1560.62 1183.35 1562.65C1183.52 1563.59 1184.44 1564.63 1185.4 1564.96C1186.86 1565.47 1187.33 1564.83 1188.32 1561.06C1188.97 1558.59 1189.24 1556.14 1188.92 1555.62C1188.61 1555.09 1186.31 1554.2 1183.81 1553.63C1179.82 1552.72 1179.24 1552.83 1178.98 1554.58ZM1182.72 1571.94C1182.61 1572.81 1182.99 1574.89 1183.57 1576.56C1185.08 1580.91 1182.78 1582.85 1178.18 1581.11C1174.74 1579.81 1174.43 1579.88 1172.58 1582.41C1169.55 1586.53 1169.62 1588.15 1172.96 1591C1177.19 1594.62 1176.65 1596.74 1171.23 1597.88C1167.27 1598.71 1167.17 1598.8 1166.92 1602.21C1166.58 1606.76 1167.42 1607.97 1171.49 1608.84C1176.7 1609.94 1177.28 1612.08 1173.42 1615.98L1170.12 1619.32L1172.76 1623.09C1175.36 1626.81 1175.44 1626.84 1179.46 1625.37C1184.27 1623.61 1185.85 1625.14 1184.44 1630.2C1183.3 1634.29 1184.4 1636.23 1188.6 1637.55C1191.64 1638.51 1192.03 1638.38 1194.47 1635.61C1198.1 1631.49 1199.86 1631.99 1201.3 1637.57C1202.27 1641.29 1202.63 1641.76 1204.66 1641.99C1209.23 1642.51 1211.5 1641.15 1212.54 1637.27C1213.99 1631.89 1215.78 1631.31 1219.24 1635.1C1222.16 1638.29 1222.17 1638.29 1225.99 1635.98C1229.73 1633.71 1229.79 1633.58 1228.75 1629.34C1227.52 1624.27 1229.04 1622.76 1233.97 1624.13C1237.9 1625.23 1239.55 1624.38 1241.07 1620.47C1242.13 1617.76 1241.99 1617.35 1239.17 1614.65C1235.14 1610.78 1235.67 1608.71 1241.03 1607.36C1245.28 1606.29 1246 1605.08 1245.25 1600.24C1244.79 1597.2 1244.52 1596.97 1240.62 1596.37C1235.52 1595.59 1234.7 1593.11 1238.43 1589.77C1243.92 1584.86 1238.6 1576.33 1232.39 1580.1C1231.27 1580.78 1229.57 1580.89 1228.6 1580.35C1227.23 1579.58 1227.07 1578.42 1227.86 1574.94L1228.86 1570.51L1225.35 1568.44C1221.95 1566.44 1221.73 1566.47 1218.37 1569.19C1214.06 1572.69 1211.75 1572.6 1211.07 1568.9C1210.25 1564.4 1208.91 1563.24 1204.81 1563.45L1200.86 1563.65L1199.7 1568.04C1198.78 1571.5 1198.11 1572.45 1196.53 1572.5C1195.42 1572.53 1194.05 1571.78 1193.47 1570.84C1191.48 1567.55 1188.82 1566.78 1185.8 1568.61C1184.22 1569.57 1182.84 1571.06 1182.72 1571.94ZM1191.57 1574.45C1193.96 1577.22 1194.57 1577.39 1198.22 1576.34C1201.92 1575.26 1202.31 1574.89 1203.2 1571.59C1204.15 1568.03 1205.79 1566.08 1206.64 1567.49C1206.89 1567.89 1207.4 1569.71 1207.79 1571.54C1208.44 1574.58 1208.85 1574.97 1212.49 1575.94C1215.27 1576.69 1216.92 1576.55 1217.91 1575.49C1222.22 1570.9 1222.59 1570.64 1223.25 1571.72C1223.62 1572.33 1223.56 1574.47 1223.11 1576.46C1222.37 1579.8 1222.54 1580.31 1225.32 1582.97C1228.07 1585.59 1228.69 1585.72 1232.1 1584.37C1236.48 1582.63 1238.33 1584.29 1235.25 1587.18C1231.95 1590.26 1231.44 1591.73 1232.48 1595.19C1233.32 1597.98 1233.97 1598.59 1237.03 1599.41C1242.98 1601 1242.83 1603.27 1236.69 1604.4C1234.4 1604.82 1233.79 1605.52 1232.75 1608.91C1231.57 1612.78 1231.63 1613.01 1234.54 1615.5C1239.02 1619.32 1238.1 1621.57 1232.78 1619.77C1228.78 1618.43 1228.73 1618.44 1226.05 1621.68C1223.79 1624.4 1223.53 1625.54 1224.45 1628.55C1225.75 1632.8 1224.13 1634.35 1221.38 1631.47C1220.32 1630.35 1219.08 1629.1 1218.64 1628.69C1218.19 1628.29 1216.08 1628.4 1213.94 1628.94C1210.23 1629.88 1210 1630.13 1208.91 1634.29C1207.94 1637.98 1207.55 1638.48 1206.36 1637.57C1205.59 1636.97 1204.68 1635.13 1204.33 1633.48C1203.76 1630.79 1203.24 1630.37 1199.44 1629.56C1195.75 1628.77 1194.94 1628.95 1193.31 1630.92C1192.28 1632.17 1190.66 1633.33 1189.72 1633.5C1188.27 1633.76 1188.16 1633.11 1189 1629.41C1189.96 1625.22 1189.87 1624.89 1187.02 1622.35C1185.37 1620.88 1183.55 1619.81 1182.97 1619.96C1182.39 1620.12 1180.71 1620.65 1179.25 1621.15C1175.48 1622.44 1174.75 1620.32 1177.88 1617.15C1180.09 1614.9 1180.38 1613.78 1179.65 1610.32C1178.77 1606.21 1178.73 1606.17 1174.56 1605.52C1169.02 1604.66 1169.24 1602.24 1174.98 1600.91C1178.71 1600.05 1178.88 1599.88 1179.62 1595.9C1180.27 1592.42 1180.05 1591.51 1178.22 1590.08C1173.3 1586.25 1174.21 1584.17 1180.22 1585.5C1183.32 1586.19 1184.18 1585.96 1186.21 1583.87C1188.74 1581.28 1188.97 1579.74 1187.47 1575.48C1186.08 1571.5 1188.49 1570.88 1191.57 1574.45ZM1238.81 1551.13C1239.27 1553.62 1238.96 1554.08 1236.17 1555.13C1231.95 1556.72 1231.05 1560.55 1234.1 1563.87C1235.88 1565.82 1235.97 1566.52 1234.67 1568.42C1232.47 1571.65 1235.45 1576.56 1239.34 1576.1C1242.36 1575.74 1242.95 1576.27 1243.13 1579.52C1243.22 1581.29 1243.91 1581.88 1246.66 1582.55C1249.58 1583.26 1250.34 1583.06 1251.85 1581.12C1252.82 1579.87 1253.77 1578.9 1253.95 1578.97C1254.14 1579.04 1255.27 1579.68 1256.46 1580.41C1259.69 1582.37 1264.78 1579.1 1264.11 1575.48C1263.56 1572.5 1263.75 1572.28 1266.94 1572.11C1268.81 1572.01 1269.4 1571.39 1270.12 1568.79C1270.83 1566.27 1270.57 1565.11 1268.9 1563.24C1267.08 1561.21 1267.01 1560.53 1268.41 1558.48C1269.76 1556.5 1269.71 1555.64 1268.1 1553.48C1266.74 1551.66 1265.39 1550.97 1263.66 1551.21C1261.53 1551.5 1260.99 1551.08 1259.96 1548.37C1258.24 1543.81 1254.83 1542.93 1251.09 1546.08C1248.69 1548.11 1248.02 1548.23 1246.24 1546.96C1244.8 1545.93 1243.3 1545.92 1241.24 1546.91C1238.76 1548.1 1238.38 1548.77 1238.81 1551.13ZM1245.95 1551.31C1246.97 1552.99 1252 1552.08 1253.24 1549.98C1254.58 1547.71 1255.9 1548.03 1256.04 1550.66C1256.18 1553.27 1260.02 1556.03 1262.64 1555.39C1264.88 1554.85 1266.02 1556.21 1264.23 1557.29C1262.47 1558.36 1262.98 1564.16 1264.92 1565.12C1267.59 1566.45 1267.38 1567.19 1264.01 1568.46C1261.25 1569.5 1260.6 1570.26 1260 1573.17C1259.19 1577.15 1258.54 1577.86 1257.41 1576C1256.4 1574.33 1251.73 1575.18 1249.49 1577.44C1247.87 1579.08 1247.68 1578.98 1246.46 1575.97C1245.17 1572.78 1242.63 1571.32 1239.5 1571.97C1238.62 1572.15 1238.53 1570.97 1239.23 1568.47C1240.12 1565.25 1239.93 1564.31 1237.94 1562.08C1235.64 1559.53 1235.65 1559.47 1238.34 1558.97C1241.54 1558.38 1243.36 1555.93 1243.18 1552.47C1243.05 1550.11 1244.79 1549.39 1245.95 1551.31ZM1189.61 1588.57C1186.46 1592.02 1184.12 1599.8 1184.72 1604.82C1186.57 1620.37 1203.88 1628.98 1217.06 1620.92C1225.55 1615.72 1229.4 1606.17 1226.79 1596.8C1222.27 1580.58 1201.18 1575.91 1189.61 1588.57ZM1207.49 1585.21C1220.17 1586.57 1227.51 1599.84 1221.6 1610.75C1219.53 1614.59 1218.36 1615.68 1213.92 1617.95C1205.03 1622.5 1196.39 1620.02 1191.19 1611.43C1183.86 1599.34 1193.57 1583.73 1207.49 1585.21ZM1244.09 1561.37C1243.52 1563.38 1243.88 1565.25 1245.28 1567.57C1249.08 1573.84 1258.09 1572.11 1259.16 1564.9C1260.53 1555.78 1246.6 1552.52 1244.09 1561.37ZM1252.5 1560.26C1254.79 1561.05 1255.72 1563.61 1254.55 1565.94C1253.82 1567.39 1253.02 1567.63 1250.73 1567.06C1248.32 1566.48 1247.8 1565.94 1247.69 1563.95C1247.55 1561.18 1249.91 1559.36 1252.5 1560.26Z" fill="#939393"/>
<path opacity="0.05" fill-rule="evenodd" clip-rule="evenodd" d="M4.38495 1445.19C1.26639 1448.6 1.86693 1450.72 16.4925 1488.03L30.4967 1523.75L33.7666 1525.48L37.0375 1527.21L81.4236 1509.81L125.81 1492.41L126.728 1489.52C127.598 1486.77 126.88 1484.67 113.139 1449.61C99.3996 1414.57 98.4915 1412.53 95.9908 1411.11L93.3506 1409.61L49.6706 1426.52C20.6953 1437.74 5.45035 1444.02 4.38495 1445.19ZM108.056 1451C119.364 1479.28 122.308 1487.39 121.617 1488.33C120.097 1490.41 38.0418 1522.19 36.2368 1521.41C33.9939 1520.43 6.96002 1451.44 7.94028 1449.2C8.4607 1448.01 18.8459 1443.69 51.1187 1431.25L93.6119 1414.87L108.056 1451ZM27.7938 1461.07C27.8061 1462.83 28.0941 1462.95 44.8595 1468.04C51.0334 1469.91 56.1667 1471.65 56.2661 1471.91C56.3655 1472.17 53.1197 1478.03 49.0531 1484.93C42.0036 1496.91 40.9861 1500.48 44.8297 1499.77C46.4737 1499.46 63.4354 1470.78 62.8518 1469.29C62.3649 1468.05 30.6722 1458.33 29.1071 1458.94C28.3791 1459.23 27.7877 1460.19 27.7938 1461.07ZM69.948 1486.32C69.9715 1489.72 71.8982 1489.39 87.3009 1483.36L102.672 1477.33L101.554 1475.35C100.453 1473.41 100.198 1473.47 85.1861 1479.06C72.4357 1483.81 69.938 1485 69.948 1486.32Z" fill="#939393"/>
<path opacity="0.05" fill-rule="evenodd" clip-rule="evenodd" d="M1384.69 1312.22C1380.1 1312.73 1379.15 1314.72 1365.56 1352.42L1352.55 1388.52L1353.87 1391.97L1355.19 1395.43L1400.04 1411.6L1444.89 1427.77L1447.49 1426.19C1449.95 1424.71 1450.8 1422.65 1463.56 1387.23C1476.33 1351.82 1476.99 1349.68 1476.05 1346.97L1475.05 1344.1L1431.05 1328.03C1401.87 1317.37 1386.26 1312.05 1384.69 1312.22ZM1458.83 1384.92C1448.69 1413.65 1445.56 1421.68 1444.42 1421.93C1441.91 1422.49 1359.25 1392.32 1358.41 1390.54C1357.37 1388.32 1382.51 1318.62 1384.72 1317.58C1385.9 1317.03 1396.55 1320.63 1429.02 1332.54L1471.78 1348.23L1458.83 1384.92ZM1391.83 1339.59C1390.68 1340.92 1390.82 1341.2 1400.07 1356.08C1403.48 1361.56 1406.19 1366.25 1406.1 1366.51C1406 1366.77 1399.7 1369.04 1392.09 1371.55C1378.9 1375.91 1375.77 1377.93 1379.13 1379.93C1380.57 1380.78 1412.23 1370.39 1412.78 1368.88C1413.23 1367.63 1395.8 1339.43 1394.22 1338.86C1393.48 1338.6 1392.41 1338.93 1391.83 1339.59ZM1406.89 1386.37C1404.66 1388.94 1406.33 1389.96 1421.89 1395.58L1437.43 1401.17L1437.89 1398.95C1438.34 1396.76 1438.11 1396.64 1423.13 1390.95C1410.41 1386.12 1407.75 1385.37 1406.89 1386.37Z" fill="#939393"/>
<path opacity="0.05" fill-rule="evenodd" clip-rule="evenodd" d="M267.29 1536.36C255.824 1537.42 252 1538.17 251.213 1539.54C250.644 1540.53 248.385 1548.13 246.192 1556.43L242.204 1571.52L226.843 1572.91L211.483 1574.3L206.713 1592.42L201.942 1610.53L204.323 1612.29C210.832 1617.1 228.555 1629.16 229.465 1629.4C230.035 1629.55 237.313 1629.08 245.636 1628.35L260.769 1627.02L273.6 1635.88L286.432 1644.73L294.93 1644.05C299.603 1643.67 307.134 1642.99 311.665 1642.52L319.904 1641.66L324.683 1623.51L329.462 1605.36L316.778 1596.59L304.094 1587.81L308.308 1571.75C310.626 1562.91 312.324 1555.14 312.081 1554.48C311.472 1552.82 287.212 1536.09 284.513 1535.47C283.315 1535.19 275.565 1535.59 267.29 1536.36ZM292.053 1544.51C306.126 1554.12 306.126 1553.06 292.053 1554.42L279.694 1555.61L269.576 1548.69C264.012 1544.88 259.737 1541.6 260.078 1541.39C261.138 1540.73 281.199 1538.88 283.094 1539.26C284.083 1539.46 288.114 1541.83 292.053 1544.51ZM272.97 1555.8L276.699 1558.33L272.785 1573.19L268.872 1588.06L261.678 1582.98C257.722 1580.18 252.805 1576.77 250.752 1575.38L247.021 1572.86L250.915 1558.07L254.81 1543.28L262.025 1548.28C265.993 1551.02 270.918 1554.41 272.97 1555.8ZM303.959 1571.74L299.819 1586.38L294.509 1586.91C291.588 1587.2 285.5 1587.79 280.98 1588.22L272.763 1588.99L276.654 1574.21L280.544 1559.43L293.55 1558.15C300.703 1557.44 306.903 1556.92 307.327 1556.98C307.751 1557.05 306.236 1563.69 303.959 1571.74ZM253.487 1582.17C258.982 1585.99 263.059 1589.34 262.544 1589.61C262.03 1589.89 256.63 1590.53 250.543 1591.05C240.401 1591.91 239.218 1591.82 236.375 1589.88C234.669 1588.71 229.976 1585.5 225.948 1582.73L218.622 1577.7L230.703 1576.45C237.347 1575.77 242.944 1575.21 243.139 1575.22C243.334 1575.22 247.991 1578.35 253.487 1582.17ZM311.261 1597.58L321.564 1604.8L312.716 1605.58C307.849 1606 302.184 1606.49 300.126 1606.66C296.697 1606.95 295.619 1606.45 287.217 1600.71C282.175 1597.26 277.792 1594.03 277.477 1593.54C277.052 1592.87 296.505 1590.15 300.389 1590.33C300.702 1590.34 305.595 1593.61 311.261 1597.58ZM226.298 1587.75L236.159 1594.48L232.261 1609.28C228.665 1622.94 228.244 1624.01 226.813 1623.1C225.959 1622.56 221.126 1619.27 216.071 1615.78L206.881 1609.45L210.508 1594.59C213.358 1582.91 214.38 1579.87 215.286 1580.38C215.92 1580.73 220.876 1584.05 226.298 1587.75ZM263.242 1608.56L259.101 1623.2L247.984 1624.19C241.869 1624.73 236.042 1625.21 235.032 1625.26C233.34 1625.35 233.5 1624.21 237.102 1610.55L241.006 1595.75L252.93 1594.62C259.488 1594 265.423 1593.59 266.119 1593.71C267.104 1593.87 266.47 1597.14 263.242 1608.56ZM283.142 1602.59L293.641 1609.84L290.056 1624.54C287.266 1635.98 286.201 1639.16 285.254 1638.85C284.585 1638.64 279.514 1635.32 273.985 1631.47L263.932 1624.49L267.541 1609.7C269.526 1601.56 271.486 1595 271.896 1595.12C272.307 1595.24 277.367 1598.6 283.142 1602.59ZM320.297 1623.58L316.156 1638.22L305.039 1639.21C298.924 1639.75 293.097 1640.24 292.088 1640.29C290.396 1640.37 290.555 1639.24 294.157 1625.58L298.061 1610.78L309.985 1609.65C316.543 1609.03 322.479 1608.61 323.174 1608.73C324.16 1608.89 323.526 1612.16 320.297 1623.58Z" fill="#939393"/>
<path opacity="0.05" fill-rule="evenodd" clip-rule="evenodd" d="M1189.86 1086.53C1180.8 1093.63 1177.99 1096.33 1178.07 1097.91C1178.12 1099.05 1180.34 1106.66 1182.99 1114.83L1187.8 1129.67L1175.64 1139.16L1163.47 1148.64L1169.27 1166.45L1175.06 1184.27L1178.01 1184.46C1186.09 1184.98 1207.52 1185.53 1208.41 1185.24C1208.97 1185.06 1214.84 1180.72 1221.44 1175.6L1233.45 1166.3L1249.03 1166.8L1264.61 1167.3L1271.39 1162.13C1275.12 1159.29 1281.08 1154.63 1284.63 1151.78L1291.1 1146.61L1285.3 1128.76L1279.49 1110.91L1264.08 1110.4L1248.66 1109.88L1243.51 1094.09C1240.68 1085.41 1237.9 1077.95 1237.34 1077.53C1235.93 1076.46 1206.47 1075.52 1203.87 1076.46C1202.71 1076.88 1196.41 1081.41 1189.86 1086.53ZM1215.1 1079.99C1232.14 1080.45 1231.56 1079.56 1220.46 1088.32L1210.72 1096.01L1198.46 1095.66C1191.72 1095.47 1186.35 1095.02 1186.52 1094.66C1187.06 1093.54 1202.93 1081.13 1204.73 1080.42C1205.67 1080.05 1210.34 1079.86 1215.1 1079.99ZM1205.16 1099.81L1209.67 1099.91L1214.42 1114.53L1219.17 1129.15L1210.38 1128.77C1205.54 1128.56 1199.55 1128.35 1197.08 1128.29L1192.58 1128.2L1187.85 1113.65L1183.12 1099.1L1191.89 1099.4C1196.71 1099.57 1202.69 1099.75 1205.16 1099.81ZM1239.85 1096.44L1244.29 1110.99L1240.11 1114.31C1237.81 1116.14 1233.01 1119.93 1229.44 1122.73L1222.95 1127.83L1218.23 1113.29L1213.5 1098.76L1223.74 1090.64C1229.37 1086.18 1234.3 1082.38 1234.7 1082.21C1235.09 1082.03 1237.41 1088.44 1239.85 1096.44ZM1203.05 1132.52C1209.74 1132.76 1214.98 1133.37 1214.7 1133.88C1214.41 1134.39 1210.22 1137.86 1205.38 1141.59C1197.32 1147.8 1196.27 1148.36 1192.83 1148.27C1190.77 1148.21 1185.08 1148.05 1180.2 1147.9L1171.31 1147.63L1180.8 1140.05C1186.01 1135.87 1190.42 1132.38 1190.59 1132.28C1190.75 1132.18 1196.36 1132.29 1203.05 1132.52ZM1259.97 1114.22L1272.55 1114.71L1265.52 1120.15C1261.66 1123.14 1257.16 1126.62 1255.53 1127.88C1252.8 1129.98 1251.62 1130.14 1241.45 1129.86C1235.34 1129.69 1229.91 1129.35 1229.38 1129.1C1228.66 1128.77 1243.54 1115.95 1246.91 1114C1247.18 1113.84 1253.06 1113.94 1259.97 1114.22ZM1183.21 1151.93L1195.14 1152.25L1199.87 1166.81C1204.24 1180.24 1204.47 1181.37 1202.77 1181.38C1201.76 1181.38 1195.92 1181.23 1189.78 1181.04L1178.63 1180.69L1173.63 1166.23C1169.71 1154.86 1168.92 1151.76 1169.96 1151.69C1170.68 1151.64 1176.65 1151.75 1183.21 1151.93ZM1225.54 1149.43L1229.98 1163.99L1221.16 1170.83C1216.32 1174.6 1211.68 1178.16 1210.86 1178.75C1209.48 1179.74 1209 1178.69 1204.64 1165.26L1199.91 1150.7L1209.32 1143.3C1214.5 1139.23 1219.27 1135.67 1219.92 1135.39C1220.83 1134.99 1222.07 1138.09 1225.54 1149.43ZM1239.04 1133.64L1251.79 1134.06L1256.73 1148.36C1260.58 1159.49 1261.4 1162.74 1260.44 1162.99C1259.76 1163.18 1253.7 1163.13 1246.97 1162.89L1234.74 1162.46L1229.77 1148.07C1227.04 1140.15 1225.13 1133.57 1225.54 1133.45C1225.95 1133.33 1232.02 1133.42 1239.04 1133.64ZM1281.64 1131.19L1286.09 1145.74L1277.27 1152.59C1272.42 1156.35 1267.79 1159.91 1266.96 1160.5C1265.59 1161.49 1265.11 1160.45 1260.74 1147.01L1256.02 1132.46L1265.43 1125.05C1270.61 1120.98 1275.38 1117.42 1276.02 1117.14C1276.94 1116.75 1278.18 1119.84 1281.64 1131.19Z" fill="#939393"/>
<path opacity="0.05" fill-rule="evenodd" clip-rule="evenodd" d="M218.363 1153.61C216.273 1157.44 217.956 1157.64 221.286 1153.97L224.069 1150.89L228.047 1152.99C230.235 1154.14 232.248 1155.63 232.52 1156.29C232.793 1156.96 232.601 1162.99 232.094 1169.69C231.578 1176.52 231.666 1181.96 232.293 1182.07C232.91 1182.17 233.795 1176.97 234.261 1170.51C234.727 1164.05 235.328 1158.68 235.596 1158.58C235.863 1158.47 240.572 1161.64 246.059 1165.62C255.47 1172.44 258.125 1173.79 256.959 1171.13C256.683 1170.5 249.744 1165.2 241.539 1159.36C227.232 1149.18 226.482 1148.79 223.24 1149.81C220.972 1150.53 219.365 1151.78 218.363 1153.61Z" fill="#939393"/>
<path opacity="0.05" fill-rule="evenodd" clip-rule="evenodd" d="M269.462 1444.32C265.485 1446.1 266.703 1447.28 271.577 1446.37L275.65 1445.61L277.549 1449.69C278.594 1451.93 279.298 1454.33 279.113 1455.02C278.929 1455.72 275.129 1460.4 270.67 1465.43C266.129 1470.56 262.905 1474.95 263.342 1475.41C263.772 1475.86 267.623 1472.25 271.901 1467.39C276.179 1462.53 279.906 1458.62 280.182 1458.7C280.458 1458.78 282.29 1464.15 284.252 1470.64C287.618 1481.77 288.92 1484.44 289.601 1481.62C289.762 1480.95 287.438 1472.54 284.437 1462.92C279.204 1446.16 278.844 1445.4 275.645 1444.25C273.407 1443.44 271.37 1443.47 269.462 1444.32Z" fill="#939393"/>
<path opacity="0.05" fill-rule="evenodd" clip-rule="evenodd" d="M226.691 1020.21C225.517 1021.11 223.82 1023.07 222.921 1024.57C221.854 1026.34 220.305 1027.46 218.456 1027.78C215.039 1028.37 210.792 1032.13 210.127 1035.16C209.775 1036.77 208.654 1037.65 205.959 1038.41C193.478 1041.94 195.343 1061.9 208.359 1064.1C213.652 1064.99 253.457 1053.81 257.089 1050.41C259.875 1047.8 261.159 1042.87 260.057 1039C259.081 1035.56 254.413 1031.21 251.171 1030.72C249.307 1030.43 248.406 1029.5 247.645 1027.08C244.892 1018.3 233.878 1014.69 226.691 1020.21ZM239.712 1021.47C242.961 1023.05 243.836 1024.1 245.079 1027.91C246.371 1031.87 246.978 1032.55 249.717 1033.12C254.142 1034.04 255.921 1035.63 257.115 1039.72C257.815 1042.11 257.645 1044.35 256.592 1046.62L255.035 1049.97L234.098 1056.19C210.354 1063.24 207.867 1063.38 202.597 1057.92C200.067 1055.29 199.747 1054.45 199.807 1050.61C199.887 1045.54 203.206 1041.27 208.155 1039.87C210.529 1039.19 211.764 1038.03 212.992 1035.31C214.418 1032.15 215.204 1031.54 218.802 1030.75C222.286 1030 223.394 1029.19 225.597 1025.79C229.14 1020.32 234.187 1018.77 239.712 1021.47Z" fill="#939393"/>
<path opacity="0.05" fill-rule="evenodd" clip-rule="evenodd" d="M110.417 1269.76C108.937 1269.79 106.409 1270.37 104.8 1271.04C102.889 1271.84 100.981 1271.82 99.3015 1270.98C96.1979 1269.44 90.5452 1269.96 88.2176 1272.01C86.9801 1273.1 85.5603 1273.14 82.9372 1272.16C70.7857 1267.63 60.4784 1284.83 69.6733 1294.3C73.4135 1298.15 112.12 1312.68 117.06 1312.09C120.85 1311.63 124.804 1308.41 126.206 1304.64C127.45 1301.29 126.26 1295.03 123.939 1292.71C122.604 1291.38 122.428 1290.09 123.25 1287.69C126.222 1278.98 119.476 1269.56 110.417 1269.76ZM120.172 1278.47C121.856 1281.67 121.94 1283.03 120.688 1286.84C119.389 1290.8 119.475 1291.71 121.345 1293.79C124.367 1297.15 124.863 1299.48 123.407 1303.48C122.555 1305.83 121.093 1307.53 118.905 1308.73L115.665 1310.52L95.106 1303.15C71.7905 1294.79 69.7039 1293.42 68.6867 1285.9C68.1979 1282.29 68.4358 1281.43 70.7605 1278.36C73.82 1274.33 79.0221 1272.85 83.8432 1274.64C86.1563 1275.5 87.8404 1275.29 90.4393 1273.83C93.4564 1272.13 94.4546 1272.09 97.8193 1273.59C101.076 1275.04 102.449 1275.04 106.236 1273.61C112.327 1271.29 117.31 1273.03 120.172 1278.47Z" fill="#939393"/>
<path opacity="0.05" fill-rule="evenodd" clip-rule="evenodd" d="M93.0818 1574.88C91.6989 1575.41 89.512 1576.8 88.2225 1577.97C86.6917 1579.37 84.8882 1579.99 83.0253 1579.77C79.583 1579.36 74.4351 1581.75 72.9308 1584.46C72.1314 1585.9 70.8075 1586.42 68.0079 1586.38C55.0383 1586.18 51.1077 1605.85 62.9497 1611.68C67.7661 1614.05 109.105 1614.74 113.559 1612.52C116.975 1610.82 119.618 1606.46 119.672 1602.43C119.72 1598.86 116.493 1593.36 113.528 1591.95C111.824 1591.15 111.227 1590 111.193 1587.46C111.068 1578.26 101.549 1571.65 93.0818 1574.88ZM105.198 1579.81C107.858 1582.25 108.396 1583.51 108.495 1587.52C108.6 1591.68 108.987 1592.51 111.447 1593.84C115.423 1595.99 116.673 1598.02 116.646 1602.28C116.631 1604.77 115.827 1606.87 114.17 1608.74L111.718 1611.51L89.8767 1611.47C65.1077 1611.43 62.685 1610.85 59.2005 1604.1C57.5272 1600.87 57.4604 1599.97 58.6199 1596.3C60.1465 1591.47 64.5495 1588.33 69.693 1588.4C72.1608 1588.44 73.6772 1587.68 75.6328 1585.42C77.9028 1582.81 78.8323 1582.44 82.5046 1582.72C86.059 1582.99 87.3529 1582.53 90.4371 1579.91C95.3972 1575.68 100.675 1575.65 105.198 1579.81Z" fill="#939393"/>
<path opacity="0.05" fill-rule="evenodd" clip-rule="evenodd" d="M1248.22 1353.15C1247.23 1354.25 1245.91 1356.48 1245.3 1358.12C1244.57 1360.06 1243.24 1361.43 1241.48 1362.08C1238.23 1363.27 1234.73 1367.74 1234.62 1370.84C1234.56 1372.49 1233.62 1373.55 1231.11 1374.79C1219.46 1380.51 1224.9 1399.81 1238.09 1399.63C1243.46 1399.55 1280.6 1381.38 1283.56 1377.38C1285.83 1374.31 1286.21 1369.23 1284.43 1365.62C1282.85 1362.42 1277.47 1358.98 1274.19 1359.08C1272.31 1359.13 1271.25 1358.38 1270.07 1356.13C1265.78 1347.99 1254.3 1346.43 1248.22 1353.15ZM1261.25 1352.04C1264.74 1353.01 1265.79 1353.89 1267.69 1357.41C1269.68 1361.07 1270.4 1361.63 1273.2 1361.7C1277.71 1361.81 1279.75 1363.05 1281.66 1366.86C1282.78 1369.09 1283.02 1371.32 1282.39 1373.74L1281.46 1377.32L1261.99 1387.21C1239.9 1398.42 1237.48 1399 1231.31 1394.58C1228.35 1392.46 1227.89 1391.69 1227.25 1387.89C1226.42 1382.9 1228.91 1378.1 1233.53 1375.83C1235.74 1374.74 1236.75 1373.37 1237.47 1370.47C1238.3 1367.11 1238.96 1366.36 1242.36 1364.94C1245.65 1363.57 1246.59 1362.57 1248.15 1358.83C1250.65 1352.82 1255.33 1350.39 1261.25 1352.04Z" fill="#939393"/>
<path opacity="0.05" fill-rule="evenodd" clip-rule="evenodd" d="M1377.15 1519.65C1375.81 1520.29 1373.74 1521.85 1372.54 1523.12C1371.13 1524.63 1369.38 1525.39 1367.5 1525.32C1364.04 1525.18 1359.09 1527.96 1357.81 1530.78C1357.12 1532.28 1355.84 1532.9 1353.05 1533.08C1340.1 1533.9 1337.72 1553.81 1349.98 1558.7C1354.97 1560.69 1396.24 1558.14 1400.5 1555.58C1403.78 1553.61 1406.07 1549.06 1405.81 1545.04C1405.58 1541.48 1401.93 1536.25 1398.87 1535.08C1397.1 1534.41 1396.42 1533.31 1396.18 1530.78C1395.34 1521.62 1385.33 1515.77 1377.15 1519.65ZM1389.61 1523.62C1392.45 1525.85 1393.09 1527.07 1393.5 1531.05C1393.93 1535.19 1394.38 1535.99 1396.94 1537.12C1401.07 1538.96 1402.47 1540.88 1402.78 1545.13C1402.96 1547.62 1402.32 1549.77 1400.82 1551.76L1398.59 1554.72L1376.81 1556.39C1352.12 1558.28 1349.66 1557.89 1345.65 1551.44C1343.73 1548.35 1343.6 1547.46 1344.46 1543.71C1345.61 1538.78 1349.75 1535.3 1354.89 1534.97C1357.35 1534.81 1358.8 1533.93 1360.57 1531.53C1362.63 1528.75 1363.53 1528.31 1367.21 1528.3C1370.78 1528.29 1372.03 1527.73 1374.9 1524.88C1379.52 1520.28 1384.78 1519.83 1389.61 1523.62Z" fill="#939393"/>
<path opacity="0.05" fill-rule="evenodd" clip-rule="evenodd" d="M1387.82 1219.61C1386.48 1220.24 1384.41 1221.8 1383.22 1223.08C1381.8 1224.59 1380.05 1225.35 1378.18 1225.27C1374.71 1225.13 1369.77 1227.92 1368.48 1230.74C1367.8 1232.24 1366.52 1232.86 1363.72 1233.03C1350.78 1233.86 1348.4 1253.77 1360.66 1258.66C1365.65 1260.64 1406.91 1258.09 1411.18 1255.53C1414.45 1253.57 1416.74 1249.02 1416.48 1245C1416.25 1241.44 1412.6 1236.2 1409.54 1235.04C1407.78 1234.36 1407.09 1233.27 1406.86 1230.73C1406.01 1221.57 1396.01 1215.73 1387.82 1219.61ZM1400.28 1223.58C1403.13 1225.81 1403.76 1227.02 1404.17 1231.01C1404.6 1235.15 1405.05 1235.94 1407.61 1237.08C1411.74 1238.91 1413.15 1240.84 1413.45 1245.09C1413.63 1247.57 1413 1249.73 1411.49 1251.72L1409.26 1254.67L1387.49 1256.34C1362.79 1258.24 1360.33 1257.85 1356.33 1251.4C1354.41 1248.3 1354.27 1247.41 1355.14 1243.66C1356.28 1238.73 1360.43 1235.26 1365.56 1234.92C1368.02 1234.76 1369.48 1233.89 1371.25 1231.49C1373.31 1228.7 1374.21 1228.26 1377.89 1228.26C1381.45 1228.25 1382.71 1227.69 1385.58 1224.83C1390.19 1220.23 1395.45 1219.78 1400.28 1223.58Z" fill="#939393"/>
<path opacity="0.05" fill-rule="evenodd" clip-rule="evenodd" d="M307.265 1120.98C306.947 1121.49 308.123 1122.05 309.879 1122.22C314.12 1122.64 314.941 1125.04 310.844 1125.04C308.787 1125.04 307.436 1125.71 306.691 1127.1C305.06 1130.14 307.043 1131.95 311.801 1131.76C315.66 1131.61 315.725 1131.54 315.725 1127.76C315.725 1122.34 314.242 1120.04 310.749 1120.04C309.151 1120.04 307.583 1120.46 307.265 1120.98ZM317.056 1121.67C317.354 1122.7 318.147 1125.45 318.82 1127.79C319.492 1130.12 320.581 1132.03 321.241 1132.03C321.901 1132.03 322.875 1130.12 323.406 1127.79L324.372 1123.54L325.604 1127.85C326.282 1130.22 327.34 1131.99 327.955 1131.79C329.128 1131.4 333.034 1121.02 332.288 1120.27C331.212 1119.2 329.837 1121.41 329.173 1125.29C328.405 1129.78 327.637 1129.1 326.259 1122.72C325.406 1118.76 323.49 1119.88 322.16 1125.11L321.035 1129.53L320.114 1125.12C319.607 1122.69 318.59 1120.5 317.854 1120.25C316.946 1119.95 316.689 1120.4 317.056 1121.67ZM334.736 1121.53C333.076 1123.53 334.121 1125.86 337.199 1127.03C340.649 1128.34 340.381 1130.03 336.725 1130.03C335.075 1130.03 333.725 1130.51 333.725 1131.09C333.725 1131.71 335.304 1132.02 337.475 1131.84C340.72 1131.57 341.225 1131.2 341.225 1129.05C341.225 1127.32 340.384 1126.16 338.475 1125.25C334.842 1123.51 334.983 1122.04 338.784 1122.04C340.569 1122.04 341.586 1121.62 341.225 1121.04C340.291 1119.53 336.135 1119.84 334.736 1121.53ZM313.48 1128.28C312.847 1130.21 308.725 1130.48 308.725 1128.6C308.725 1127.58 309.628 1127.04 311.308 1127.04C312.928 1127.04 313.738 1127.5 313.48 1128.28ZM339.583 1135.75C341.632 1136.14 341.865 1136.61 341.356 1139.36L340.77 1142.52L342.212 1140.03C344.474 1136.11 344.084 1135.02 340.475 1135.17C337.942 1135.27 337.745 1135.4 339.583 1135.75ZM307.032 1138.05C314.232 1143.71 326.349 1145.05 335.153 1141.16C337.838 1139.97 339.849 1138.82 339.624 1138.59C339.398 1138.37 336.291 1138.86 332.719 1139.7C325.153 1141.46 318.132 1140.93 310.457 1138.02C303.98 1135.56 303.857 1135.56 307.032 1138.05Z" fill="#939393"/>
<path opacity="0.05" fill-rule="evenodd" clip-rule="evenodd" d="M1221.16 1271.44C1220.71 1271.84 1221.67 1272.72 1223.29 1273.41C1227.23 1275.05 1227.31 1277.58 1223.39 1276.38C1221.42 1275.77 1219.94 1276.02 1218.81 1277.13C1216.36 1279.56 1217.73 1281.87 1222.33 1283.09C1226.06 1284.07 1226.15 1284.03 1227.26 1280.41C1228.85 1275.23 1228.11 1272.6 1224.77 1271.57C1223.24 1271.1 1221.62 1271.05 1221.16 1271.44ZM1230.32 1274.98C1230.3 1276.05 1230.25 1278.92 1230.21 1281.35C1230.16 1283.78 1230.64 1285.92 1231.28 1286.12C1231.91 1286.31 1233.4 1284.77 1234.59 1282.69L1236.76 1278.92L1236.67 1283.4C1236.63 1285.87 1237.12 1287.87 1237.76 1287.86C1239 1287.83 1245.78 1279.05 1245.29 1278.12C1244.58 1276.77 1242.61 1278.49 1240.84 1282C1238.78 1286.07 1238.25 1285.19 1238.81 1278.69C1239.15 1274.65 1236.99 1275.16 1234.19 1279.77L1231.81 1283.67L1232.23 1279.17C1232.46 1276.7 1232.13 1274.31 1231.5 1273.86C1230.72 1273.3 1230.34 1273.66 1230.32 1274.98ZM1247.26 1280.04C1245.09 1281.46 1245.4 1283.99 1248 1286.02C1250.91 1288.28 1250.16 1289.83 1246.66 1288.75C1245.09 1288.27 1243.66 1288.33 1243.49 1288.88C1243.3 1289.47 1244.72 1290.24 1246.85 1290.7C1250.03 1291.4 1250.62 1291.19 1251.26 1289.13C1251.76 1287.48 1251.3 1286.12 1249.74 1284.69C1246.78 1281.96 1247.35 1280.6 1250.98 1281.71C1252.69 1282.24 1253.78 1282.14 1253.61 1281.48C1253.16 1279.76 1249.09 1278.84 1247.26 1280.04ZM1224.96 1280.26C1223.79 1281.91 1219.77 1280.96 1220.32 1279.17C1220.62 1278.19 1221.64 1277.93 1223.25 1278.42C1224.8 1278.9 1225.43 1279.58 1224.96 1280.26ZM1247.72 1295.06C1249.56 1296.03 1249.65 1296.55 1248.35 1299.03L1246.86 1301.88L1248.98 1299.92C1252.29 1296.83 1252.24 1295.67 1248.74 1294.76C1246.29 1294.12 1246.06 1294.18 1247.72 1295.06ZM1215.92 1287.7C1221.15 1295.23 1232.34 1300.06 1241.89 1298.93C1244.81 1298.58 1247.07 1298.07 1246.92 1297.78C1246.77 1297.5 1243.66 1297.07 1240 1296.81C1232.25 1296.28 1225.69 1293.71 1219.21 1288.67C1213.74 1284.42 1213.62 1284.38 1215.92 1287.7Z" fill="#939393"/>
<g opacity="0.02">
<path d="M416.262 32.0002L479.676 95.4139C480.959 96.6976 480.959 98.7787 479.676 100.062L416.262 163.476" stroke="url(#paint0_linear_1208_496)" stroke-width="32.8689" stroke-linecap="round"/>
<path d="M353.676 32.0002L290.263 95.4139C288.979 96.6976 288.979 98.7787 290.263 100.062L353.676 163.476" stroke="url(#paint1_linear_1208_496)" stroke-width="32.8689" stroke-linecap="round"/>
<path d="M287.938 97.7383L353.676 163.476" stroke="url(#paint2_linear_1208_496)" stroke-width="32.8689" stroke-linecap="round"/>
<path d="M141.792 32.0002L205.206 95.4139C206.49 96.6976 206.49 98.7787 205.206 100.062L141.792 163.476" stroke="url(#paint3_linear_1208_496)" stroke-width="32.8689" stroke-linecap="round"/>
<path d="M79.2066 32.0002L15.7929 95.4139C14.5093 96.6976 14.5093 98.7787 15.7929 100.062L79.2066 163.476" stroke="url(#paint4_linear_1208_496)" stroke-width="32.8689" stroke-linecap="round"/>
<path d="M13.4688 97.7383L79.2066 163.476" stroke="url(#paint5_linear_1208_496)" stroke-width="32.8689" stroke-linecap="round"/>
<path d="M-4.35312 229.577L59.0606 292.991C60.3442 294.275 60.3442 296.356 59.0606 297.639L-4.35312 361.053" stroke="url(#paint6_linear_1208_496)" stroke-width="32.8689" stroke-linecap="round"/>
<path d="M287.939 229.577L351.353 292.991C352.636 294.275 352.636 296.356 351.353 297.639L287.939 361.053" stroke="url(#paint7_linear_1208_496)" stroke-width="32.8689" stroke-linecap="round"/>
<path d="M225.353 229.577L161.939 292.991C160.656 294.275 160.656 296.356 161.939 297.639L225.353 361.053" stroke="url(#paint8_linear_1208_496)" stroke-width="32.8689" stroke-linecap="round"/>
<path d="M159.615 295.315L225.353 361.053" stroke="url(#paint9_linear_1208_496)" stroke-width="32.8689" stroke-linecap="round"/>
<path d="M141.792 427.155L205.206 490.568C206.49 491.852 206.49 493.933 205.206 495.217L141.792 558.631" stroke="url(#paint10_linear_1208_496)" stroke-width="32.8689" stroke-linecap="round"/>
<path d="M79.2066 427.155L15.7929 490.568C14.5093 491.852 14.5093 493.933 15.7929 495.217L79.2066 558.63" stroke="url(#paint11_linear_1208_496)" stroke-width="32.8689" stroke-linecap="round"/>
<path d="M13.4688 492.893L79.2066 558.63" stroke="url(#paint12_linear_1208_496)" stroke-width="32.8689" stroke-linecap="round"/>
<path d="M-4.67636 625L58.7373 688.414C60.021 689.698 60.021 691.779 58.7373 693.063L-4.67636 756.476" stroke="url(#paint13_linear_1208_496)" stroke-width="32.8689" stroke-linecap="round"/>
</g>
<g opacity="0.04">
<path d="M1274.74 724.476L1211.33 661.062C1210.04 659.779 1210.04 657.697 1211.33 656.414L1274.74 593" stroke="url(#paint14_linear_1208_496)" stroke-width="32.8689" stroke-linecap="round"/>
<path d="M1337.32 724.476L1400.74 661.062C1402.02 659.779 1402.02 657.697 1400.74 656.414L1337.32 593" stroke="url(#paint15_linear_1208_496)" stroke-width="32.8689" stroke-linecap="round"/>
<path d="M1403.06 658.738L1337.32 593" stroke="url(#paint16_linear_1208_496)" stroke-width="32.8689" stroke-linecap="round"/>
<path d="M1549.21 724.476L1485.79 661.062C1484.51 659.779 1484.51 657.697 1485.79 656.414L1549.21 593" stroke="url(#paint17_linear_1208_496)" stroke-width="32.8689" stroke-linecap="round"/>
<path d="M1403.06 526.899L1339.65 463.485C1338.36 462.201 1338.36 460.12 1339.65 458.837L1403.06 395.423" stroke="url(#paint18_linear_1208_496)" stroke-width="32.8689" stroke-linecap="round"/>
<path d="M1465.65 526.899L1529.06 463.485C1530.34 462.201 1530.34 460.12 1529.06 458.837L1465.65 395.423" stroke="url(#paint19_linear_1208_496)" stroke-width="32.8689" stroke-linecap="round"/>
<path d="M1531.38 461.161L1465.65 395.423" stroke="url(#paint20_linear_1208_496)" stroke-width="32.8689" stroke-linecap="round"/>
<path d="M1549.21 329.321L1485.79 265.908C1484.51 264.624 1484.51 262.543 1485.79 261.259L1549.21 197.846" stroke="url(#paint21_linear_1208_496)" stroke-width="32.8689" stroke-linecap="round"/>
</g>
<defs>
<linearGradient id="paint0_linear_1208_496" x1="449.131" y1="32.0002" x2="449.131" y2="163.476" gradientUnits="userSpaceOnUse">
<stop stop-color="#1A8DBA"/>
<stop offset="1" stop-color="#17DEBD"/>
</linearGradient>
<linearGradient id="paint1_linear_1208_496" x1="320.807" y1="32.0002" x2="320.807" y2="163.476" gradientUnits="userSpaceOnUse">
<stop stop-color="#F48E1C"/>
<stop offset="1" stop-color="#BF2C43"/>
</linearGradient>
<linearGradient id="paint2_linear_1208_496" x1="266.808" y1="48.4349" x2="320.807" y2="163.476" gradientUnits="userSpaceOnUse">
<stop stop-color="#F48E1C"/>
<stop offset="1" stop-color="#BF2C43"/>
</linearGradient>
<linearGradient id="paint3_linear_1208_496" x1="174.661" y1="32.0002" x2="174.661" y2="163.476" gradientUnits="userSpaceOnUse">
<stop stop-color="#1A8DBA"/>
<stop offset="1" stop-color="#17DEBD"/>
</linearGradient>
<linearGradient id="paint4_linear_1208_496" x1="46.3377" y1="32.0002" x2="46.3377" y2="163.476" gradientUnits="userSpaceOnUse">
<stop stop-color="#F48E1C"/>
<stop offset="1" stop-color="#BF2C43"/>
</linearGradient>
<linearGradient id="paint5_linear_1208_496" x1="-7.66128" y1="48.4349" x2="46.3377" y2="163.476" gradientUnits="userSpaceOnUse">
<stop stop-color="#F48E1C"/>
<stop offset="1" stop-color="#BF2C43"/>
</linearGradient>
<linearGradient id="paint6_linear_1208_496" x1="28.5158" y1="229.577" x2="28.5158" y2="361.053" gradientUnits="userSpaceOnUse">
<stop stop-color="#1A8DBA"/>
<stop offset="1" stop-color="#17DEBD"/>
</linearGradient>
<linearGradient id="paint7_linear_1208_496" x1="320.808" y1="229.577" x2="320.808" y2="361.053" gradientUnits="userSpaceOnUse">
<stop stop-color="#1A8DBA"/>
<stop offset="1" stop-color="#17DEBD"/>
</linearGradient>
<linearGradient id="paint8_linear_1208_496" x1="192.484" y1="229.577" x2="192.484" y2="361.053" gradientUnits="userSpaceOnUse">
<stop stop-color="#F48E1C"/>
<stop offset="1" stop-color="#BF2C43"/>
</linearGradient>
<linearGradient id="paint9_linear_1208_496" x1="138.485" y1="246.012" x2="192.484" y2="361.053" gradientUnits="userSpaceOnUse">
<stop stop-color="#F48E1C"/>
<stop offset="1" stop-color="#BF2C43"/>
</linearGradient>
<linearGradient id="paint10_linear_1208_496" x1="174.661" y1="427.155" x2="174.661" y2="558.631" gradientUnits="userSpaceOnUse">
<stop stop-color="#1A8DBA"/>
<stop offset="1" stop-color="#17DEBD"/>
</linearGradient>
<linearGradient id="paint11_linear_1208_496" x1="46.3377" y1="427.155" x2="46.3377" y2="558.63" gradientUnits="userSpaceOnUse">
<stop stop-color="#F48E1C"/>
<stop offset="1" stop-color="#BF2C43"/>
</linearGradient>
<linearGradient id="paint12_linear_1208_496" x1="-7.66128" y1="443.589" x2="46.3377" y2="558.63" gradientUnits="userSpaceOnUse">
<stop stop-color="#F48E1C"/>
<stop offset="1" stop-color="#BF2C43"/>
</linearGradient>
<linearGradient id="paint13_linear_1208_496" x1="28.1926" y1="625" x2="28.1926" y2="756.476" gradientUnits="userSpaceOnUse">
<stop stop-color="#1A8DBA"/>
<stop offset="1" stop-color="#17DEBD"/>
</linearGradient>
<linearGradient id="paint14_linear_1208_496" x1="1241.87" y1="724.476" x2="1241.87" y2="593" gradientUnits="userSpaceOnUse">
<stop stop-color="#1A8DBA"/>
<stop offset="1" stop-color="#17DEBD"/>
</linearGradient>
<linearGradient id="paint15_linear_1208_496" x1="1370.19" y1="724.476" x2="1370.19" y2="593" gradientUnits="userSpaceOnUse">
<stop stop-color="#F48E1C"/>
<stop offset="1" stop-color="#BF2C43"/>
</linearGradient>
<linearGradient id="paint16_linear_1208_496" x1="1424.19" y1="708.041" x2="1370.19" y2="593" gradientUnits="userSpaceOnUse">
<stop stop-color="#F48E1C"/>
<stop offset="1" stop-color="#BF2C43"/>
</linearGradient>
<linearGradient id="paint17_linear_1208_496" x1="1516.34" y1="724.476" x2="1516.34" y2="593" gradientUnits="userSpaceOnUse">
<stop stop-color="#1A8DBA"/>
<stop offset="1" stop-color="#17DEBD"/>
</linearGradient>
<linearGradient id="paint18_linear_1208_496" x1="1370.19" y1="526.899" x2="1370.19" y2="395.423" gradientUnits="userSpaceOnUse">
<stop stop-color="#1A8DBA"/>
<stop offset="1" stop-color="#17DEBD"/>
</linearGradient>
<linearGradient id="paint19_linear_1208_496" x1="1498.52" y1="526.899" x2="1498.52" y2="395.423" gradientUnits="userSpaceOnUse">
<stop stop-color="#F48E1C"/>
<stop offset="1" stop-color="#BF2C43"/>
</linearGradient>
<linearGradient id="paint20_linear_1208_496" x1="1552.51" y1="510.464" x2="1498.52" y2="395.423" gradientUnits="userSpaceOnUse">
<stop stop-color="#F48E1C"/>
<stop offset="1" stop-color="#BF2C43"/>
</linearGradient>
<linearGradient id="paint21_linear_1208_496" x1="1516.34" y1="329.321" x2="1516.34" y2="197.846" gradientUnits="userSpaceOnUse">
<stop stop-color="#1A8DBA"/>
<stop offset="1" stop-color="#17DEBD"/>
</linearGradient>
</defs>
</svg>
