<svg width="50" height="50" viewBox="0 0 50 50" fill="none" xmlns="http://www.w3.org/2000/svg">
<circle cx="25" cy="25" r="25" fill="#E5E5E5"/>
<path d="M31.7484 28.7722L31.2531 28.7768V29.2722V33.6203C31.2531 34.1374 31.4584 34.6332 31.824 34.9988C32.1896 35.3644 32.6854 35.5697 33.2024 35.5697H37.5506C37.8024 35.5697 38.0439 35.6698 38.2219 35.8478C38.4 36.0259 38.5 36.2673 38.5 36.5191C38.5 36.7709 38.4 37.0124 38.2219 37.1904C38.0439 37.3685 37.8024 37.4685 37.5506 37.4685H33.2024C32.1818 37.4685 31.2031 37.0631 30.4814 36.3414C29.7597 35.6197 29.3543 34.6409 29.3543 33.6203V29.2722V28.7722H28.8543H25.9555H25.4555V29.2722V36.5191C25.4555 36.7709 25.3555 37.0124 25.1774 37.1904C24.9994 37.3685 24.7579 37.4685 24.5061 37.4685C24.2543 37.4685 24.0128 37.3685 23.8348 37.1904C23.6567 37.0124 23.5567 36.7709 23.5567 36.5191V29.2722V28.7722H23.0567H20.1579H19.6579V29.2722V33.6203C19.6579 34.6409 19.2525 35.6197 18.5308 36.3414C17.8092 37.0631 16.8304 37.4685 15.8098 37.4685H11.4616C11.2098 37.4685 10.9683 37.3685 10.7903 37.1904L10.4372 37.5436L10.7903 37.1904C10.6123 37.0124 10.5122 36.7709 10.5122 36.5191C10.5122 36.2673 10.6123 36.0259 10.7903 35.8478C10.9683 35.6698 11.2098 35.5697 11.4616 35.5697H15.8098C16.3268 35.5697 16.8226 35.3644 17.1882 34.9988C17.5538 34.6332 17.7592 34.1374 17.7592 33.6203V29.2722V28.7722H17.2592L15.8098 28.7722L15.8087 28.7722C14.5103 28.7749 13.2562 28.3007 12.2844 27.4397C11.3126 26.5786 10.6908 25.3906 10.5372 24.1013C10.3836 22.8121 10.7088 21.5113 11.4511 20.446C12.1934 19.3807 13.3011 18.6251 14.5638 18.3228L14.8987 18.2425L14.9432 17.901C15.2154 15.8088 16.1662 13.8635 17.6498 12.3632C19.1334 10.863 21.068 9.89065 23.1571 9.59511C25.2463 9.29957 27.3747 9.69717 29.2162 10.727C31.0577 11.7568 32.5108 13.362 33.3527 15.2967L33.4446 15.5077L33.6646 15.5752C35.2045 16.0475 36.5246 17.0551 37.3864 18.416C38.2481 19.7768 38.5946 21.401 38.3631 22.995C38.1317 24.589 37.3376 26.0476 36.1244 27.1072C34.9113 28.1667 33.3591 28.7573 31.7484 28.7722ZM16.7592 19.1254V19.1265C16.7592 19.3783 16.6591 19.6197 16.4811 19.7978C16.3031 19.9758 16.0616 20.0758 15.8098 20.0758C14.9084 20.0758 14.0439 20.4339 13.4065 21.0713C12.7691 21.7087 12.411 22.5732 12.411 23.4746C12.411 24.376 12.7691 25.2405 13.4065 25.8779C14.0439 26.5153 14.9084 26.8734 15.8098 26.8734H31.7531C33.0389 26.8734 34.272 26.3626 35.1812 25.4534C36.0904 24.5442 36.6012 23.3111 36.6012 22.0252L36.6012 22.0225C36.595 20.8842 36.1884 19.7843 35.4527 18.9156C34.717 18.0469 33.699 17.4648 32.5772 17.2713L32.5767 17.2712C32.4072 17.2422 32.2488 17.1677 32.1184 17.0556C31.988 16.9436 31.8904 16.7983 31.8362 16.6351L31.8362 16.6351L31.8347 16.6309C31.2407 14.8973 30.0514 13.4305 28.4781 12.4909C26.9048 11.5514 25.0493 11.1999 23.2414 11.4991C21.4335 11.7982 19.7902 12.7286 18.6034 14.1249C17.4166 15.5211 16.7631 17.2929 16.7592 19.1254Z" fill="black" stroke="#E5E5E5"/>
</svg>
