<svg width="45" height="45" viewBox="0 0 45 45" fill="none" xmlns="http://www.w3.org/2000/svg">
<circle cx="22.5" cy="22.5" r="22.5" fill="#252423"/>
<path d="M28.5731 25.8451L28.0778 25.8497V26.3451V30.2584C28.0778 30.737 28.2679 31.1959 28.6063 31.5343C28.9447 31.8728 29.4036 32.0629 29.8822 32.0629H33.7956C34.0089 32.0629 34.2135 32.1476 34.3644 32.2985C34.5152 32.4493 34.6 32.654 34.6 32.8673C34.6 33.0807 34.5152 33.2853 34.3644 33.4361C34.2135 33.587 34.0089 33.6718 33.7956 33.6718H29.8822C28.9769 33.6718 28.1087 33.3121 27.4686 32.672C26.8285 32.0319 26.4689 31.1637 26.4689 30.2584V26.3451V25.8451H25.9689H23.36H22.86V26.3451V32.8673C22.86 33.0807 22.7752 33.2853 22.6243 33.4361C22.4735 33.587 22.2689 33.6718 22.0555 33.6718C21.8421 33.6718 21.6375 33.587 21.4867 33.4361C21.3358 33.2853 21.2511 33.0807 21.2511 32.8673V26.3451V25.8451H20.7511H18.1422H17.6422V26.3451V30.2584C17.6422 31.1637 17.2825 32.0319 16.6424 32.672C16.0023 33.3121 15.1341 33.6718 14.2288 33.6718H10.3155C10.1021 33.6718 9.89748 33.587 9.74662 33.4361L9.39407 33.7887L9.74662 33.4361C9.59576 33.2853 9.511 33.0807 9.511 32.8673C9.511 32.654 9.59576 32.4493 9.74662 32.2985L9.39407 31.9459L9.74662 32.2985C9.89748 32.1476 10.1021 32.0629 10.3155 32.0629H14.2288C14.7074 32.0629 15.1663 31.8727 15.5047 31.5343C15.8431 31.1959 16.0333 30.737 16.0333 30.2584V26.3451V25.8451H15.5333L14.2288 25.8451L14.2277 25.8451C13.0715 25.8475 11.9545 25.4252 11.0891 24.6584C10.2236 23.8915 9.66993 22.8336 9.53314 21.6854C9.39635 20.5372 9.68599 19.3788 10.3471 18.4301C11.0081 17.4814 11.9946 16.8085 13.1191 16.5392L13.454 16.459L13.4984 16.1175C13.7421 14.2453 14.5928 12.5046 15.9204 11.1622C17.248 9.81976 18.9791 8.94966 20.8484 8.6852C22.7178 8.42075 24.6223 8.77653 26.2702 9.69803C27.918 10.6195 29.2182 12.0559 29.9716 13.7871L30.0634 13.9981L30.2835 14.0656C31.658 14.4871 32.8363 15.3865 33.6055 16.6012C34.3747 17.8159 34.6839 19.2656 34.4773 20.6884C34.2707 22.1112 33.562 23.4132 32.4791 24.3589C31.3963 25.3047 30.0108 25.8318 28.5731 25.8451ZM15.0333 17.2128V17.2139C15.0333 17.4273 14.9485 17.6319 14.7976 17.7827C14.6468 17.9336 14.4422 18.0184 14.2288 18.0184C13.4043 18.0184 12.6135 18.3459 12.0305 18.9289C11.4474 19.512 11.1199 20.3027 11.1199 21.1273C11.1199 21.9518 11.4474 22.7426 12.0305 23.3256C12.6135 23.9086 13.4043 24.2362 14.2288 24.2362H28.5778C29.7482 24.2362 30.8708 23.7712 31.6985 22.9435C32.5261 22.1159 32.9911 20.9933 32.9911 19.8228L32.9911 19.8201C32.9854 18.7838 32.6153 17.7826 31.9456 16.9918C31.2759 16.201 30.3492 15.6712 29.328 15.495L29.3275 15.4949C29.1839 15.4703 29.0497 15.4072 28.9391 15.3122C28.8286 15.2173 28.746 15.0942 28.7 14.9559L28.7 14.9559L28.6985 14.9517C28.1601 13.3803 27.082 12.0507 25.6559 11.199C24.2298 10.3473 22.5479 10.0288 20.9091 10.3C19.2703 10.5711 17.7807 11.4144 16.7049 12.6801C15.6291 13.9457 15.0368 15.5518 15.0333 17.2128ZM9.39307 31.9449C9.14844 32.1896 9.011 32.5213 9.011 32.8673C9.011 33.2133 9.14844 33.5451 9.39307 33.7897C9.6377 34.0343 9.96949 34.1718 10.3155 34.1718H14.2288C15.2667 34.1718 16.2621 33.7595 16.996 33.0256C17.7299 32.2917 18.1422 31.2963 18.1422 30.2584V26.8451V26.3451L9.39307 31.9449Z" fill="#A0A0A0" stroke="#A0A0A0"/>
</svg>
