<svg width="22" height="17" viewBox="0 0 22 17" fill="none" xmlns="http://www.w3.org/2000/svg">
<path d="M19.3272 6.76014C18.5514 6.76014 17.8866 7.29213 17.6649 8.0013H15.2712V5.98431C15.2712 4.76524 14.2738 3.79001 13.0768 3.79001L12.9883 3.79017V2.26079H15.4929C15.7146 2.97013 16.3573 3.50195 17.1552 3.50195C18.1082 3.50195 18.9061 2.72612 18.9061 1.75105C18.9061 0.798069 18.1303 0.000154606 17.1552 0.000154606C16.3794 0.000154606 15.7146 0.532137 15.4929 1.24131L12.4784 1.24116C12.1902 1.24116 11.9686 1.46287 11.9686 1.7509V3.79001L9.15372 3.79017V1.75105C9.15372 1.46287 8.93201 1.24131 8.64398 1.24131L5.58527 1.24116C5.36356 0.531824 4.72086 0 3.92295 0C2.96997 0 2.17205 0.775829 2.17205 1.7509C2.17205 2.70388 2.94788 3.5018 3.92295 3.5018C4.69878 3.5018 5.36355 2.96982 5.58527 2.26064H8.112V3.79001H8.00115C6.78207 3.79001 5.80684 4.78736 5.80684 5.98431V8.0013H3.41322C3.19151 7.29197 2.54881 6.76014 1.7509 6.76014C0.797914 6.76014 0 7.53597 0 8.51104C0 9.46403 0.775829 10.2399 1.7509 10.2399C2.52673 10.2399 3.1915 9.73012 3.41322 9.02078H5.80696V11.0378C5.80696 12.2568 6.80432 13.2321 8.00127 13.2321H8.11212V14.7614H5.58523C5.36353 14.0521 4.72082 13.5203 3.92291 13.5203C2.96993 13.5203 2.17201 14.2961 2.17201 15.2712C2.17201 16.2242 2.94784 17 3.92291 17C4.69874 17 5.36351 16.468 5.58523 15.7809H8.6217C8.90988 15.7809 9.13144 15.5592 9.13144 15.2712V13.2321H11.9685V15.2712C11.9685 15.5594 12.1902 15.7809 12.4782 15.7809H15.4925C15.7143 16.4903 16.357 17 17.1549 17C18.1079 17 18.9058 16.2242 18.9058 15.2712C18.9058 14.3182 18.1299 13.5203 17.1549 13.5203C16.379 13.5203 15.7143 14.0523 15.4925 14.7614H12.9883V13.2321H13.0768C14.2959 13.2321 15.2712 12.2347 15.2712 11.0378V9.02078H17.687C17.9087 9.73012 18.5514 10.2399 19.3493 10.2399C20.3023 10.2399 21.1002 9.46403 21.1002 8.51104C21.0781 7.53593 20.3023 6.76014 19.3272 6.76014ZM17.155 0.997432C17.5539 0.997432 17.8864 1.32983 17.8864 1.72885C17.8864 2.12773 17.554 2.46027 17.155 2.46027C16.7561 2.46027 16.4236 2.12787 16.4236 1.72885C16.4458 1.32998 16.7561 0.997432 17.155 0.997432ZM3.92292 2.43819C3.52405 2.43819 3.1915 2.10579 3.1915 1.70677C3.1915 1.30789 3.5239 0.975347 3.92292 0.975347C4.3218 0.975347 4.65434 1.30775 4.65434 1.70677C4.65434 2.12793 4.32194 2.43819 3.92292 2.43819ZM1.77299 9.22046C1.37411 9.22046 1.04157 8.91017 1.04157 8.51112C1.04157 8.11224 1.37397 7.7797 1.77299 7.7797C2.17187 7.7797 2.48232 8.1121 2.48232 8.51112C2.48232 8.88789 2.14992 9.22046 1.77299 9.22046ZM3.92292 15.9806C3.52405 15.9806 3.1915 15.6482 3.1915 15.2712C3.1915 14.8723 3.5239 14.5398 3.92292 14.5398C4.3218 14.5398 4.65434 14.8722 4.65434 15.2712C4.65434 15.648 4.32194 15.9806 3.92292 15.9806ZM17.155 14.5398C17.5539 14.5398 17.8864 14.8722 17.8864 15.2712C17.8864 15.6701 17.554 15.9806 17.155 15.9806C16.7561 15.9806 16.4236 15.6482 16.4236 15.2712C16.4458 14.8723 16.7561 14.5398 17.155 14.5398ZM14.2515 11.0157C14.2515 11.6807 13.7195 12.2125 13.0547 12.2125H8.02343C7.35847 12.2125 6.82664 11.6805 6.82664 11.0157V5.96227C6.82664 5.2973 7.35862 4.76548 8.02343 4.76548H13.0769C13.7419 4.76548 14.2737 5.29746 14.2737 5.96227V11.0157H14.2515ZM19.3271 9.22046C18.9283 9.22046 18.5957 8.91017 18.5957 8.51112C18.5957 8.11224 18.9281 7.7797 19.3271 7.7797C19.726 7.7797 20.0586 8.1121 20.0586 8.51112C20.0584 8.88789 19.726 9.22046 19.3271 9.22046Z" fill="#FF4D68"/>
<path d="M12.2987 6.22803H8.79685C8.50866 6.22803 8.28711 6.44973 8.28711 6.73777V10.2618C8.28711 10.55 8.50882 10.7716 8.79685 10.7716H12.3209C12.6091 10.7716 12.8307 10.5499 12.8307 10.2618V6.73792C12.8086 6.44974 12.5869 6.22803 12.2987 6.22803ZM11.7889 9.72998H9.28434V7.24762H11.7889V9.72998Z" fill="#FF4D68"/>
</svg>
