<svg width="1512" height="645" viewBox="0 0 1512 645" fill="none" xmlns="http://www.w3.org/2000/svg">
<path opacity="0.05" fill-rule="evenodd" clip-rule="evenodd" d="M44.2911 65.6062C38.9973 69.5697 33.7311 77.3523 31.7698 84.1114C30.7272 87.7018 30.0495 91.0015 30.2625 91.4424C30.476 91.8841 29.109 92.9899 27.2254 93.9001C21.9304 96.4592 16.893 103.723 16.0335 110.036C14.7528 119.46 18.3822 127.136 26.5011 132.171C33.1022 136.265 38.5178 136.515 47.0334 133.121L54.0516 130.324L56.4585 134.156C58.2956 137.079 59.447 137.965 61.3203 137.896C63.2407 137.825 64.1319 138.543 65.4116 141.19L67.0478 144.576L58.0757 148.912C50.2452 152.696 48.887 153.09 47.3958 152.006C46.4571 151.323 44.2608 150.846 42.5167 150.947C39.9075 151.098 38.9882 151.606 37.331 153.815C34.1267 158.087 35.2085 162.212 40.1691 164.63C44.2407 166.616 48.9462 164.432 49.8959 160.116C50.5369 157.207 51.1072 156.776 61.1459 151.627L71.721 146.202L69.7101 141.347C68.0121 137.248 67.9729 136.36 69.4531 135.645C71.0233 134.886 71.524 135.453 74.2333 141.059L77.2593 147.32L69.9578 151.172L62.6558 155.023L63.9766 158.459C64.9053 160.874 64.8519 162.639 63.7938 164.4C62.6331 166.333 62.6686 167.689 63.9513 170.343C65.9533 174.485 69.613 175.892 73.4998 174.014C79.5359 171.096 78.5929 162.602 72.0097 160.588C65.9124 158.723 66.4557 157.071 74.4356 153.214C82.7658 149.188 82.7087 149.403 78.0339 139.731L74.8084 133.056L77.9597 131.533L81.111 130.01L85.0092 138.076C88.3664 145.023 88.7351 146.379 87.6635 147.85C86.9798 148.789 86.5015 150.984 86.601 152.728C86.7507 155.336 87.2591 156.254 89.4673 157.909C93.7396 161.11 97.8673 160.026 100.29 155.067C102.288 150.977 100.097 146.293 95.7376 145.338C92.8303 144.699 92.3775 144.13 88.672 136.463L84.7125 128.27L87.8286 126.764L90.9448 125.258L95.0097 133.005L99.0746 140.752L106.629 137.423C113.265 134.5 114.281 134.296 114.985 135.754C115.426 136.667 115.116 138.532 114.295 139.897C109.938 147.152 120.016 154.613 125.846 148.449C129.623 144.456 127.931 138.259 122.609 136.592C120.81 136.028 118.967 134.8 118.515 133.865C116.443 129.578 114.526 129.399 107.425 132.831L100.704 136.08L97.6603 129.782C95.2444 124.783 94.8956 123.349 95.9671 122.831C96.9151 122.373 97.7798 123.135 98.8682 125.387C101.921 131.703 102.76 131.757 113.959 126.344C123.463 121.751 124.109 121.575 127.127 122.755C133.521 125.257 139.179 119.168 136.195 112.995C133.25 106.9 124.739 107.928 122.962 114.593C122.093 117.855 121.694 118.167 113.01 122.363L103.963 126.736L102.523 123.756C101.427 121.488 101.498 119.987 102.819 117.475C104.242 114.772 104.244 113.528 102.83 110.602L101.103 107.03L108.351 103.527C116.256 99.7073 118.538 97.4098 120.366 91.4379C122.047 85.9428 121.855 83.3231 119.399 78.2397C115.104 69.354 105.97 65.4579 96.6394 68.5332C92.5437 69.8832 91.7169 69.7834 89.3037 67.6467C76.6873 56.479 57.6331 55.6155 44.2911 65.6062ZM62.6077 62.5099C70.7008 61.7095 81.8831 65.596 87.4877 71.1581L91.4371 75.0762L95.5004 73.1124C107.713 67.2103 120.593 77.2653 117.071 89.9538C115.631 95.1437 111.759 98.7907 104.411 101.879L99.1439 104.093L92.9238 90.7071C84.4154 72.3987 86.8572 72.8501 61.8063 84.9568C45.4835 92.8453 41.9753 94.8316 40.869 96.8102C39.583 99.1087 39.7645 99.6381 46.3128 112.769L53.0866 126.351L49.5097 128.418C44.2073 131.482 38.1855 132.256 32.528 130.604C16.7019 125.982 14.923 104.293 29.7804 97.1071C33.761 95.1811 33.9444 94.8827 34.529 89.4093C36.0229 75.4067 47.975 63.958 62.6077 62.5099ZM85.5443 84.0283L87.9359 88.9768L68.1278 98.5497L48.3198 108.123L45.9282 103.174L43.5367 98.2257L63.3448 88.6527L83.1528 79.0798L85.5443 84.0283ZM48.6293 101.869C49.1711 102.99 51.0319 102.372 59.6358 98.2143C68.2397 94.0562 69.8796 92.9817 69.3378 91.8607C68.796 90.7396 66.9352 91.357 58.3313 95.5151C49.7274 99.6732 48.0876 100.748 48.6293 101.869ZM72.0389 90.5553C72.4011 91.3047 73.4915 91.518 74.4918 91.0346C75.4922 90.5512 76.0025 89.5642 75.6403 88.8147C75.2781 88.0653 74.1877 87.852 73.1874 88.3354C72.1871 88.8189 71.6767 89.8058 72.0389 90.5553ZM79.2418 87.0742C79.6005 87.8165 80.5018 88.1301 81.2446 87.7711C81.9874 87.4121 82.3016 86.5111 81.9429 85.7688C81.5842 85.0266 80.6829 84.713 79.9401 85.0719C79.1973 85.4309 78.8831 86.3319 79.2418 87.0742ZM91.7797 97.3853L93.7906 102.24L74.325 111.947L54.859 121.654L52.4593 116.688L50.059 111.721L69.9139 102.126L89.7697 92.53L91.7797 97.3853ZM54.9692 113.383C54.7904 113.895 54.9051 114.854 55.2243 115.515C55.6739 116.445 58.1413 115.585 66.2238 111.678C75.6633 107.116 76.5441 106.508 75.5812 105.214C74.6631 103.978 73.2155 104.373 64.9071 108.117C59.6203 110.5 55.1489 112.87 54.9692 113.383ZM78.3745 102.084C77.7148 103.973 79.2792 105.369 81.0799 104.499C82.3386 103.89 82.6157 103.154 81.9307 102.237C80.8087 100.736 78.8726 100.653 78.3745 102.084ZM85.5467 100.12C86.0298 101.12 87.0169 101.629 87.7669 101.267C88.5169 100.904 88.7309 99.8144 88.2478 98.8148C87.7647 97.8152 86.7776 97.3056 86.0276 97.6681C85.2776 98.0305 85.0636 99.1206 85.5467 100.12ZM98.302 110.881L100.313 115.736L80.8474 125.443L61.3814 135.149L58.9816 130.184L56.5814 125.217L76.4362 115.622L96.292 106.026L98.302 110.881ZM61.4915 126.879C61.3127 127.391 61.4274 128.35 61.7466 129.011C62.1962 129.941 64.6636 129.08 72.7462 125.174C82.1856 120.612 83.0664 120.003 82.1035 118.71C81.1854 117.474 79.7378 117.869 71.4294 121.613C66.1426 123.996 61.6712 126.366 61.4915 126.879ZM84.887 115.607C84.2455 117.445 85.8015 118.865 87.5365 118.026C88.7367 117.446 89.0472 116.556 88.4676 115.357C87.6297 113.623 85.5272 113.77 84.887 115.607ZM92.069 113.616C92.5521 114.616 93.5392 115.125 94.2892 114.763C95.0392 114.4 95.2532 113.31 94.7701 112.311C94.287 111.311 93.2999 110.801 92.5499 111.164C91.7999 111.526 91.5859 112.616 92.069 113.616ZM44.2643 154.979C47.2299 156.33 47.2201 159.153 44.2444 160.591C42.3843 161.49 41.2348 161.437 40.4743 160.417C39.2203 158.735 39.7506 155.549 41.4181 154.743C42.0393 154.443 43.32 154.548 44.2643 154.979ZM131.808 113.199C134.254 114.978 134.255 117.645 131.811 118.826C128.873 120.246 126.346 118.877 126.469 115.93C126.591 112.988 129.485 111.508 131.808 113.199ZM96.2506 150.995C97.3363 153.242 97.194 153.869 95.4023 154.735C92.5202 156.128 89.7343 154.394 90.4176 151.635C90.6979 150.502 91.8316 149.289 92.9366 148.937C94.4637 148.449 95.2592 148.944 96.2506 150.995ZM72.2846 164.726C74.5662 165.766 74.4131 169.873 72.0506 171.015C69.688 172.157 66.3747 169.725 66.9779 167.291C67.225 166.295 68.138 165.137 69.0068 164.717C69.8757 164.297 71.3505 164.301 72.2846 164.726ZM123.331 141.974C124.402 143.661 124.359 144.624 123.162 145.755C121.292 147.522 118.223 147.049 117.149 144.829C116.094 142.644 116.711 141.511 119.483 140.549C121.299 139.918 122.25 140.27 123.331 141.974Z" fill="white"/>
<path opacity="0.05" fill-rule="evenodd" clip-rule="evenodd" d="M1468.06 53.6062C1473.35 57.5697 1478.62 65.3523 1480.58 72.1114C1481.62 75.7018 1482.3 79.0015 1482.09 79.4424C1481.87 79.8841 1483.24 80.9899 1485.12 81.9001C1490.42 84.4592 1495.45 91.7227 1496.31 98.0359C1497.59 107.46 1493.97 115.136 1485.85 120.171C1479.25 124.265 1473.83 124.515 1465.31 121.121L1458.3 118.324L1455.89 122.156C1454.05 125.079 1452.9 125.965 1451.03 125.896C1449.11 125.825 1448.22 126.543 1446.94 129.19L1445.3 132.576L1454.27 136.912C1462.1 140.696 1463.46 141.09 1464.95 140.006C1465.89 139.323 1468.09 138.846 1469.83 138.947C1472.44 139.098 1473.36 139.606 1475.02 141.815C1478.22 146.087 1477.14 150.212 1472.18 152.63C1468.11 154.616 1463.4 152.432 1462.45 148.116C1461.81 145.207 1461.24 144.776 1451.2 139.627L1440.63 134.202L1442.64 129.347C1444.34 125.248 1444.37 124.36 1442.89 123.645C1441.32 122.886 1440.82 123.453 1438.11 129.059L1435.09 135.32L1442.39 139.172L1449.69 143.023L1448.37 146.459C1447.44 148.874 1447.5 150.639 1448.55 152.4C1449.71 154.333 1449.68 155.689 1448.4 158.343C1446.39 162.485 1442.73 163.892 1438.85 162.014C1432.81 159.096 1433.75 150.602 1440.34 148.588C1446.44 146.723 1445.89 145.071 1437.91 141.214C1429.58 137.188 1429.64 137.403 1434.31 127.731L1437.54 121.056L1434.39 119.533L1431.24 118.01L1427.34 126.076C1423.98 133.023 1423.61 134.379 1424.68 135.85C1425.37 136.789 1425.85 138.984 1425.75 140.728C1425.6 143.336 1425.09 144.254 1422.88 145.909C1418.61 149.11 1414.48 148.026 1412.06 143.067C1410.06 138.977 1412.25 134.293 1416.61 133.338C1419.52 132.699 1419.97 132.13 1423.68 124.463L1427.64 116.27L1424.52 114.764L1421.4 113.258L1417.34 121.005L1413.27 128.752L1405.72 125.423C1399.08 122.5 1398.07 122.296 1397.36 123.754C1396.92 124.667 1397.23 126.532 1398.05 127.897C1402.41 135.152 1392.33 142.613 1386.5 136.449C1382.72 132.456 1384.42 126.259 1389.74 124.592C1391.54 124.028 1393.38 122.8 1393.83 121.865C1395.9 117.578 1397.82 117.399 1404.92 120.831L1411.64 124.08L1414.69 117.782C1417.1 112.783 1417.45 111.349 1416.38 110.831C1415.43 110.373 1414.57 111.135 1413.48 113.387C1410.43 119.703 1409.59 119.757 1398.39 114.344C1388.88 109.751 1388.24 109.575 1385.22 110.755C1378.83 113.257 1373.17 107.168 1376.15 100.995C1379.1 94.9003 1387.61 95.928 1389.39 102.593C1390.25 105.855 1390.65 106.167 1399.34 110.363L1408.38 114.736L1409.82 111.756C1410.92 109.488 1410.85 107.987 1409.53 105.475C1408.11 102.772 1408.1 101.528 1409.52 98.602L1411.24 95.0301L1404 91.5273C1396.09 87.7073 1393.81 85.4098 1391.98 79.4379C1390.3 73.9428 1390.49 71.3231 1392.95 66.2397C1397.24 57.354 1406.38 53.4579 1415.71 56.5332C1419.8 57.8832 1420.63 57.7834 1423.04 55.6467C1435.66 44.479 1454.71 43.6155 1468.06 53.6062ZM1449.74 50.5099C1441.65 49.7095 1430.46 53.596 1424.86 59.1581L1420.91 63.0762L1416.85 61.1124C1404.63 55.2103 1391.76 65.2653 1395.28 77.9538C1396.72 83.1437 1400.59 86.7907 1407.94 89.8792L1413.2 92.0926L1419.42 78.7071C1427.93 60.3987 1425.49 60.8501 1450.54 72.9568C1466.86 80.8453 1470.37 82.8316 1471.48 84.8102C1472.76 87.1087 1472.58 87.6381 1466.03 100.769L1459.26 114.351L1462.84 116.418C1468.14 119.482 1474.16 120.256 1479.82 118.604C1495.65 113.982 1497.42 92.293 1482.57 85.1071C1478.59 83.1811 1478.4 82.8827 1477.82 77.4093C1476.32 63.4067 1464.37 51.958 1449.74 50.5099ZM1426.8 72.0283L1424.41 76.9768L1444.22 86.5497L1464.03 96.1226L1466.42 91.1741L1468.81 86.2257L1449 76.6527L1429.19 67.0798L1426.8 72.0283ZM1463.72 89.8687C1463.18 90.9898 1461.32 90.3724 1452.71 86.2143C1444.11 82.0562 1442.47 80.9817 1443.01 79.8607C1443.55 78.7396 1445.41 79.357 1454.02 83.5151C1462.62 87.6732 1464.26 88.7477 1463.72 89.8687ZM1440.31 78.5553C1439.95 79.3047 1438.86 79.518 1437.86 79.0346C1436.86 78.5512 1436.35 77.5642 1436.71 76.8147C1437.07 76.0653 1438.16 75.852 1439.16 76.3354C1440.16 76.8189 1440.67 77.8058 1440.31 78.5553ZM1433.11 75.0742C1432.75 75.8165 1431.85 76.1301 1431.1 75.7711C1430.36 75.4121 1430.05 74.5111 1430.4 73.7688C1430.76 73.0266 1431.66 72.713 1432.41 73.0719C1433.15 73.4309 1433.46 74.3319 1433.11 75.0742ZM1420.57 85.3853L1418.56 90.2403L1438.02 99.9474L1457.49 109.654L1459.89 104.688L1462.29 99.7215L1442.43 90.1259L1422.58 80.53L1420.57 85.3853ZM1457.38 101.383C1457.56 101.895 1457.44 102.854 1457.12 103.515C1456.67 104.445 1454.21 103.585 1446.12 99.6783C1436.68 95.1164 1435.8 94.5076 1436.77 93.2138C1437.68 91.9783 1439.13 92.3727 1447.44 96.1172C1452.73 98.5002 1457.2 100.87 1457.38 101.383ZM1433.97 90.0837C1434.63 91.9729 1433.07 93.3689 1431.27 92.4987C1430.01 91.8903 1429.73 91.1538 1430.42 90.2373C1431.54 88.7363 1433.48 88.6531 1433.97 90.0837ZM1426.8 88.1202C1426.32 89.1198 1425.33 89.6294 1424.58 89.2669C1423.83 88.9045 1423.62 87.8144 1424.1 86.8148C1424.58 85.8152 1425.57 85.3056 1426.32 85.6681C1427.07 86.0305 1427.28 87.1206 1426.8 88.1202ZM1414.05 98.8812L1412.03 103.736L1431.5 113.443L1450.97 123.149L1453.37 118.184L1455.77 113.217L1435.91 103.622L1416.06 94.0258L1414.05 98.8812ZM1450.86 114.879C1451.03 115.391 1450.92 116.35 1450.6 117.011C1450.15 117.941 1447.68 117.08 1439.6 113.174C1430.16 108.612 1429.28 108.003 1430.24 106.71C1431.16 105.474 1432.61 105.869 1440.92 109.613C1446.21 111.996 1450.68 114.366 1450.86 114.879ZM1427.46 103.607C1428.1 105.445 1426.55 106.865 1424.81 106.026C1423.61 105.446 1423.3 104.556 1423.88 103.357C1424.72 101.623 1426.82 101.77 1427.46 103.607ZM1420.28 101.616C1419.8 102.616 1418.81 103.125 1418.06 102.763C1417.31 102.4 1417.09 101.31 1417.58 100.311C1418.06 99.311 1419.05 98.8014 1419.8 99.1639C1420.55 99.5263 1420.76 100.616 1420.28 101.616ZM1468.08 142.979C1465.12 144.33 1465.13 147.153 1468.1 148.591C1469.96 149.49 1471.11 149.437 1471.87 148.417C1473.13 146.735 1472.6 143.549 1470.93 142.743C1470.31 142.443 1469.03 142.548 1468.08 142.979ZM1380.54 101.199C1378.09 102.978 1378.09 105.645 1380.54 106.826C1383.47 108.246 1386 106.877 1385.88 103.93C1385.76 100.988 1382.86 99.508 1380.54 101.199ZM1416.1 138.995C1415.01 141.242 1415.15 141.869 1416.95 142.735C1419.83 144.128 1422.61 142.394 1421.93 139.635C1421.65 138.502 1420.52 137.289 1419.41 136.937C1417.88 136.449 1417.09 136.944 1416.1 138.995ZM1440.06 152.726C1437.78 153.766 1437.93 157.873 1440.3 159.015C1442.66 160.157 1445.97 157.725 1445.37 155.291C1445.12 154.295 1444.21 153.137 1443.34 152.717C1442.47 152.297 1441 152.301 1440.06 152.726ZM1389.02 129.974C1387.95 131.661 1387.99 132.624 1389.19 133.755C1391.06 135.522 1394.13 135.049 1395.2 132.829C1396.25 130.644 1395.64 129.511 1392.86 128.549C1391.05 127.918 1390.1 128.27 1389.02 129.974Z" fill="white"/>
<path opacity="0.05" fill-rule="evenodd" clip-rule="evenodd" d="M303.253 268.321C301.97 269.113 300.664 270.095 300.351 270.503C299.587 271.5 298.295 270.409 295.997 266.822C294.28 264.143 293.767 263.877 291.012 264.24C288.257 264.603 287.831 264.992 286.87 268.024C285.331 272.881 284.892 273.184 281.399 271.803C278.661 270.72 277.932 270.917 275.733 273.339C273.402 275.905 273.357 276.374 275.131 279.465C277.299 283.241 277.317 283.181 273.303 285.751C270.766 287.375 270.395 288.007 270.588 290.369C270.824 293.244 273.672 296.178 275.54 295.47C277.971 294.546 279.476 297.273 278.248 300.379C277.167 303.116 277.365 303.845 279.789 306.046C282.37 308.389 282.817 308.428 286.012 306.596C288.908 304.936 289.666 304.92 290.781 306.499C294.076 311.161 294.757 311.588 298.042 311.051C301.226 310.529 301.412 310.345 301.986 307.123C302.78 302.675 302.679 302.742 306.909 303.861C310.137 304.715 310.837 304.489 312.765 301.974C314.693 299.46 314.73 298.725 313.067 295.829C310.889 292.035 310.85 292.149 314.939 290.228C317.902 288.837 318.032 288.61 317.708 285.399C317.375 282.087 316.785 281.541 311.427 279.569C309.618 278.903 309.431 278.169 310.267 275.003C311.147 271.669 310.933 270.979 308.424 269.055C306.109 267.28 305.157 267.145 303.253 268.321ZM305.973 275.344C305.414 276.638 305.384 278.92 305.909 280.413C306.772 282.878 307.169 283.185 310.205 283.729C314.104 284.427 314.367 285.933 310.909 287.772C307.168 289.763 306.096 293.367 308.425 296.128C310.96 299.133 309.806 300.642 305.878 299.455C301.995 298.283 299.977 299.522 298.576 303.941C297.249 308.13 296.183 308.484 294.707 305.227C292.952 301.357 289.793 300.195 286.275 302.126C282.384 304.261 280.797 303.176 282.497 299.543C284.028 296.273 282.054 293.07 277.923 292.116C274.144 291.244 273.954 289.719 277.423 288.089C281.334 286.251 282.356 282.248 279.714 279.115C278.675 277.883 278.192 276.397 278.64 275.811C279.089 275.226 280.65 275.307 282.11 275.99C285.821 277.729 289.422 275.702 290.181 271.448C290.88 267.532 292.645 267.408 293.968 271.185C295.26 274.872 299.554 275.908 302.668 273.283C305.424 270.961 307.349 272.162 305.973 275.344ZM324.354 287.742C323.689 288.172 321.674 289.772 319.877 291.296C317.263 293.512 316.774 294.332 317.43 295.4C318.639 297.371 318.782 297.395 321.004 296.014C322.831 294.879 322.86 295.197 321.286 299.05C318.7 305.378 312.934 311.395 306.623 314.349C302.445 316.305 301.367 317.183 301.771 318.304C302.5 320.328 307.892 318.868 313.186 315.213C318.469 311.567 323.845 304.615 325.568 299.198C326.277 296.971 326.919 295.055 326.996 294.942C327.073 294.828 328.029 295.419 329.121 296.255C331.407 298.008 333.434 296.308 331.77 294.032C328.441 289.478 325.512 286.992 324.354 287.742ZM292.895 278.458C289.862 278.858 288.221 279.751 286.576 281.896C281.519 288.492 287.175 298.377 295.39 297.296C300.914 296.567 304.594 291.436 303.415 286.103C302.201 280.612 298.265 277.751 292.895 278.458ZM300.143 286.882C300.265 287.807 299.517 289.67 298.48 291.022C296.068 294.169 293.884 294.424 290.641 291.937C286.748 288.953 288.473 282.817 293.386 282.17C295.993 281.827 299.827 284.501 300.143 286.882ZM262.823 263.63C261.261 263.985 260.884 264.465 260.944 266.022C261.011 267.715 260.4 267.493 256.245 264.308C247.406 257.531 232.232 253.829 220.667 255.627C217.136 256.176 216.729 256.472 217.124 258.207C217.503 259.868 218.614 260.064 224.436 259.494C232.623 258.693 242.748 260.839 250.541 265.03C258.188 269.142 258.653 269.552 256.894 270.631C256.077 271.131 255.441 272.368 255.481 273.38C255.541 274.92 256.3 275.13 260.174 274.682C262.716 274.387 265.099 273.751 265.469 273.268C265.84 272.785 265.835 270.319 265.46 267.788C264.858 263.735 264.544 263.238 262.823 263.63ZM248.012 273.42C247.154 273.628 245.351 274.738 244.004 275.886C240.508 278.868 237.864 277.431 237.813 272.52C237.775 268.842 237.595 268.578 234.569 267.768C229.627 266.444 228.141 267.101 226.698 271.245C224.868 276.5 222.694 276.775 219.668 272.135C217.455 268.741 217.336 268.688 214.064 269.692C209.705 271.029 208.876 272.254 209.549 276.355C210.413 281.615 208.636 282.928 203.596 280.752L199.289 278.892L196.735 282.716C194.21 286.495 194.215 286.579 197.045 289.789C200.43 293.628 199.573 295.658 194.349 296.181C190.128 296.604 188.718 298.334 189.012 302.732C189.224 305.906 189.487 306.224 192.954 307.492C198.114 309.379 198.281 311.197 193.607 314.573C190.496 316.819 190.183 317.331 190.709 319.308C191.89 323.752 193.981 325.37 197.975 324.931C203.511 324.322 204.7 325.781 202.425 330.389C200.512 334.263 200.516 334.277 204.054 336.99C207.529 339.654 207.673 339.658 211.252 337.157C215.525 334.17 217.48 335.029 217.994 340.122C218.404 344.188 219.796 345.417 223.988 345.414C226.89 345.411 227.225 345.136 228.722 341.524C230.861 336.368 232.977 336.107 236.184 340.606C238.731 344.181 240.111 344.41 244.353 341.96C247.021 340.419 247.132 340.089 246.271 336.233C245.148 331.204 247.162 329.536 251.625 331.797C258.2 335.126 264.21 327.077 258.447 322.658C257.409 321.863 256.685 320.315 256.838 319.221C257.058 317.657 258.078 317.088 261.61 316.558L266.102 315.885L266.75 311.866C267.378 307.974 267.276 307.777 263.513 305.633C258.69 302.885 257.94 300.704 261.138 298.729C265.028 296.328 265.627 294.655 263.941 290.91L262.318 287.307L257.805 287.82C254.255 288.222 253.122 287.936 252.502 286.483C252.07 285.466 252.267 283.914 252.941 283.035C255.275 279.99 255.026 277.224 252.223 275.075C250.764 273.956 248.869 273.212 248.012 273.42ZM248.885 282.568C247.169 285.812 247.229 286.442 249.538 289.456C251.882 292.514 252.369 292.741 255.774 292.367C259.429 291.965 261.846 292.786 260.846 294.09C260.562 294.461 259.048 295.605 257.482 296.634C254.888 298.338 254.676 298.867 255.091 302.611C255.407 305.464 256.138 306.958 257.484 307.497C263.322 309.842 263.7 310.091 262.93 311.095C262.494 311.664 260.485 312.382 258.465 312.692C255.08 313.212 254.669 313.558 253.201 317.118C251.756 320.626 251.862 321.251 254.363 323.938C257.57 327.385 256.699 329.717 252.887 327.892C248.815 325.939 247.264 326.001 244.416 328.224C242.119 330.019 241.792 330.847 242.141 334C242.818 340.121 240.652 340.797 237.37 335.488C236.147 333.509 235.272 333.195 231.739 333.459C227.703 333.761 227.509 333.904 226.249 337.523C224.313 343.083 221.884 343.037 221.622 337.434C221.425 333.216 221.393 333.174 217.403 331.853C214.046 330.743 212.894 330.909 210.424 332.86C206.93 335.619 204.898 334.667 206.588 331.063C207.244 329.661 207.958 328.056 208.175 327.496C208.391 326.935 207.52 325.006 206.239 323.209C204.02 320.095 203.703 319.966 199.43 320.461C195.635 320.901 195.025 320.72 195.449 319.284C195.725 318.351 197.107 316.828 198.52 315.9C200.816 314.393 201.015 313.759 200.396 309.923C199.796 306.202 199.331 305.51 196.904 304.709C195.365 304.201 193.694 303.117 193.191 302.297C192.423 301.047 192.993 300.702 196.74 300.148C200.995 299.52 201.268 299.314 202.601 295.732C203.37 293.665 203.709 291.576 203.354 291.091C202.998 290.606 201.891 289.24 200.893 288.057C198.323 285.014 200.037 283.568 204.129 285.328C207.023 286.573 208.178 286.435 211.131 284.493C214.641 282.185 214.661 282.136 213.753 278.012C212.547 272.533 214.881 271.859 218.198 276.728C220.357 279.897 220.581 279.984 224.558 279.232C228.038 278.572 228.802 278.042 229.467 275.815C231.255 269.838 233.523 269.93 234.462 276.017C234.946 279.151 235.477 279.867 238.163 281.005C241.492 282.415 243.006 282.073 246.43 279.133C249.636 276.383 251.085 278.41 248.885 282.568ZM287.764 318.12C285.614 319.448 285.075 319.332 283.081 317.109C280.071 313.757 276.176 314.303 274.184 318.359C273.023 320.723 272.399 321.06 270.154 320.542C266.344 319.662 262.86 324.225 264.702 327.684C266.131 330.365 265.847 331.112 262.889 332.451C261.276 333.181 260.974 334.039 261.346 336.845C261.741 339.822 262.21 340.452 264.564 341.158C266.08 341.611 267.325 342.144 267.33 342.34C267.335 342.537 267.143 343.822 266.902 345.195C266.246 348.922 271.143 352.468 274.275 350.534C276.851 348.943 277.119 349.034 278.437 351.943C279.21 353.65 280 353.977 282.685 353.708C285.291 353.448 286.282 352.786 287.415 350.547C288.645 348.119 289.25 347.809 291.672 348.367C294.01 348.907 294.792 348.545 296.219 346.258C297.418 344.336 297.57 342.827 296.717 341.297C295.674 339.424 295.868 338.762 298.025 336.822C301.647 333.565 301.227 330.059 296.934 327.727C294.176 326.228 293.814 325.641 294.35 323.528C294.787 321.808 294.257 320.405 292.583 318.846C290.571 316.969 289.813 316.855 287.764 318.12ZM290.196 324.837C288.997 326.401 291.679 330.75 294.087 331.146C296.683 331.572 296.861 332.912 294.464 333.996C292.084 335.074 290.912 339.659 292.453 341.866C293.776 343.76 292.923 345.313 291.259 344.038C289.625 342.785 284.409 345.368 284.215 347.526C283.948 350.492 283.181 350.572 280.773 347.888C278.805 345.694 277.864 345.37 274.931 345.871C270.93 346.553 270.034 346.205 271.353 344.484C272.542 342.933 270.055 338.887 267.135 337.624C265.022 336.709 265.038 336.497 267.401 334.272C269.911 331.907 270.348 329.011 268.601 326.326C268.116 325.579 269.186 325.064 271.766 324.802C275.088 324.465 275.897 323.946 277.245 321.282C278.796 318.217 278.855 318.203 280.295 320.531C282.003 323.297 284.947 324.103 288.11 322.672C290.256 321.701 291.561 323.057 290.196 324.837ZM235.01 285.879C230.662 284.198 222.555 284.843 218.093 287.223C204.279 294.593 202.543 313.849 214.849 323.203C222.771 329.225 233.068 329.345 240.85 323.509C254.324 313.403 251.012 292.063 235.01 285.879ZM244.64 301.319C247.984 313.624 238.282 325.279 225.974 323.741C221.642 323.199 220.197 322.508 216.47 319.199C209.008 312.571 208.179 303.617 214.288 295.649C222.891 284.428 240.965 287.804 244.64 301.319ZM280.146 326.752C278.069 326.951 276.454 327.97 274.805 330.12C270.346 335.937 275.227 343.698 282.329 342.084C291.324 340.04 289.306 325.874 280.146 326.752ZM284.238 334.187C284.332 336.613 282.284 338.4 279.685 338.159C278.071 338.01 277.56 337.349 277.25 335.007C276.925 332.552 277.233 331.874 279.049 331.052C281.578 329.907 284.131 331.45 284.238 334.187Z" fill="white"/>
<path opacity="0.05" fill-rule="evenodd" clip-rule="evenodd" d="M1198.04 506.615C1198.31 508.098 1198.75 509.672 1199.02 510.111C1199.67 511.185 1198.18 511.992 1194.01 512.831C1190.89 513.458 1190.45 513.839 1189.79 516.538C1189.13 519.236 1189.34 519.775 1191.81 521.771C1195.78 524.969 1195.9 525.488 1193.35 528.241C1191.34 530.399 1191.26 531.15 1192.72 534.078C1194.26 537.182 1194.68 537.395 1198.21 536.865C1202.51 536.216 1202.46 536.178 1203.4 540.85C1203.99 543.804 1204.45 544.38 1206.72 545.058C1209.48 545.882 1213.25 544.295 1213.27 542.297C1213.29 539.696 1216.38 539.285 1218.83 541.557C1220.98 543.559 1221.73 543.638 1224.66 542.18C1227.78 540.626 1227.98 540.224 1227.44 536.581C1226.94 533.28 1227.2 532.568 1229.08 532.103C1234.62 530.726 1235.27 530.247 1235.96 526.992C1236.63 523.835 1236.52 523.596 1233.73 521.89C1229.88 519.535 1229.9 519.653 1232.48 516.119C1234.45 513.421 1234.49 512.687 1232.85 509.977C1231.21 507.267 1230.54 506.966 1227.23 507.464C1222.91 508.115 1223 508.192 1222.7 503.685C1222.48 500.419 1222.31 500.216 1219.2 499.351C1216 498.459 1215.27 498.809 1211.49 503.085C1210.21 504.529 1209.46 504.436 1206.81 502.508C1204.03 500.477 1203.31 500.425 1200.6 502.064C1198.11 503.576 1197.64 504.414 1198.04 506.615ZM1205.57 506.632C1206.57 507.623 1208.69 508.479 1210.27 508.534C1212.88 508.625 1213.31 508.366 1214.92 505.735C1216.99 502.355 1218.49 502.657 1218.94 506.547C1219.44 510.756 1222.41 513.064 1225.83 511.897C1229.55 510.627 1230.53 512.25 1228 515.479C1225.5 518.67 1225.92 521.001 1229.53 523.911C1232.95 526.669 1232.89 527.792 1229.32 527.984C1225.08 528.213 1222.85 530.733 1223.37 534.713C1223.94 539.113 1222.36 540.198 1219.59 537.295C1217.1 534.681 1213.4 535.356 1211.01 538.859C1208.82 542.062 1207.33 541.685 1207.08 537.862C1206.78 533.55 1203.42 531.143 1199.55 532.467C1198.02 532.987 1196.46 532.898 1196.08 532.267C1195.7 531.637 1196.34 530.212 1197.51 529.1C1200.47 526.274 1199.89 522.183 1196.21 519.93C1192.81 517.856 1193.34 516.168 1197.34 516.306C1201.24 516.442 1203.77 512.817 1202.45 508.962C1201.29 505.551 1203.11 504.194 1205.57 506.632ZM1223.8 494.01C1223.96 494.786 1224.72 497.245 1225.48 499.472C1226.6 502.712 1227.19 503.466 1228.42 503.243C1230.69 502.832 1230.77 502.708 1230.29 500.136C1229.89 498.021 1230.2 498.109 1233.22 500.975C1238.18 505.684 1241.69 513.242 1242.15 520.195C1242.45 524.798 1242.88 526.121 1244.07 526.152C1246.22 526.207 1246.82 520.654 1245.34 514.394C1243.86 508.147 1239.33 500.613 1234.91 497.04C1233.1 495.571 1231.54 494.276 1231.47 494.163C1231.39 494.05 1232.29 493.374 1233.46 492.661C1235.93 491.168 1235.08 488.661 1232.35 489.385C1226.9 490.832 1223.52 492.659 1223.8 494.01ZM1203.72 519.948C1202.99 522.919 1203.23 524.772 1204.63 527.084C1208.94 534.192 1220.2 532.512 1222.18 524.466C1223.51 519.055 1220.06 513.762 1214.67 512.924C1209.11 512.06 1205.01 514.688 1203.72 519.948ZM1214.2 516.255C1215.11 516.477 1216.57 517.851 1217.46 519.308C1219.51 522.699 1218.96 524.826 1215.46 526.944C1211.27 529.487 1206.18 525.651 1207.36 520.838C1207.99 518.285 1211.87 515.684 1214.2 516.255ZM1178.98 542.58C1178.75 544.164 1179.06 544.69 1180.53 545.199C1182.13 545.752 1181.7 546.24 1177.23 548.954C1167.7 554.728 1158.74 567.521 1156.21 578.949C1155.44 582.439 1155.57 582.925 1157.33 583.187C1159.02 583.437 1159.6 582.474 1161.19 576.842C1163.41 568.923 1169.09 560.27 1175.83 554.531C1182.44 548.9 1182.99 548.616 1183.35 550.647C1183.52 551.589 1184.44 552.631 1185.4 552.962C1186.86 553.465 1187.33 552.835 1188.32 549.062C1188.97 546.587 1189.24 544.136 1188.92 543.615C1188.61 543.095 1186.31 542.203 1183.81 541.633C1179.82 540.721 1179.24 540.834 1178.98 542.58ZM1182.72 559.935C1182.61 560.811 1182.99 562.894 1183.57 564.565C1185.08 568.906 1182.78 570.847 1178.18 569.11C1174.74 567.81 1174.43 567.882 1172.58 570.407C1169.55 574.53 1169.62 576.153 1172.96 579.003C1177.19 582.617 1176.65 584.743 1171.23 585.876C1167.27 586.705 1167.17 586.797 1166.92 590.21C1166.58 594.757 1167.42 595.975 1171.49 596.837C1176.7 597.942 1177.28 600.076 1173.42 603.981L1170.12 607.318L1172.76 611.086C1175.36 614.811 1175.44 614.838 1179.46 613.367C1184.27 611.608 1185.85 613.143 1184.44 618.2C1183.3 622.287 1184.4 624.229 1188.6 625.553C1191.64 626.508 1192.03 626.378 1194.47 623.609C1198.1 619.487 1199.86 619.991 1201.3 625.573C1202.27 629.287 1202.63 629.764 1204.66 629.992C1209.23 630.506 1211.5 629.146 1212.54 625.266C1213.99 619.886 1215.78 619.308 1219.24 623.102C1222.16 626.292 1222.17 626.293 1225.99 623.982C1229.73 621.712 1229.79 621.579 1228.75 617.336C1227.52 612.27 1229.04 610.76 1233.97 612.132C1237.9 613.227 1239.55 612.376 1241.07 608.469C1242.13 605.765 1241.99 605.353 1239.17 602.646C1235.14 598.78 1235.67 596.713 1241.03 595.36C1245.28 594.285 1246 593.083 1245.25 588.241C1244.79 585.195 1244.52 584.972 1240.62 584.373C1235.52 583.593 1234.7 581.111 1238.43 577.774C1243.92 572.857 1238.6 564.334 1232.39 568.098C1231.27 568.777 1229.57 568.889 1228.6 568.349C1227.23 567.576 1227.07 566.419 1227.86 562.935L1228.86 558.505L1225.35 556.442C1221.95 554.443 1221.73 554.467 1218.37 557.194C1214.06 560.689 1211.75 560.596 1211.07 556.899C1210.25 552.403 1208.91 551.237 1204.81 551.447L1200.86 551.651L1199.7 556.042C1198.78 559.495 1198.11 560.447 1196.53 560.496C1195.42 560.53 1194.05 559.783 1193.47 558.836C1191.48 555.554 1188.82 554.782 1185.8 556.613C1184.22 557.566 1182.84 559.061 1182.72 559.935ZM1191.57 562.445C1193.96 565.221 1194.57 565.395 1198.22 564.338C1201.92 563.265 1202.31 562.894 1203.2 559.586C1204.15 556.034 1205.79 554.081 1206.64 555.486C1206.89 555.886 1207.4 557.711 1207.79 559.544C1208.44 562.58 1208.85 562.969 1212.49 563.943C1215.27 564.685 1216.92 564.547 1217.91 563.489C1222.22 558.901 1222.59 558.64 1223.25 559.721C1223.62 560.334 1223.56 562.467 1223.11 564.461C1222.37 567.804 1222.54 568.313 1225.32 570.973C1228.07 573.594 1228.69 573.722 1232.1 572.368C1236.48 570.632 1238.33 572.291 1235.25 575.179C1231.95 578.264 1231.44 579.731 1232.48 583.192C1233.32 585.985 1233.97 586.59 1237.03 587.41C1242.98 589.003 1242.83 591.267 1236.69 592.396C1234.4 592.816 1233.79 593.517 1232.75 596.905C1231.57 600.776 1231.63 601.008 1234.54 603.497C1239.02 607.32 1238.1 609.566 1232.78 607.775C1228.78 606.426 1228.73 606.441 1226.05 609.679C1223.79 612.403 1223.53 613.537 1224.45 616.547C1225.75 620.804 1224.13 622.351 1221.38 619.468C1220.32 618.348 1219.08 617.099 1218.64 616.694C1218.19 616.288 1216.08 616.399 1213.94 616.94C1210.23 617.876 1210 618.125 1208.91 622.286C1207.94 625.982 1207.55 626.485 1206.36 625.567C1205.59 624.972 1204.68 623.131 1204.33 621.477C1203.76 618.791 1203.24 618.375 1199.44 617.558C1195.75 616.766 1194.94 616.947 1193.31 618.917C1192.28 620.167 1190.66 621.33 1189.72 621.501C1188.27 621.762 1188.16 621.106 1189 617.414C1189.96 613.221 1189.87 612.892 1187.02 610.349C1185.37 608.882 1183.55 607.807 1182.97 607.962C1182.39 608.117 1180.71 608.653 1179.25 609.153C1175.48 610.442 1174.75 608.319 1177.88 605.146C1180.09 602.902 1180.38 601.776 1179.65 598.319C1178.77 594.211 1178.73 594.175 1174.56 593.522C1169.02 592.655 1169.24 590.236 1174.98 588.915C1178.71 588.054 1178.88 587.877 1179.62 583.898C1180.27 580.416 1180.05 579.512 1178.22 578.083C1173.3 574.247 1174.21 572.167 1180.22 573.503C1183.32 574.191 1184.18 573.956 1186.21 571.866C1188.74 569.277 1188.97 567.743 1187.47 563.484C1186.08 559.498 1188.49 558.885 1191.57 562.445ZM1238.81 539.135C1239.27 541.621 1238.96 542.081 1236.17 543.132C1231.95 544.718 1231.05 548.546 1234.1 551.874C1235.88 553.815 1235.97 554.518 1234.67 556.422C1232.47 559.652 1235.45 564.555 1239.34 564.096C1242.36 563.739 1242.95 564.275 1243.13 567.517C1243.22 569.285 1243.91 569.878 1246.66 570.55C1249.58 571.264 1250.34 571.056 1251.85 569.119C1252.82 567.871 1253.77 566.905 1253.95 566.971C1254.14 567.038 1255.27 567.683 1256.46 568.407C1259.69 570.372 1264.78 567.097 1264.11 563.477C1263.56 560.5 1263.75 560.283 1266.94 560.112C1268.81 560.011 1269.4 559.394 1270.12 556.795C1270.83 554.272 1270.57 553.108 1268.9 551.239C1267.08 549.212 1267.01 548.535 1268.41 546.481C1269.76 544.499 1269.71 543.638 1268.1 541.478C1266.74 539.663 1265.39 538.974 1263.66 539.212C1261.53 539.504 1260.99 539.083 1259.96 536.368C1258.24 531.811 1254.83 530.929 1251.09 534.081C1248.69 536.106 1248.02 536.23 1246.24 534.963C1244.8 533.932 1243.3 533.915 1241.24 534.909C1238.76 536.102 1238.38 536.767 1238.81 539.135ZM1245.95 539.309C1246.97 540.994 1252 540.076 1253.24 537.976C1254.58 535.712 1255.9 536.033 1256.04 538.659C1256.18 541.268 1260.02 544.026 1262.64 543.392C1264.88 542.847 1266.02 544.207 1264.23 545.293C1262.47 546.36 1262.98 552.159 1264.92 553.123C1267.59 554.449 1267.38 555.193 1264.01 556.462C1261.25 557.499 1260.6 558.257 1260 561.172C1259.19 565.147 1258.54 565.856 1257.41 564.002C1256.4 562.33 1251.73 563.178 1249.49 565.44C1247.87 567.076 1247.68 566.984 1246.46 563.974C1245.17 560.777 1242.63 559.318 1239.5 559.97C1238.62 560.15 1238.53 558.967 1239.23 556.468C1240.12 553.25 1239.93 552.308 1237.94 550.084C1235.64 547.526 1235.65 547.465 1238.34 546.97C1241.54 546.383 1243.36 543.933 1243.18 540.466C1243.05 538.115 1244.79 537.391 1245.95 539.309ZM1189.61 576.575C1186.46 580.016 1184.12 587.803 1184.72 592.824C1186.57 608.372 1203.88 616.983 1217.06 608.916C1225.55 603.723 1229.4 594.173 1226.79 584.802C1222.27 568.578 1201.18 563.912 1189.61 576.575ZM1207.49 573.211C1220.17 574.565 1227.51 587.838 1221.6 598.747C1219.53 602.586 1218.36 603.681 1213.92 605.951C1205.03 610.496 1196.39 608.016 1191.19 599.43C1183.86 587.338 1193.57 571.726 1207.49 573.211ZM1244.09 549.369C1243.52 551.375 1243.88 553.251 1245.28 555.568C1249.08 561.835 1258.09 560.107 1259.16 552.904C1260.53 543.781 1246.6 540.515 1244.09 549.369ZM1252.5 548.257C1254.79 549.05 1255.72 551.608 1254.55 553.942C1253.82 555.391 1253.02 555.627 1250.73 555.065C1248.32 554.476 1247.8 553.943 1247.69 551.953C1247.55 549.181 1249.91 547.362 1252.5 548.257Z" fill="white"/>
<path opacity="0.05" fill-rule="evenodd" clip-rule="evenodd" d="M4.38495 433.187C1.26639 436.597 1.86693 438.72 16.4925 476.028L30.4967 511.751L33.7666 513.481L37.0375 515.21L81.4236 497.81L125.81 480.409L126.728 477.515C127.598 474.774 126.88 472.665 113.139 437.613C99.3996 402.566 98.4915 400.527 95.9908 399.107L93.3506 397.608L49.6706 414.519C20.6953 425.737 5.45035 432.022 4.38495 433.187ZM108.056 438.999C119.364 467.284 122.308 475.386 121.617 476.33C120.097 478.406 38.0418 510.194 36.2368 509.406C33.9939 508.427 6.96002 439.44 7.94028 437.198C8.4607 436.008 18.8459 431.692 51.1187 419.251L93.6119 402.872L108.056 438.999ZM27.7938 449.07C27.8061 450.827 28.0941 450.945 44.8595 456.036C51.0334 457.91 56.1667 459.653 56.2661 459.909C56.3655 460.165 53.1197 466.026 49.0531 472.933C42.0036 484.906 40.9861 488.483 44.8297 487.769C46.4737 487.464 63.4354 458.779 62.8518 457.291C62.3649 456.049 30.6722 446.329 29.1071 446.943C28.3791 447.228 27.7877 448.186 27.7938 449.07ZM69.948 474.324C69.9715 477.723 71.8982 477.394 87.3009 471.356L102.672 465.33L101.554 463.353C100.453 461.407 100.198 461.466 85.1861 467.06C72.4357 471.811 69.938 473.002 69.948 474.324Z" fill="white"/>
<path opacity="0.05" fill-rule="evenodd" clip-rule="evenodd" d="M1384.69 300.221C1380.1 300.73 1379.15 302.723 1365.56 340.42L1352.55 376.516L1353.87 379.972L1355.19 383.428L1400.04 399.597L1444.89 415.765L1447.48 414.194C1449.95 412.706 1450.8 410.647 1463.56 375.229C1476.33 339.816 1476.99 337.683 1476.05 334.967L1475.05 332.1L1431.05 316.029C1401.87 305.368 1386.26 300.047 1384.69 300.221ZM1458.83 372.92C1448.69 401.646 1445.56 409.679 1444.42 409.934C1441.91 410.493 1359.25 380.318 1358.41 378.536C1357.37 376.321 1382.51 306.621 1384.72 305.581C1385.9 305.028 1396.55 308.627 1429.02 320.542L1471.78 336.231L1458.83 372.92ZM1391.83 327.594C1390.68 328.924 1390.82 329.203 1400.07 344.081C1403.48 349.559 1406.19 354.254 1406.1 354.512C1406 354.77 1399.7 357.039 1392.09 359.553C1378.9 363.911 1375.77 365.93 1379.13 367.927C1380.57 368.781 1412.23 358.388 1412.78 356.883C1413.23 355.628 1395.8 327.43 1394.22 326.86C1393.48 326.595 1392.41 326.925 1391.83 327.594ZM1406.89 374.37C1404.66 376.942 1406.33 377.965 1421.89 383.575L1437.42 389.175L1437.89 386.951C1438.34 384.762 1438.11 384.638 1423.13 378.951C1410.41 374.121 1407.75 373.37 1406.89 374.37Z" fill="white"/>
<path opacity="0.05" fill-rule="evenodd" clip-rule="evenodd" d="M267.29 524.355C255.824 525.416 252 526.174 251.213 527.541C250.644 528.528 248.385 536.127 246.192 544.428L242.204 559.519L226.843 560.909L211.483 562.299L206.713 580.417L201.942 598.535L204.323 600.294C210.832 605.102 228.555 617.16 229.465 617.399C230.035 617.55 237.313 617.077 245.636 616.348L260.769 615.023L273.6 623.876L286.432 632.729L294.93 632.049C299.603 631.675 307.134 630.985 311.665 630.517L319.904 629.665L324.683 611.514L329.462 593.363L316.778 584.589L304.094 575.815L308.308 559.75C310.626 550.914 312.324 543.141 312.081 542.478C311.472 540.818 287.212 524.086 284.513 523.465C283.315 523.19 275.565 523.59 267.29 524.355ZM292.053 532.514C306.126 542.122 306.126 541.062 292.053 542.42L279.694 543.612L269.576 536.691C264.012 532.884 259.737 529.598 260.078 529.387C261.138 528.733 281.199 526.883 283.094 527.264C284.083 527.464 288.114 529.826 292.053 532.514ZM272.97 543.801L276.699 546.33L272.785 561.193L268.872 576.057L261.678 570.978C257.722 568.184 252.805 564.765 250.752 563.38L247.021 560.86L250.915 546.07L254.81 531.279L262.025 536.275C265.993 539.024 270.918 542.41 272.97 543.801ZM303.959 559.741L299.819 574.378L294.509 574.91C291.588 575.203 285.5 575.791 280.98 576.216L272.763 576.988L276.654 562.211L280.544 547.434L293.55 546.149C300.703 545.442 306.903 544.917 307.327 544.984C307.751 545.049 306.236 551.69 303.959 559.741ZM253.487 570.169C258.982 573.988 263.059 577.337 262.544 577.611C262.03 577.885 256.63 578.533 250.543 579.051C240.401 579.914 239.218 579.816 236.375 577.877C234.669 576.714 229.976 573.497 225.948 570.728L218.622 565.695L230.703 564.45C237.347 563.766 242.944 563.21 243.139 563.216C243.334 563.221 247.991 566.351 253.487 570.169ZM311.261 585.581L321.564 592.804L312.716 593.577C307.849 594.002 302.184 594.491 300.126 594.663C296.697 594.95 295.619 594.453 287.217 588.707C282.175 585.259 277.792 582.033 277.477 581.537C277.052 580.868 296.505 578.145 300.389 578.33C300.702 578.344 305.595 581.608 311.261 585.581ZM226.298 575.748L236.159 582.476L232.261 597.279C228.665 610.937 228.244 612.006 226.813 611.099C225.959 610.558 221.126 607.267 216.071 603.783L206.881 597.451L210.508 582.593C213.358 570.91 214.38 567.871 215.286 568.377C215.92 568.73 220.876 572.047 226.298 575.748ZM263.242 596.559L259.101 611.201L247.984 612.186C241.869 612.728 236.042 613.213 235.032 613.264C233.34 613.348 233.5 612.212 237.102 598.554L241.006 583.755L252.93 582.624C259.488 582.003 265.423 581.589 266.119 581.705C267.104 581.87 266.47 585.142 263.242 596.559ZM283.142 590.589L293.641 597.842L290.056 612.542C287.266 623.982 286.201 627.156 285.254 626.851C284.585 626.635 279.514 623.316 273.985 619.474L263.932 612.489L267.541 597.698C269.526 589.564 271.486 583.004 271.896 583.122C272.307 583.24 277.367 586.599 283.142 590.589ZM320.297 611.581L316.156 626.224L305.039 627.209C298.924 627.751 293.097 628.236 292.088 628.287C290.396 628.371 290.555 627.235 294.157 613.577L298.061 598.777L309.985 597.647C316.543 597.026 322.479 596.612 323.174 596.728C324.16 596.893 323.526 600.165 320.297 611.581Z" fill="white"/>
<path opacity="0.05" fill-rule="evenodd" clip-rule="evenodd" d="M1189.86 74.5288C1180.8 81.626 1177.99 84.333 1178.07 85.909C1178.12 87.0468 1180.34 94.659 1182.99 102.826L1187.8 117.674L1175.64 127.156L1163.47 136.638L1169.27 154.455L1175.06 172.272L1178.01 172.463C1186.09 172.983 1207.52 173.531 1208.41 173.24C1208.97 173.058 1214.84 168.721 1221.44 163.604L1233.45 154.3L1249.03 154.8L1264.61 155.3L1271.39 150.129C1275.12 147.285 1281.08 142.63 1284.63 139.784L1291.1 134.608L1285.3 116.759L1279.49 98.9093L1264.08 98.3958L1248.66 97.8823L1243.51 82.0929C1240.68 73.4081 1237.9 65.9536 1237.34 65.5274C1235.93 64.4611 1206.47 63.5204 1203.87 64.459C1202.71 64.8762 1196.41 69.407 1189.86 74.5288ZM1215.1 67.9881C1232.14 68.4509 1231.56 67.5593 1220.46 76.3177L1210.72 84.0087L1198.46 83.6643C1191.72 83.4747 1186.35 83.0249 1186.52 82.663C1187.06 81.5395 1202.93 69.1268 1204.73 68.4216C1205.67 68.0541 1210.34 67.8589 1215.1 67.9881ZM1205.16 87.8066L1209.67 87.9149L1214.42 102.531L1219.17 117.148L1210.38 116.771C1205.54 116.563 1199.55 116.349 1197.08 116.294L1192.58 116.195L1187.85 101.65L1183.12 87.1048L1191.89 87.4016C1196.71 87.5656 1202.69 87.7476 1205.16 87.8066ZM1239.85 84.439L1244.29 98.9879L1240.11 102.309C1237.81 104.137 1233.01 107.925 1229.44 110.729L1222.95 115.826L1218.23 101.294L1213.5 86.7625L1223.74 78.6427C1229.37 74.1769 1234.3 70.3808 1234.7 70.207C1235.09 70.0322 1237.41 76.437 1239.85 84.439ZM1203.05 120.524C1209.74 120.761 1214.98 121.37 1214.7 121.88C1214.41 122.388 1210.22 125.856 1205.38 129.585C1197.32 135.8 1196.27 136.358 1192.83 136.266C1190.77 136.211 1185.08 136.046 1180.2 135.898L1171.31 135.63L1180.8 128.045C1186.01 123.874 1190.42 120.378 1190.59 120.277C1190.75 120.176 1196.36 120.287 1203.05 120.524ZM1259.97 102.216L1272.55 102.714L1265.52 108.152C1261.66 111.144 1257.16 114.621 1255.53 115.879C1252.8 117.977 1251.62 118.141 1241.45 117.857C1235.34 117.687 1229.91 117.346 1229.38 117.099C1228.66 116.767 1243.54 103.949 1246.91 102.003C1247.18 101.845 1253.06 101.942 1259.97 102.216ZM1183.21 139.929L1195.14 140.25L1199.87 154.807C1204.24 168.239 1204.47 169.366 1202.77 169.378C1201.76 169.385 1195.92 169.232 1189.78 169.039L1178.63 168.688L1173.63 154.231C1169.71 142.864 1168.92 139.755 1169.96 139.691C1170.68 139.644 1176.65 139.752 1183.21 139.929ZM1225.54 137.435L1229.98 151.989L1221.16 158.834C1216.32 162.599 1211.68 166.16 1210.86 166.749C1209.48 167.736 1209 166.694 1204.64 153.26L1199.91 138.702L1209.32 131.299C1214.5 127.227 1219.27 123.667 1219.92 123.388C1220.83 122.993 1222.07 126.087 1225.54 137.435ZM1239.04 121.645L1251.79 122.062L1256.73 136.363C1260.58 147.493 1261.4 150.739 1260.44 150.995C1259.76 151.176 1253.7 151.129 1246.97 150.891L1234.74 150.457L1229.77 136.066C1227.04 128.152 1225.13 121.575 1225.54 121.453C1225.95 121.329 1232.02 121.416 1239.04 121.645ZM1281.64 119.189L1286.09 133.743L1277.27 140.588C1272.42 144.353 1267.79 147.915 1266.96 148.503C1265.59 149.49 1265.11 148.449 1260.74 135.014L1256.02 120.456L1265.43 113.053C1270.61 108.981 1275.38 105.421 1276.02 105.142C1276.94 104.747 1278.18 107.842 1281.64 119.189Z" fill="white"/>
<path opacity="0.05" fill-rule="evenodd" clip-rule="evenodd" d="M218.363 141.612C216.273 145.436 217.956 145.638 221.286 141.965L224.069 138.895L228.047 140.991C230.235 142.144 232.248 143.63 232.52 144.294C232.793 144.957 232.601 150.986 232.094 157.691C231.578 164.517 231.666 169.963 232.293 170.066C232.91 170.167 233.795 164.966 234.261 158.508C234.727 152.049 235.328 146.679 235.596 146.575C235.863 146.471 240.572 149.641 246.059 153.621C255.47 160.444 258.125 161.785 256.959 159.126C256.683 158.497 249.744 153.204 241.539 147.364C227.232 137.183 226.482 136.791 223.24 137.812C220.972 138.526 219.365 139.778 218.363 141.612Z" fill="white"/>
<path opacity="0.05" fill-rule="evenodd" clip-rule="evenodd" d="M269.462 432.323C265.485 434.104 266.703 435.283 271.577 434.373L275.65 433.612L277.549 437.687C278.594 439.929 279.298 442.33 279.113 443.023C278.929 443.716 275.129 448.4 270.67 453.433C266.129 458.556 262.905 462.945 263.342 463.407C263.772 463.86 267.623 460.255 271.901 455.394C276.179 450.534 279.906 446.62 280.182 446.7C280.458 446.779 282.29 452.152 284.252 458.64C287.618 469.766 288.92 472.44 289.601 469.617C289.762 468.949 287.438 460.537 284.437 450.924C279.204 434.162 278.844 433.396 275.645 432.247C273.407 431.444 271.37 431.469 269.462 432.323Z" fill="white"/>
<path opacity="0.05" fill-rule="evenodd" clip-rule="evenodd" d="M226.691 8.21079C225.517 9.11288 223.82 11.0735 222.921 12.5688C221.854 14.3442 220.305 15.4574 218.456 15.7767C215.039 16.367 210.792 20.1342 210.127 23.1625C209.775 24.7733 208.654 25.6458 205.959 26.4078C193.478 29.9377 195.343 49.9036 208.359 52.1003C213.652 52.9927 253.457 41.8124 257.089 38.4114C259.875 35.802 261.159 30.8686 260.057 26.997C259.081 23.5627 254.413 19.2137 251.171 18.7183C249.307 18.4334 248.406 17.5032 247.645 15.0766C244.892 6.30022 233.878 2.69195 226.691 8.21079ZM239.712 9.46623C242.961 11.048 243.836 12.0996 245.079 15.9103C246.371 19.8672 246.978 20.5499 249.717 21.1212C254.142 22.0443 255.921 23.6306 257.115 27.7191C257.815 30.1131 257.645 32.3515 256.592 34.617L255.035 37.9713L234.098 44.1895C210.354 51.2411 207.867 51.3777 202.597 45.9153C200.067 43.2932 199.747 42.4543 199.807 38.6063C199.887 33.5439 203.206 29.2738 208.155 27.8682C210.529 27.1936 211.764 26.0302 212.992 23.3109C214.418 20.1537 215.204 19.5378 218.802 18.7547C222.286 17.997 223.394 17.1862 225.597 13.7872C229.14 8.31983 234.187 6.77416 239.712 9.46623Z" fill="white"/>
<path opacity="0.05" fill-rule="evenodd" clip-rule="evenodd" d="M110.417 257.756C108.937 257.789 106.409 258.366 104.8 259.04C102.889 259.84 100.981 259.821 99.3015 258.985C96.1979 257.44 90.5452 257.965 88.2176 260.013C86.9801 261.103 85.5603 261.144 82.9372 260.164C70.7857 255.627 60.4784 272.828 69.6733 282.298C73.4135 286.149 112.12 300.682 117.06 300.088C120.85 299.632 124.804 296.414 126.206 292.641C127.45 289.294 126.26 283.027 123.939 280.709C122.604 279.377 122.428 278.094 123.25 275.687C126.222 266.983 119.476 257.558 110.417 257.756ZM120.172 266.471C121.856 269.668 121.94 271.034 120.688 274.842C119.389 278.796 119.475 279.706 121.345 281.787C124.367 285.149 124.863 287.48 123.407 291.482C122.555 293.827 121.093 295.531 118.905 296.735L115.665 298.518L95.106 291.147C71.7905 282.786 69.7039 281.425 68.6867 273.903C68.1979 270.293 68.4358 269.427 70.7605 266.36C73.82 262.326 79.0221 260.846 83.8432 262.64C86.1563 263.501 87.8404 263.293 90.4393 261.827C93.4564 260.125 94.4546 260.093 97.8193 261.591C101.076 263.041 102.449 263.042 106.236 261.605C112.327 259.293 117.31 261.032 120.172 266.471Z" fill="white"/>
<path opacity="0.05" fill-rule="evenodd" clip-rule="evenodd" d="M93.0818 562.877C91.6989 563.405 89.512 564.798 88.2225 565.973C86.6917 567.369 84.8882 567.992 83.0253 567.768C79.583 567.355 74.4351 569.749 72.9308 572.46C72.1314 573.902 70.8075 574.417 68.0079 574.376C55.0383 574.184 51.1077 593.847 62.9497 599.679C67.7661 602.05 109.105 602.736 113.559 600.518C116.975 598.815 119.618 594.456 119.672 590.431C119.72 586.861 116.493 581.358 113.528 579.955C111.824 579.148 111.227 577.999 111.193 575.456C111.068 566.258 101.549 559.647 93.0818 562.877ZM105.198 567.809C107.858 570.255 108.396 571.513 108.495 575.52C108.6 579.681 108.987 580.509 111.447 581.841C115.423 583.992 116.673 586.022 116.646 590.281C116.631 592.775 115.827 594.871 114.17 596.74L111.718 599.508L89.8767 599.47C65.1077 599.427 62.685 598.846 59.2005 592.103C57.5272 588.867 57.4604 587.971 58.6199 584.301C60.1465 579.474 64.5495 576.333 69.693 576.403C72.1608 576.437 73.6772 575.676 75.6328 573.422C77.9028 570.805 78.8323 570.44 82.5046 570.721C86.059 570.992 87.3529 570.533 90.4371 567.907C95.3972 563.683 100.675 563.647 105.198 567.809Z" fill="white"/>
<path opacity="0.05" fill-rule="evenodd" clip-rule="evenodd" d="M1248.22 341.151C1247.23 342.25 1245.91 344.484 1245.3 346.117C1244.57 348.056 1243.24 349.43 1241.48 350.077C1238.23 351.273 1234.73 355.744 1234.62 358.842C1234.56 360.49 1233.62 361.551 1231.11 362.785C1219.46 368.506 1224.9 387.809 1238.09 387.625C1243.46 387.55 1280.6 369.382 1283.56 365.382C1285.83 362.313 1286.21 357.229 1284.43 353.62C1282.85 350.417 1277.47 346.98 1274.19 347.077C1272.31 347.133 1271.25 346.38 1270.07 344.13C1265.78 335.993 1254.3 334.428 1248.22 341.151ZM1261.25 340.041C1264.74 341.011 1265.79 341.888 1267.69 345.412C1269.68 349.072 1270.4 349.634 1273.2 349.703C1277.71 349.813 1279.75 351.053 1281.66 354.86C1282.78 357.089 1283.02 359.321 1282.39 361.739L1281.46 365.319L1261.99 375.207C1239.9 386.421 1237.48 387.003 1231.31 382.579C1228.35 380.456 1227.89 379.688 1227.25 375.893C1226.42 370.899 1228.91 366.1 1233.53 363.826C1235.74 362.735 1236.75 361.368 1237.47 358.472C1238.3 355.11 1238.96 354.362 1242.36 352.944C1245.65 351.571 1246.59 350.574 1248.15 346.834C1250.65 340.818 1255.33 338.388 1261.25 340.041Z" fill="white"/>
<path opacity="0.05" fill-rule="evenodd" clip-rule="evenodd" d="M1377.15 507.655C1375.81 508.289 1373.74 509.849 1372.54 511.121C1371.13 512.632 1369.38 513.394 1367.5 513.317C1364.04 513.175 1359.09 515.964 1357.81 518.784C1357.12 520.285 1355.84 520.902 1353.05 521.079C1340.1 521.902 1337.72 541.813 1349.98 546.701C1354.97 548.688 1396.24 546.138 1400.5 543.578C1403.78 541.614 1406.07 537.061 1405.81 533.045C1405.58 529.482 1401.93 524.248 1398.87 523.081C1397.1 522.41 1396.42 521.311 1396.18 518.778C1395.34 509.619 1385.33 503.773 1377.15 507.655ZM1389.61 511.623C1392.45 513.854 1393.09 515.066 1393.5 519.053C1393.93 523.193 1394.38 523.989 1396.94 525.124C1401.07 526.958 1402.47 528.883 1402.78 533.131C1402.96 535.619 1402.32 537.771 1400.82 539.764L1398.59 542.716L1376.81 544.387C1352.12 546.281 1349.66 545.891 1345.65 539.442C1343.73 536.346 1343.6 535.458 1344.46 531.709C1345.61 526.777 1349.75 523.301 1354.89 522.969C1357.35 522.809 1358.8 521.932 1360.57 519.532C1362.63 516.746 1363.53 516.309 1367.21 516.302C1370.78 516.294 1372.03 515.735 1374.9 512.876C1379.52 508.277 1384.78 507.828 1389.61 511.623Z" fill="white"/>
<path opacity="0.05" fill-rule="evenodd" clip-rule="evenodd" d="M1387.82 207.609C1386.48 208.244 1384.41 209.804 1383.22 211.076C1381.8 212.587 1380.05 213.349 1378.18 213.272C1374.71 213.13 1369.77 215.918 1368.48 218.739C1367.8 220.239 1366.52 220.856 1363.72 221.034C1350.78 221.857 1348.4 241.768 1360.66 246.656C1365.65 248.643 1406.91 246.093 1411.18 243.533C1414.45 241.568 1416.74 237.016 1416.48 232.999C1416.25 229.436 1412.6 224.202 1409.54 223.035C1407.78 222.364 1407.09 221.265 1406.86 218.733C1406.01 209.573 1396.01 203.727 1387.82 207.609ZM1400.28 211.578C1403.13 213.808 1403.76 215.021 1404.17 219.008C1404.6 223.148 1405.05 223.943 1407.61 225.078C1411.74 226.912 1413.15 228.838 1413.45 233.086C1413.63 235.573 1413 237.726 1411.49 239.719L1409.26 242.67L1387.49 244.341C1362.79 246.236 1360.33 245.846 1356.33 239.396C1354.41 236.3 1354.27 235.413 1355.14 231.664C1356.28 226.732 1360.43 223.256 1365.56 222.924C1368.02 222.764 1369.48 221.887 1371.25 219.487C1373.31 216.701 1374.21 216.264 1377.89 216.256C1381.45 216.249 1382.71 215.689 1385.58 212.831C1390.19 208.232 1395.45 207.783 1400.28 211.578Z" fill="white"/>
<path opacity="0.05" fill-rule="evenodd" clip-rule="evenodd" d="M307.265 108.975C306.947 109.49 308.123 110.052 309.879 110.225C314.12 110.642 314.941 113.038 310.844 113.038C308.787 113.038 307.436 113.709 306.691 115.1C305.06 118.144 307.043 119.954 311.801 119.764C315.66 119.611 315.725 119.545 315.725 115.758C315.725 110.341 314.242 108.041 310.749 108.041C309.151 108.041 307.583 108.462 307.265 108.975ZM317.056 109.672C317.354 110.698 318.147 113.45 318.82 115.786C319.492 118.121 320.581 120.033 321.241 120.033C321.901 120.033 322.875 118.121 323.406 115.786L324.372 111.539L325.604 115.851C326.282 118.222 327.34 119.995 327.955 119.79C329.128 119.399 333.034 109.015 332.288 108.271C331.212 107.196 329.837 109.412 329.173 113.292C328.405 117.781 327.637 117.102 326.259 110.718C325.406 106.763 323.49 107.882 322.16 113.111L321.035 117.534L320.114 113.116C319.607 110.685 318.59 108.496 317.854 108.251C316.946 107.948 316.689 108.405 317.056 109.672ZM334.736 109.527C333.076 111.526 334.121 113.857 337.199 115.026C340.649 116.337 340.381 118.034 336.725 118.034C335.075 118.034 333.725 118.511 333.725 119.093C333.725 119.707 335.304 120.023 337.475 119.843C340.72 119.575 341.225 119.198 341.225 117.048C341.225 115.323 340.384 114.161 338.475 113.246C334.842 111.507 334.983 110.04 338.784 110.04C340.569 110.04 341.586 109.623 341.225 109.04C340.291 107.531 336.135 107.843 334.736 109.527ZM313.48 116.285C312.847 118.207 308.725 118.484 308.725 116.605C308.725 115.585 309.628 115.036 311.308 115.036C312.928 115.036 313.738 115.502 313.48 116.285ZM339.583 123.75C341.632 124.139 341.865 124.612 341.356 127.361L340.77 130.525L342.212 128.027C344.474 124.108 344.084 123.015 340.475 123.166C337.942 123.272 337.745 123.401 339.583 123.75ZM307.032 126.055C314.232 131.714 326.349 133.052 335.153 129.161C337.838 127.974 339.849 126.819 339.624 126.593C339.398 126.368 336.291 126.865 332.719 127.698C325.153 129.463 318.132 128.933 310.457 126.018C303.98 123.558 303.857 123.559 307.032 126.055Z" fill="white"/>
<path opacity="0.05" fill-rule="evenodd" clip-rule="evenodd" d="M1221.16 259.444C1220.71 259.842 1221.67 260.724 1223.29 261.405C1227.23 263.05 1227.31 265.58 1223.39 264.377C1221.42 263.774 1219.94 264.019 1218.81 265.13C1216.36 267.561 1217.73 269.873 1222.33 271.088C1226.06 272.075 1226.15 272.031 1227.26 268.411C1228.85 263.233 1228.11 260.599 1224.77 259.573C1223.24 259.104 1221.62 259.046 1221.16 259.444ZM1230.32 262.984C1230.3 264.052 1230.25 266.916 1230.21 269.346C1230.16 271.776 1230.64 273.923 1231.28 274.117C1231.91 274.31 1233.4 272.769 1234.59 270.692L1236.76 266.916L1236.67 271.4C1236.63 273.866 1237.12 275.871 1237.76 275.856C1239 275.827 1245.78 267.047 1245.29 266.117C1244.58 264.773 1242.61 266.488 1240.84 270.002C1238.78 274.068 1238.25 273.193 1238.81 266.686C1239.15 262.655 1236.99 263.162 1234.19 267.769L1231.81 271.668L1232.23 267.174C1232.46 264.702 1232.13 262.31 1231.5 261.86C1230.72 261.304 1230.34 261.665 1230.32 262.984ZM1247.26 268.036C1245.09 269.459 1245.4 271.995 1248 274.016C1250.91 276.282 1250.16 277.826 1246.66 276.752C1245.09 276.268 1243.66 276.327 1243.49 276.884C1243.3 277.47 1244.72 278.236 1246.85 278.701C1250.03 279.398 1250.62 279.186 1251.26 277.131C1251.76 275.482 1251.3 274.124 1249.74 272.689C1246.78 269.96 1247.35 268.599 1250.98 269.715C1252.69 270.239 1253.78 270.139 1253.61 269.476C1253.16 267.759 1249.09 266.837 1247.26 268.036ZM1224.96 268.256C1223.79 269.907 1219.77 268.961 1220.32 267.166C1220.62 266.19 1221.64 265.931 1223.25 266.424C1224.8 266.9 1225.43 267.583 1224.96 268.256ZM1247.72 283.055C1249.56 284.028 1249.65 284.55 1248.35 287.028L1246.86 289.88L1248.98 287.916C1252.29 284.833 1252.24 283.675 1248.74 282.759C1246.29 282.117 1246.06 282.182 1247.72 283.055ZM1215.92 275.702C1221.15 283.226 1232.34 288.062 1241.89 286.927C1244.81 286.581 1247.07 286.067 1246.92 285.785C1246.77 285.504 1243.66 285.066 1240 284.814C1232.25 284.28 1225.69 281.712 1219.21 276.672C1213.74 272.419 1213.62 272.384 1215.92 275.702Z" fill="white"/>
</svg>
