<svg width="50" height="50" viewBox="0 0 50 50" fill="none" xmlns="http://www.w3.org/2000/svg">
<circle cx="25" cy="25" r="25" fill="#E5E5E5"/>
<path d="M26.4047 33.094L27.9541 31.5327C27.9542 31.5326 27.9543 31.5325 27.9544 31.5324C28.1337 31.3532 28.3769 31.2525 28.6304 31.2525C28.8841 31.2525 29.1274 31.3533 29.3067 31.5327C29.4861 31.712 29.5869 31.9553 29.5869 32.209C29.5869 32.4627 29.4861 32.7059 29.3067 32.8853L25.7041 36.4879C25.614 36.5737 25.508 36.641 25.3919 36.686L25.3918 36.6858L25.3813 36.6904C25.2693 36.7399 25.1482 36.7655 25.0257 36.7655C24.9033 36.7655 24.7822 36.7399 24.6702 36.6904L24.6703 36.6902L24.6595 36.686C24.5435 36.641 24.4375 36.5737 24.3474 36.4879L20.7447 32.8853C20.6559 32.7965 20.5855 32.6911 20.5374 32.575C20.4893 32.459 20.4646 32.3346 20.4646 32.209C20.4646 32.0834 20.4893 31.959 20.5374 31.843C20.5855 31.7269 20.6559 31.6215 20.7447 31.5327C20.8335 31.4438 20.939 31.3734 21.055 31.3253C21.1711 31.2773 21.2954 31.2525 21.4211 31.2525C21.5467 31.2525 21.671 31.2773 21.7871 31.3253C21.903 31.3734 22.0084 31.4437 22.0972 31.5325C22.0973 31.5325 22.0973 31.5326 22.0974 31.5327L23.6467 33.094L24.0742 33.5248V32.9179V26.2012C24.0742 25.9488 24.1744 25.7068 24.3529 25.5283C24.5313 25.3499 24.7734 25.2496 25.0257 25.2496C25.2781 25.2496 25.5201 25.3499 25.6986 25.5283C25.877 25.7068 25.9773 25.9488 25.9773 26.2012V32.9179V33.5248L26.4047 33.094ZM32.5105 18.1544L32.5567 18.2604L32.6674 18.2939C33.8672 18.6568 34.9158 19.4012 35.654 20.4143C36.3922 21.4274 36.7797 22.6536 36.7575 23.9069C36.7354 25.1602 36.3048 26.372 35.5313 27.3584C34.7579 28.3445 33.684 29.0514 32.4724 29.3717C32.3513 29.4028 32.2253 29.4098 32.1016 29.3923C31.9776 29.3748 31.8583 29.333 31.7504 29.2694C31.6426 29.2057 31.5483 29.1214 31.473 29.0214C31.3978 28.9213 31.3429 28.8074 31.3117 28.6861C31.2804 28.5648 31.2733 28.4386 31.2909 28.3146C31.3084 28.1906 31.3502 28.0713 31.4138 27.9634C31.4775 27.8556 31.5618 27.7613 31.6618 27.686C31.7619 27.6108 31.8758 27.5559 31.9971 27.5247L31.9971 27.5247L32.0011 27.5236C32.8408 27.2922 33.5773 26.7832 34.0907 26.0797C34.6042 25.3761 34.8642 24.5194 34.8284 23.6492C34.7926 22.779 34.4632 21.9465 33.8938 21.2874C33.3244 20.6284 32.5486 20.1816 31.6927 20.0198L31.6928 20.0198L31.6885 20.0191C31.5187 19.99 31.3599 19.9153 31.2292 19.803C31.0985 19.6907 31.0007 19.545 30.9463 19.3815L30.9456 19.3794C30.4658 17.9791 29.5051 16.7942 28.2342 16.0352C26.9633 15.2763 25.4645 14.9924 24.0041 15.2341C22.5438 15.4757 21.2163 16.2272 20.2576 17.3551C19.299 18.483 18.7711 19.9142 18.7679 21.3944V21.3949C18.7679 21.6473 18.6677 21.8894 18.4892 22.0678C18.3108 22.2463 18.0687 22.3465 17.8164 22.3465C17.1127 22.3465 16.4379 22.626 15.9403 23.1236C15.4428 23.6211 15.1633 24.296 15.1633 24.9996C15.1633 25.7033 15.4428 26.3781 15.9403 26.8757C16.4379 27.3732 17.1127 27.6527 17.8164 27.6527C18.0687 27.6527 18.3108 27.753 18.4892 27.9315C18.6677 28.1099 18.7679 28.3519 18.7679 28.6043C18.7679 28.8567 18.6677 29.0987 18.4892 29.2772C18.3108 29.4556 18.0687 29.5559 17.8164 29.5559H17.8158C16.6991 29.5582 15.6205 29.1504 14.7847 28.4098C13.9488 27.6692 13.4141 26.6475 13.282 25.5387C13.1499 24.4298 13.4296 23.311 14.068 22.3948C14.7065 21.4786 15.6591 20.8288 16.7451 20.5687L16.9126 20.5286L16.9348 20.3578C17.1652 18.5876 17.9696 16.9418 19.2248 15.6725C20.4801 14.4032 22.1169 13.5805 23.8844 13.3305C25.6519 13.0804 27.4527 13.4168 29.0107 14.2881C30.5688 15.1594 31.7982 16.5175 32.5105 18.1544Z" fill="black" stroke="#E5E5E5" stroke-width="0.5"/>
</svg>
