<svg width="79" height="47" viewBox="0 0 79 47" fill="none" xmlns="http://www.w3.org/2000/svg">
<path d="M58.9884 23.0138C59.9209 23.5245 60.9338 23.8718 61.9835 24.0407C63.3 24.3564 64.6519 24.5002 66.0054 24.4685C67.2467 24.4829 68.4832 24.3098 69.6728 23.9551C70.7136 23.6274 71.6957 23.1363 72.5823 22.5004C73.3874 21.8937 74.0334 21.1009 74.4649 20.1899C74.918 19.2349 75.1519 18.1907 75.1495 17.1337C75.1363 15.8134 74.7087 14.5305 73.927 13.4663C73.1569 12.4394 71.7877 11.5837 69.9051 10.9847L66.2377 9.76222C65.1737 9.49432 64.1809 8.9979 63.3282 8.30748C63.0502 8.0184 62.8384 7.67226 62.7076 7.2931C62.5769 6.91394 62.5302 6.51085 62.5709 6.11184C62.6116 5.71283 62.7388 5.32747 62.9434 4.98254C63.1481 4.6376 63.4254 4.34136 63.7561 4.1144C64.8331 3.54161 66.0466 3.27523 67.2646 3.34425C69.0017 3.3202 70.7236 3.67042 72.3134 4.37112C72.6361 4.53711 72.9824 4.65255 73.3402 4.71341C73.7681 4.71341 73.9515 4.45669 73.9515 3.85768V2.83081C73.9717 2.52396 73.8805 2.22013 73.6947 1.97508C73.5014 1.68424 73.2361 1.4484 72.9246 1.2905C72.5823 1.08264 72.2055 0.937727 71.8121 0.862631C71.3843 0.691485 70.8708 0.605914 70.3574 0.434768C69.7952 0.301189 69.2226 0.215313 68.6459 0.17805C68.058 0.0364627 67.453 -0.0211619 66.8489 0.00690032C65.7513 0.0115479 64.6586 0.155318 63.5971 0.434768C62.6138 0.733696 61.688 1.1966 60.8588 1.80393C60.1009 2.39083 59.462 3.11692 58.9762 3.94326C58.4802 4.8299 58.243 5.83796 58.2916 6.85274C58.2849 8.21629 58.737 9.54247 59.5752 10.6179C60.4309 11.8404 61.8001 12.6717 63.7683 13.2707L67.5335 14.4932C68.508 14.7481 69.4139 15.2157 70.1863 15.8623C70.4189 16.0979 70.5999 16.3794 70.7178 16.6888C70.8357 16.9982 70.8878 17.3287 70.8708 17.6594C70.8854 18.1577 70.766 18.6507 70.5252 19.0872C70.2844 19.5237 69.931 19.8876 69.5017 20.141C68.5604 20.7522 67.3623 20.9967 65.6509 20.9967C64.622 21.0079 63.5956 20.8929 62.5947 20.6544C61.5875 20.4708 60.6091 20.1542 59.6852 19.7131C59.452 19.6418 59.2233 19.5561 59.0006 19.4564C58.8389 19.3868 58.6628 19.3574 58.4872 19.3708C58.0593 19.3708 57.876 19.6276 57.876 20.2266V21.5102C57.8919 21.7743 57.9497 22.0343 58.0471 22.2803C58.3018 22.6018 58.6229 22.8645 58.9884 23.0505V23.0138Z" fill="#240934"/>
<path d="M14.7468 10.3493C13.841 10.2097 12.9245 10.1524 12.0084 10.1781C9.35566 10.1781 7.21634 10.8627 5.59046 12.2319C4.15631 13.559 3.29934 15.3954 3.20336 17.347C3.10738 19.2987 3.78002 21.2103 5.07702 22.6718C6.36061 23.9553 8.07207 24.5544 10.297 24.5544C11.7648 24.5732 13.2179 24.2596 14.5474 23.6372C15.877 23.0148 17.0484 22.0996 17.9741 20.9603C18.1961 21.4903 18.4534 22.0049 18.7442 22.5006C19.008 22.9442 19.3241 23.3546 19.6855 23.7231C19.7831 23.8305 19.902 23.9164 20.0346 23.9753C20.1672 24.0342 20.3106 24.0649 20.4557 24.0654C20.703 24.0437 20.9397 23.955 21.1403 23.8086L22.7662 22.6962C22.9057 22.6166 23.0248 22.5055 23.114 22.3719C23.2031 22.2382 23.2598 22.0855 23.2796 21.926C23.2527 21.715 23.1951 21.5091 23.1085 21.3148C22.7688 20.7135 22.4825 20.0835 22.2527 19.4322C22.0631 18.6772 21.9768 17.9 21.996 17.1217V8.56444C21.996 5.74053 21.3114 3.60121 19.8567 2.14647C18.4019 0.69173 16.1893 0.00714658 13.0108 0.00714658C11.6252 -0.00151758 10.2443 0.171095 8.90335 0.520587C7.77845 0.809417 6.68816 1.2193 5.65158 1.74306C5.38011 1.84727 5.14305 2.02506 4.967 2.25649C4.79585 2.42764 4.79585 2.76993 4.79585 3.1978V4.48139C4.79585 4.99483 4.96699 5.33712 5.30929 5.33712C5.45668 5.34296 5.60334 5.31363 5.73715 5.25155C5.9083 5.16597 6.25059 5.0804 6.67845 4.90926C7.59434 4.54603 8.53891 4.25979 9.50236 4.05353C10.4241 3.81342 11.3739 3.6983 12.3263 3.71124C14.38 3.71124 15.7492 4.1391 16.6049 4.93371C17.4606 5.72831 17.8274 7.1586 17.8274 9.12678V11.0094C16.7149 10.7527 15.7736 10.5815 14.7712 10.3981L14.7468 10.3493ZM17.7418 14.9702C17.7563 15.72 17.67 16.4683 17.4851 17.1951C17.3402 17.8 17.046 18.359 16.6294 18.821C15.9732 19.5835 15.1119 20.1415 14.1477 20.4285C13.2714 20.7562 12.345 20.9299 11.4094 20.942C10.9136 21.0009 10.4109 20.9466 9.93907 20.7832C9.46727 20.6197 9.03871 20.3514 8.68564 19.9983C8.33258 19.6452 8.06422 19.2167 7.90076 18.7449C7.73731 18.2731 7.68303 17.7704 7.742 17.2745C7.71068 16.7102 7.81023 16.1462 8.03289 15.6266C8.25556 15.1071 8.5953 14.646 9.0256 14.2795C9.88133 13.5949 11.1649 13.2526 12.8764 13.2526C13.6465 13.2526 14.5023 13.3382 15.358 13.4238C16.1647 13.5174 16.9648 13.6603 17.754 13.8516V14.9641L17.7418 14.9702Z" fill="#240934"/>
<path d="M30.9198 22.5859C31.0178 22.9601 31.1927 23.3098 31.4333 23.6128C31.7324 23.8216 32.0979 23.9129 32.4601 23.8695H34.685C35.0472 23.9129 35.4127 23.8216 35.7119 23.6128C35.9524 23.3098 36.1273 22.9601 36.2253 22.5859L40.2473 5.75859L44.3548 22.6165C44.3666 22.8134 44.4181 23.006 44.5064 23.1825C44.5946 23.3589 44.7177 23.5157 44.8682 23.6433C45.1728 23.8398 45.5338 23.93 45.8951 23.9001H48.12C48.4801 23.9173 48.8372 23.828 49.1469 23.6433C49.4197 23.3621 49.5991 23.0035 49.6603 22.6165L55.9927 2.4457C56.0682 2.24757 56.1255 2.04298 56.1638 1.83446C56.1638 1.66332 56.2494 1.57774 56.2494 1.4066C56.2494 0.978731 56.0783 0.79536 55.6382 0.79536H53.2421C52.8799 0.751926 52.5144 0.84331 52.2153 1.05208C51.9747 1.35504 51.7998 1.70474 51.7018 2.07896L47.1664 19.6214L42.9734 1.99338C42.9616 1.79641 42.91 1.60388 42.8218 1.42739C42.7335 1.25091 42.6104 1.09413 42.4599 0.96651C42.1553 0.770088 41.7943 0.679833 41.4331 0.709787H39.2937C38.9315 0.666354 38.566 0.757737 38.2669 0.96651C38.0263 1.26946 37.8515 1.61917 37.7534 1.99338L33.6459 19.2791L29.2817 1.99338C29.1837 1.61917 29.0088 1.26946 28.7683 0.96651C28.4691 0.757737 28.1036 0.666354 27.7414 0.709787H25.1864C24.7586 0.709787 24.5752 0.880933 24.5752 1.32102C24.6171 1.67277 24.7034 2.0178 24.8319 2.3479L30.9076 22.6287L30.9198 22.5859Z" fill="#240934"/>
<path d="M69.6846 35.2515C60.3157 39.22 50.251 41.2853 40.0764 41.3272C26.4404 41.3573 13.0384 37.7854 1.22625 30.9729C0.284949 30.3616 -0.485206 31.4007 0.370524 32.1953C11.027 41.7928 24.8795 47.0714 39.2206 46.9995C49.9173 46.9995 62.4109 43.6621 71.0538 37.2197C72.3374 36.1928 71.1393 34.6525 69.6846 35.2515Z" fill="#FF9900"/>
<path d="M64.2932 31.6569C63.523 32.1703 63.682 32.9405 64.4643 32.8793C67.2027 32.5371 73.4495 31.7669 74.4764 33.2216C75.5033 34.6764 73.2539 40.4098 72.2515 43.0625C71.9092 43.8327 72.5938 44.175 73.3639 43.576C77.9849 39.7252 79.1829 31.5958 78.2538 30.4833C77.3125 29.1997 69.1831 28.2584 64.3054 31.7058L64.2932 31.6569Z" fill="#FF9900"/>
</svg>
