<svg width="20" height="22" viewBox="0 0 20 22" fill="none" xmlns="http://www.w3.org/2000/svg">
<path d="M18.6598 4.90681L10.547 0.217318C10.3003 0.0749731 10.0206 0 9.73559 0C9.45063 0 9.17083 0.0749731 8.92417 0.217318L0.811415 4.90681C0.309684 5.19639 0.000556335 5.73123 0 6.31044V15.6896C0.000543261 16.2687 0.309677 16.8036 0.811415 17.0932L8.92487 21.7827H8.9246C9.17126 21.925 9.45105 22 9.73601 22C10.021 22 10.3008 21.925 10.5474 21.7827L18.6609 17.0932H18.6606C19.1623 16.8036 19.4715 16.2688 19.472 15.6896V6.31044C19.4715 5.73129 19.1623 5.19638 18.6606 4.90681H18.6598ZM9.12696 20.4925L1.41128 16.0383C1.2866 15.9663 1.20918 15.8335 1.20836 15.6895V6.7652L9.1271 11.333L9.12696 20.4925ZM9.73545 10.2699L1.8494 5.71029L9.53239 1.2642C9.65789 1.19167 9.81272 1.19167 9.93823 1.2642L17.6212 5.70209L9.73545 10.2699ZM18.2703 15.6896C18.2695 15.8335 18.1921 15.9664 18.0674 16.0384L10.3434 20.4926V11.3165L18.2621 6.74873L18.2703 15.6896Z" fill="#3AE6DD"/>
</svg>
