<svg width="1512" height="742" viewBox="0 0 1512 742" fill="none" xmlns="http://www.w3.org/2000/svg">
<g opacity="0.02">
<path d="M412.262 1L475.676 64.4137C476.959 65.6973 476.959 67.7785 475.676 69.0621L412.262 132.476" stroke="url(#paint0_linear_1075_7413)" stroke-width="32.8689" stroke-linecap="round"/>
<path d="M349.676 1L286.263 64.4137C284.979 65.6973 284.979 67.7785 286.263 69.0621L349.676 132.476" stroke="url(#paint1_linear_1075_7413)" stroke-width="32.8689" stroke-linecap="round"/>
<path d="M283.938 66.7378L349.676 132.476" stroke="url(#paint2_linear_1075_7413)" stroke-width="32.8689" stroke-linecap="round"/>
<path d="M137.792 1L201.206 64.4137C202.49 65.6973 202.49 67.7785 201.206 69.0621L137.792 132.476" stroke="url(#paint3_linear_1075_7413)" stroke-width="32.8689" stroke-linecap="round"/>
<path d="M75.2066 1L11.7929 64.4137C10.5093 65.6973 10.5093 67.7785 11.7929 69.0621L75.2066 132.476" stroke="url(#paint4_linear_1075_7413)" stroke-width="32.8689" stroke-linecap="round"/>
<path d="M9.46875 66.7378L75.2066 132.476" stroke="url(#paint5_linear_1075_7413)" stroke-width="32.8689" stroke-linecap="round"/>
<path d="M-8.35312 198.577L55.0606 261.991C56.3442 263.274 56.3442 265.356 55.0606 266.639L-8.35312 330.053" stroke="url(#paint6_linear_1075_7413)" stroke-width="32.8689" stroke-linecap="round"/>
<path d="M283.939 198.577L347.353 261.991C348.636 263.274 348.636 265.356 347.353 266.639L283.939 330.053" stroke="url(#paint7_linear_1075_7413)" stroke-width="32.8689" stroke-linecap="round"/>
<path d="M221.353 198.577L157.939 261.991C156.656 263.274 156.656 265.356 157.939 266.639L221.353 330.053" stroke="url(#paint8_linear_1075_7413)" stroke-width="32.8689" stroke-linecap="round"/>
<path d="M155.615 264.315L221.353 330.053" stroke="url(#paint9_linear_1075_7413)" stroke-width="32.8689" stroke-linecap="round"/>
<path d="M137.792 396.154L201.206 459.568C202.49 460.852 202.49 462.933 201.206 464.216L137.792 527.63" stroke="url(#paint10_linear_1075_7413)" stroke-width="32.8689" stroke-linecap="round"/>
<path d="M75.2066 396.154L11.7929 459.568C10.5093 460.852 10.5093 462.933 11.7929 464.216L75.2066 527.63" stroke="url(#paint11_linear_1075_7413)" stroke-width="32.8689" stroke-linecap="round"/>
<path d="M9.46875 461.893L75.2066 527.63" stroke="url(#paint12_linear_1075_7413)" stroke-width="32.8689" stroke-linecap="round"/>
<path d="M-8.67636 594L54.7373 657.414C56.021 658.697 56.021 660.778 54.7373 662.062L-8.67636 725.476" stroke="url(#paint13_linear_1075_7413)" stroke-width="32.8689" stroke-linecap="round"/>
</g>
<g opacity="0.04">
<path d="M1270.74 693.476L1207.32 630.062C1206.04 628.778 1206.04 626.697 1207.32 625.414L1270.74 562" stroke="url(#paint14_linear_1075_7413)" stroke-width="32.8689" stroke-linecap="round"/>
<path d="M1333.32 693.476L1396.74 630.062C1398.02 628.778 1398.02 626.697 1396.74 625.414L1333.32 562" stroke="url(#paint15_linear_1075_7413)" stroke-width="32.8689" stroke-linecap="round"/>
<path d="M1399.06 627.738L1333.32 562" stroke="url(#paint16_linear_1075_7413)" stroke-width="32.8689" stroke-linecap="round"/>
<path d="M1545.21 693.476L1481.79 630.062C1480.51 628.778 1480.51 626.697 1481.79 625.414L1545.21 562" stroke="url(#paint17_linear_1075_7413)" stroke-width="32.8689" stroke-linecap="round"/>
<path d="M1399.06 495.898L1335.65 432.485C1334.36 431.201 1334.36 429.12 1335.65 427.836L1399.06 364.423" stroke="url(#paint18_linear_1075_7413)" stroke-width="32.8689" stroke-linecap="round"/>
<path d="M1461.65 495.898L1525.06 432.485C1526.34 431.201 1526.34 429.12 1525.06 427.836L1461.65 364.423" stroke="url(#paint19_linear_1075_7413)" stroke-width="32.8689" stroke-linecap="round"/>
<path d="M1527.38 430.161L1461.65 364.423" stroke="url(#paint20_linear_1075_7413)" stroke-width="32.8689" stroke-linecap="round"/>
<path d="M1545.21 298.321L1481.79 234.908C1480.51 233.624 1480.51 231.543 1481.79 230.259L1545.21 166.846" stroke="url(#paint21_linear_1075_7413)" stroke-width="32.8689" stroke-linecap="round"/>
</g>
<defs>
<linearGradient id="paint0_linear_1075_7413" x1="445.131" y1="1" x2="445.131" y2="132.476" gradientUnits="userSpaceOnUse">
<stop stop-color="#1A8DBA"/>
<stop offset="1" stop-color="#17DEBD"/>
</linearGradient>
<linearGradient id="paint1_linear_1075_7413" x1="316.807" y1="1" x2="316.807" y2="132.476" gradientUnits="userSpaceOnUse">
<stop stop-color="#F48E1C"/>
<stop offset="1" stop-color="#BF2C43"/>
</linearGradient>
<linearGradient id="paint2_linear_1075_7413" x1="262.808" y1="17.4344" x2="316.807" y2="132.476" gradientUnits="userSpaceOnUse">
<stop stop-color="#F48E1C"/>
<stop offset="1" stop-color="#BF2C43"/>
</linearGradient>
<linearGradient id="paint3_linear_1075_7413" x1="170.661" y1="1" x2="170.661" y2="132.476" gradientUnits="userSpaceOnUse">
<stop stop-color="#1A8DBA"/>
<stop offset="1" stop-color="#17DEBD"/>
</linearGradient>
<linearGradient id="paint4_linear_1075_7413" x1="42.3377" y1="1" x2="42.3377" y2="132.476" gradientUnits="userSpaceOnUse">
<stop stop-color="#F48E1C"/>
<stop offset="1" stop-color="#BF2C43"/>
</linearGradient>
<linearGradient id="paint5_linear_1075_7413" x1="-11.6613" y1="17.4344" x2="42.3377" y2="132.476" gradientUnits="userSpaceOnUse">
<stop stop-color="#F48E1C"/>
<stop offset="1" stop-color="#BF2C43"/>
</linearGradient>
<linearGradient id="paint6_linear_1075_7413" x1="24.5158" y1="198.577" x2="24.5158" y2="330.053" gradientUnits="userSpaceOnUse">
<stop stop-color="#1A8DBA"/>
<stop offset="1" stop-color="#17DEBD"/>
</linearGradient>
<linearGradient id="paint7_linear_1075_7413" x1="316.808" y1="198.577" x2="316.808" y2="330.053" gradientUnits="userSpaceOnUse">
<stop stop-color="#1A8DBA"/>
<stop offset="1" stop-color="#17DEBD"/>
</linearGradient>
<linearGradient id="paint8_linear_1075_7413" x1="188.484" y1="198.577" x2="188.484" y2="330.053" gradientUnits="userSpaceOnUse">
<stop stop-color="#F48E1C"/>
<stop offset="1" stop-color="#BF2C43"/>
</linearGradient>
<linearGradient id="paint9_linear_1075_7413" x1="134.485" y1="215.012" x2="188.484" y2="330.053" gradientUnits="userSpaceOnUse">
<stop stop-color="#F48E1C"/>
<stop offset="1" stop-color="#BF2C43"/>
</linearGradient>
<linearGradient id="paint10_linear_1075_7413" x1="170.661" y1="396.154" x2="170.661" y2="527.63" gradientUnits="userSpaceOnUse">
<stop stop-color="#1A8DBA"/>
<stop offset="1" stop-color="#17DEBD"/>
</linearGradient>
<linearGradient id="paint11_linear_1075_7413" x1="42.3377" y1="396.154" x2="42.3377" y2="527.63" gradientUnits="userSpaceOnUse">
<stop stop-color="#F48E1C"/>
<stop offset="1" stop-color="#BF2C43"/>
</linearGradient>
<linearGradient id="paint12_linear_1075_7413" x1="-11.6613" y1="412.589" x2="42.3377" y2="527.63" gradientUnits="userSpaceOnUse">
<stop stop-color="#F48E1C"/>
<stop offset="1" stop-color="#BF2C43"/>
</linearGradient>
<linearGradient id="paint13_linear_1075_7413" x1="24.1926" y1="594" x2="24.1926" y2="725.476" gradientUnits="userSpaceOnUse">
<stop stop-color="#1A8DBA"/>
<stop offset="1" stop-color="#17DEBD"/>
</linearGradient>
<linearGradient id="paint14_linear_1075_7413" x1="1237.87" y1="693.476" x2="1237.87" y2="562" gradientUnits="userSpaceOnUse">
<stop stop-color="#1A8DBA"/>
<stop offset="1" stop-color="#17DEBD"/>
</linearGradient>
<linearGradient id="paint15_linear_1075_7413" x1="1366.19" y1="693.476" x2="1366.19" y2="562" gradientUnits="userSpaceOnUse">
<stop stop-color="#F48E1C"/>
<stop offset="1" stop-color="#BF2C43"/>
</linearGradient>
<linearGradient id="paint16_linear_1075_7413" x1="1420.19" y1="677.041" x2="1366.19" y2="562" gradientUnits="userSpaceOnUse">
<stop stop-color="#F48E1C"/>
<stop offset="1" stop-color="#BF2C43"/>
</linearGradient>
<linearGradient id="paint17_linear_1075_7413" x1="1512.34" y1="693.476" x2="1512.34" y2="562" gradientUnits="userSpaceOnUse">
<stop stop-color="#1A8DBA"/>
<stop offset="1" stop-color="#17DEBD"/>
</linearGradient>
<linearGradient id="paint18_linear_1075_7413" x1="1366.19" y1="495.898" x2="1366.19" y2="364.423" gradientUnits="userSpaceOnUse">
<stop stop-color="#1A8DBA"/>
<stop offset="1" stop-color="#17DEBD"/>
</linearGradient>
<linearGradient id="paint19_linear_1075_7413" x1="1494.52" y1="495.898" x2="1494.52" y2="364.423" gradientUnits="userSpaceOnUse">
<stop stop-color="#F48E1C"/>
<stop offset="1" stop-color="#BF2C43"/>
</linearGradient>
<linearGradient id="paint20_linear_1075_7413" x1="1548.51" y1="479.464" x2="1494.52" y2="364.423" gradientUnits="userSpaceOnUse">
<stop stop-color="#F48E1C"/>
<stop offset="1" stop-color="#BF2C43"/>
</linearGradient>
<linearGradient id="paint21_linear_1075_7413" x1="1512.34" y1="298.321" x2="1512.34" y2="166.846" gradientUnits="userSpaceOnUse">
<stop stop-color="#1A8DBA"/>
<stop offset="1" stop-color="#17DEBD"/>
</linearGradient>
</defs>
</svg>
