<svg width="19" height="22" viewBox="0 0 19 22" fill="none" xmlns="http://www.w3.org/2000/svg">
<path d="M18.5909 2.52668V2.45887C18.5683 2.36329 18.5233 2.27447 18.4594 2.19972C18.4276 2.15593 14.8712 -1.89485 9.92336 1.11934C5.85281 3.60725 2.695 0.321959 2.56378 0.190414H2.5636C2.40911 0.0223949 2.1715 -0.0411449 1.95363 0.0268464C1.73488 0.0944824 1.57309 0.279588 1.535 0.505274L0.00804672 10.1536C-0.0222109 10.3355 0.0338551 10.5211 0.159512 10.656C0.187456 10.6879 2.2845 12.8887 5.34247 12.8887C6.64781 12.8732 7.92275 12.4919 9.02236 11.7882C12.4829 9.67513 15.0505 11.6805 15.8001 12.3982L14.3848 21.1374C14.3321 21.4642 14.5528 21.7723 14.8792 21.8271H14.975C15.2669 21.8273 15.5162 21.6168 15.565 21.3288L18.587 2.66599C18.5929 2.61971 18.5943 2.5729 18.5909 2.52645L18.5909 2.52668ZM8.3927 10.7675C4.85238 12.9284 2.01366 10.7356 1.21629 10.0338L2.5439 1.70506C3.95922 2.73773 6.98129 4.27271 10.5177 2.10375C14.0541 -0.065212 16.6534 2.07581 17.3474 2.75359L16.0197 11.0381C14.6564 10.0215 11.8655 8.64991 8.3927 10.7671V10.7675Z" fill="#FFA465"/>
</svg>
