<svg width="349" height="80" viewBox="0 0 349 80" fill="none" xmlns="http://www.w3.org/2000/svg">
<path d="M8 62.3067V39.9451M8 39.9451V19.1808C8 18.2986 8.71512 17.5835 9.59726 17.5835H51.1259C52.0081 17.5835 52.7232 18.2986 52.7232 19.1808V38.3478C52.7232 39.23 52.0081 39.9451 51.1259 39.9451H8ZM9.59726 41.5423L52.7232 62.3067" stroke="#240934" stroke-width="15.9726" stroke-linecap="round"/>
<path d="M295.506 62.3067V39.9451M295.506 39.9451V19.1808C295.506 18.2986 296.221 17.5835 297.103 17.5835H338.632C339.514 17.5835 340.229 18.2986 340.229 19.1808V38.3478C340.229 39.23 339.514 39.9451 338.632 39.9451H295.506ZM297.103 41.5423L340.229 62.3067" stroke="#240934" stroke-width="15.9726" stroke-linecap="round"/>
<path d="M161.336 17.5835V39.2835C161.336 39.7071 161.504 40.1134 161.804 40.4129L182.568 61.1773C183.192 61.801 184.203 61.801 184.827 61.1772L205.591 40.4129C205.891 40.1134 206.059 39.7071 206.059 39.2835V17.5835" stroke="#240934" stroke-width="15.9726" stroke-linecap="round"/>
<path d="M273.145 17.5835H230.019C229.137 17.5835 228.422 18.2986 228.422 19.1808V38.4543M273.145 62.3067H230.019C229.137 62.3067 228.422 61.5916 228.422 60.7094V38.4543M228.422 38.4543H254.777" stroke="#240934" stroke-width="15.9726" stroke-linecap="round"/>
<path d="M107.031 8L76.2154 38.8157C75.5916 39.4395 75.5916 40.4508 76.2154 41.0746L107.031 71.8903" stroke="url(#paint0_linear_776_2898)" stroke-width="15.9726" stroke-linecap="round"/>
<path d="M107.031 8L137.847 38.8157C138.471 39.4395 138.471 40.4508 137.847 41.0746L107.031 71.8903" stroke="url(#paint1_linear_776_2898)" stroke-width="15.9726" stroke-linecap="round"/>
<path d="M75.0859 39.9453L107.031 71.8904" stroke="url(#paint2_linear_776_2898)" stroke-width="15.9726" stroke-linecap="round"/>
<defs>
<linearGradient id="paint0_linear_776_2898" x1="91.0585" y1="8" x2="91.0585" y2="71.8903" gradientUnits="userSpaceOnUse">
<stop stop-color="#F48E1C"/>
<stop offset="1" stop-color="#BF2C43"/>
</linearGradient>
<linearGradient id="paint1_linear_776_2898" x1="123.004" y1="8" x2="123.004" y2="71.8903" gradientUnits="userSpaceOnUse">
<stop stop-color="#1A8DBA"/>
<stop offset="1" stop-color="#17DEBD"/>
</linearGradient>
<linearGradient id="paint2_linear_776_2898" x1="64.8179" y1="15.9865" x2="91.0585" y2="71.8904" gradientUnits="userSpaceOnUse">
<stop stop-color="#F48E1C"/>
<stop offset="1" stop-color="#BF2C43"/>
</linearGradient>
</defs>
</svg>
