<svg width="1512" height="773" viewBox="0 0 1512 773" fill="none" xmlns="http://www.w3.org/2000/svg">
<g opacity="0.02">
<path d="M416.262 32L479.676 95.4137C480.959 96.6973 480.959 98.7785 479.676 100.062L416.262 163.476" stroke="url(#paint0_linear_1075_7412)" stroke-width="32.8689" stroke-linecap="round"/>
<path d="M353.676 32L290.263 95.4137C288.979 96.6973 288.979 98.7785 290.263 100.062L353.676 163.476" stroke="url(#paint1_linear_1075_7412)" stroke-width="32.8689" stroke-linecap="round"/>
<path d="M287.938 97.7378L353.676 163.476" stroke="url(#paint2_linear_1075_7412)" stroke-width="32.8689" stroke-linecap="round"/>
<path d="M141.792 32L205.206 95.4137C206.49 96.6973 206.49 98.7785 205.206 100.062L141.792 163.476" stroke="url(#paint3_linear_1075_7412)" stroke-width="32.8689" stroke-linecap="round"/>
<path d="M79.2066 32L15.7929 95.4137C14.5093 96.6973 14.5093 98.7785 15.7929 100.062L79.2066 163.476" stroke="url(#paint4_linear_1075_7412)" stroke-width="32.8689" stroke-linecap="round"/>
<path d="M13.4688 97.7378L79.2066 163.476" stroke="url(#paint5_linear_1075_7412)" stroke-width="32.8689" stroke-linecap="round"/>
<path d="M-4.35312 229.577L59.0606 292.991C60.3442 294.274 60.3442 296.356 59.0606 297.639L-4.35312 361.053" stroke="url(#paint6_linear_1075_7412)" stroke-width="32.8689" stroke-linecap="round"/>
<path d="M287.939 229.577L351.353 292.991C352.636 294.274 352.636 296.356 351.353 297.639L287.939 361.053" stroke="url(#paint7_linear_1075_7412)" stroke-width="32.8689" stroke-linecap="round"/>
<path d="M225.353 229.577L161.939 292.991C160.656 294.274 160.656 296.356 161.939 297.639L225.353 361.053" stroke="url(#paint8_linear_1075_7412)" stroke-width="32.8689" stroke-linecap="round"/>
<path d="M159.615 295.315L225.353 361.053" stroke="url(#paint9_linear_1075_7412)" stroke-width="32.8689" stroke-linecap="round"/>
<path d="M141.792 427.154L205.206 490.568C206.49 491.852 206.49 493.933 205.206 495.216L141.792 558.63" stroke="url(#paint10_linear_1075_7412)" stroke-width="32.8689" stroke-linecap="round"/>
<path d="M79.2066 427.154L15.7929 490.568C14.5093 491.852 14.5093 493.933 15.7929 495.216L79.2066 558.63" stroke="url(#paint11_linear_1075_7412)" stroke-width="32.8689" stroke-linecap="round"/>
<path d="M13.4688 492.893L79.2066 558.63" stroke="url(#paint12_linear_1075_7412)" stroke-width="32.8689" stroke-linecap="round"/>
<path d="M-4.67636 625L58.7373 688.414C60.021 689.697 60.021 691.778 58.7373 693.062L-4.67636 756.476" stroke="url(#paint13_linear_1075_7412)" stroke-width="32.8689" stroke-linecap="round"/>
</g>
<g opacity="0.04">
<path d="M1274.74 724.476L1211.32 661.062C1210.04 659.778 1210.04 657.697 1211.32 656.414L1274.74 593" stroke="url(#paint14_linear_1075_7412)" stroke-width="32.8689" stroke-linecap="round"/>
<path d="M1337.32 724.476L1400.74 661.062C1402.02 659.778 1402.02 657.697 1400.74 656.414L1337.32 593" stroke="url(#paint15_linear_1075_7412)" stroke-width="32.8689" stroke-linecap="round"/>
<path d="M1403.06 658.738L1337.32 593" stroke="url(#paint16_linear_1075_7412)" stroke-width="32.8689" stroke-linecap="round"/>
<path d="M1549.21 724.476L1485.79 661.062C1484.51 659.778 1484.51 657.697 1485.79 656.414L1549.21 593" stroke="url(#paint17_linear_1075_7412)" stroke-width="32.8689" stroke-linecap="round"/>
<path d="M1403.06 526.898L1339.65 463.485C1338.36 462.201 1338.36 460.12 1339.65 458.836L1403.06 395.423" stroke="url(#paint18_linear_1075_7412)" stroke-width="32.8689" stroke-linecap="round"/>
<path d="M1465.65 526.898L1529.06 463.485C1530.34 462.201 1530.34 460.12 1529.06 458.836L1465.65 395.423" stroke="url(#paint19_linear_1075_7412)" stroke-width="32.8689" stroke-linecap="round"/>
<path d="M1531.38 461.161L1465.65 395.423" stroke="url(#paint20_linear_1075_7412)" stroke-width="32.8689" stroke-linecap="round"/>
<path d="M1549.21 329.321L1485.79 265.908C1484.51 264.624 1484.51 262.543 1485.79 261.259L1549.21 197.846" stroke="url(#paint21_linear_1075_7412)" stroke-width="32.8689" stroke-linecap="round"/>
</g>
<defs>
<linearGradient id="paint0_linear_1075_7412" x1="449.131" y1="32" x2="449.131" y2="163.476" gradientUnits="userSpaceOnUse">
<stop stop-color="#1A8DBA"/>
<stop offset="1" stop-color="#17DEBD"/>
</linearGradient>
<linearGradient id="paint1_linear_1075_7412" x1="320.807" y1="32" x2="320.807" y2="163.476" gradientUnits="userSpaceOnUse">
<stop stop-color="#F48E1C"/>
<stop offset="1" stop-color="#BF2C43"/>
</linearGradient>
<linearGradient id="paint2_linear_1075_7412" x1="266.808" y1="48.4344" x2="320.807" y2="163.476" gradientUnits="userSpaceOnUse">
<stop stop-color="#F48E1C"/>
<stop offset="1" stop-color="#BF2C43"/>
</linearGradient>
<linearGradient id="paint3_linear_1075_7412" x1="174.661" y1="32" x2="174.661" y2="163.476" gradientUnits="userSpaceOnUse">
<stop stop-color="#1A8DBA"/>
<stop offset="1" stop-color="#17DEBD"/>
</linearGradient>
<linearGradient id="paint4_linear_1075_7412" x1="46.3377" y1="32" x2="46.3377" y2="163.476" gradientUnits="userSpaceOnUse">
<stop stop-color="#F48E1C"/>
<stop offset="1" stop-color="#BF2C43"/>
</linearGradient>
<linearGradient id="paint5_linear_1075_7412" x1="-7.66128" y1="48.4344" x2="46.3377" y2="163.476" gradientUnits="userSpaceOnUse">
<stop stop-color="#F48E1C"/>
<stop offset="1" stop-color="#BF2C43"/>
</linearGradient>
<linearGradient id="paint6_linear_1075_7412" x1="28.5158" y1="229.577" x2="28.5158" y2="361.053" gradientUnits="userSpaceOnUse">
<stop stop-color="#1A8DBA"/>
<stop offset="1" stop-color="#17DEBD"/>
</linearGradient>
<linearGradient id="paint7_linear_1075_7412" x1="320.808" y1="229.577" x2="320.808" y2="361.053" gradientUnits="userSpaceOnUse">
<stop stop-color="#1A8DBA"/>
<stop offset="1" stop-color="#17DEBD"/>
</linearGradient>
<linearGradient id="paint8_linear_1075_7412" x1="192.484" y1="229.577" x2="192.484" y2="361.053" gradientUnits="userSpaceOnUse">
<stop stop-color="#F48E1C"/>
<stop offset="1" stop-color="#BF2C43"/>
</linearGradient>
<linearGradient id="paint9_linear_1075_7412" x1="138.485" y1="246.012" x2="192.484" y2="361.053" gradientUnits="userSpaceOnUse">
<stop stop-color="#F48E1C"/>
<stop offset="1" stop-color="#BF2C43"/>
</linearGradient>
<linearGradient id="paint10_linear_1075_7412" x1="174.661" y1="427.154" x2="174.661" y2="558.63" gradientUnits="userSpaceOnUse">
<stop stop-color="#1A8DBA"/>
<stop offset="1" stop-color="#17DEBD"/>
</linearGradient>
<linearGradient id="paint11_linear_1075_7412" x1="46.3377" y1="427.154" x2="46.3377" y2="558.63" gradientUnits="userSpaceOnUse">
<stop stop-color="#F48E1C"/>
<stop offset="1" stop-color="#BF2C43"/>
</linearGradient>
<linearGradient id="paint12_linear_1075_7412" x1="-7.66128" y1="443.589" x2="46.3377" y2="558.63" gradientUnits="userSpaceOnUse">
<stop stop-color="#F48E1C"/>
<stop offset="1" stop-color="#BF2C43"/>
</linearGradient>
<linearGradient id="paint13_linear_1075_7412" x1="28.1926" y1="625" x2="28.1926" y2="756.476" gradientUnits="userSpaceOnUse">
<stop stop-color="#1A8DBA"/>
<stop offset="1" stop-color="#17DEBD"/>
</linearGradient>
<linearGradient id="paint14_linear_1075_7412" x1="1241.87" y1="724.476" x2="1241.87" y2="593" gradientUnits="userSpaceOnUse">
<stop stop-color="#1A8DBA"/>
<stop offset="1" stop-color="#17DEBD"/>
</linearGradient>
<linearGradient id="paint15_linear_1075_7412" x1="1370.19" y1="724.476" x2="1370.19" y2="593" gradientUnits="userSpaceOnUse">
<stop stop-color="#F48E1C"/>
<stop offset="1" stop-color="#BF2C43"/>
</linearGradient>
<linearGradient id="paint16_linear_1075_7412" x1="1424.19" y1="708.041" x2="1370.19" y2="593" gradientUnits="userSpaceOnUse">
<stop stop-color="#F48E1C"/>
<stop offset="1" stop-color="#BF2C43"/>
</linearGradient>
<linearGradient id="paint17_linear_1075_7412" x1="1516.34" y1="724.476" x2="1516.34" y2="593" gradientUnits="userSpaceOnUse">
<stop stop-color="#1A8DBA"/>
<stop offset="1" stop-color="#17DEBD"/>
</linearGradient>
<linearGradient id="paint18_linear_1075_7412" x1="1370.19" y1="526.898" x2="1370.19" y2="395.423" gradientUnits="userSpaceOnUse">
<stop stop-color="#1A8DBA"/>
<stop offset="1" stop-color="#17DEBD"/>
</linearGradient>
<linearGradient id="paint19_linear_1075_7412" x1="1498.52" y1="526.898" x2="1498.52" y2="395.423" gradientUnits="userSpaceOnUse">
<stop stop-color="#F48E1C"/>
<stop offset="1" stop-color="#BF2C43"/>
</linearGradient>
<linearGradient id="paint20_linear_1075_7412" x1="1552.51" y1="510.464" x2="1498.52" y2="395.423" gradientUnits="userSpaceOnUse">
<stop stop-color="#F48E1C"/>
<stop offset="1" stop-color="#BF2C43"/>
</linearGradient>
<linearGradient id="paint21_linear_1075_7412" x1="1516.34" y1="329.321" x2="1516.34" y2="197.846" gradientUnits="userSpaceOnUse">
<stop stop-color="#1A8DBA"/>
<stop offset="1" stop-color="#17DEBD"/>
</linearGradient>
</defs>
</svg>
