<svg width="50" height="50" viewBox="0 0 50 50" fill="none" xmlns="http://www.w3.org/2000/svg">
<circle cx="25" cy="25" r="25" fill="#E5E5E5"/>
<mask id="path-2-inside-1_263_3101" fill="white">
<path d="M23.6295 14.7407H14.5843C13.8989 14.7407 13.2416 15.013 12.7569 15.4977C12.2723 15.9823 12 16.6396 12 17.325V35.4153C12 36.1007 12.2723 36.758 12.7569 37.2427C13.2416 37.7274 13.8989 37.9996 14.5843 37.9996H32.6746C33.36 37.9996 34.0173 37.7274 34.502 37.2427C34.9866 36.758 35.2589 36.1007 35.2589 35.4153V26.3702"/>
</mask>
<path d="M23.6295 15.9213C24.2814 15.9213 24.81 15.3927 24.81 14.7407C24.81 14.0887 24.2814 13.5602 23.6295 13.5602V15.9213ZM14.5843 14.7407V13.5602V14.7407ZM12 17.325H10.8195H12ZM12 35.4153H10.8195H12ZM36.4394 26.3702C36.4394 25.7182 35.9109 25.1896 35.2589 25.1896C34.6069 25.1896 34.0784 25.7182 34.0784 26.3702H36.4394ZM23.6295 13.5602H14.5843V15.9213H23.6295V13.5602ZM14.5843 13.5602C13.5858 13.5602 12.6282 13.9568 11.9222 14.6629L13.5917 16.3324C13.855 16.0692 14.212 15.9213 14.5843 15.9213V13.5602ZM11.9222 14.6629C11.2161 15.3689 10.8195 16.3265 10.8195 17.325H13.1805C13.1805 16.9527 13.3284 16.5957 13.5917 16.3324L11.9222 14.6629ZM10.8195 17.325V35.4153H13.1805V17.325H10.8195ZM10.8195 35.4153C10.8195 36.4138 11.2161 37.3714 11.9222 38.0775L13.5917 36.4079C13.3284 36.1447 13.1805 35.7876 13.1805 35.4153H10.8195ZM11.9222 38.0775C12.6282 38.7835 13.5858 39.1802 14.5843 39.1802V36.8191C14.212 36.8191 13.855 36.6712 13.5917 36.4079L11.9222 38.0775ZM14.5843 39.1802H32.6746V36.8191H14.5843V39.1802ZM32.6746 39.1802C33.6731 39.1802 34.6307 38.7835 35.3367 38.0775L33.6672 36.4079C33.404 36.6712 33.0469 36.8191 32.6746 36.8191V39.1802ZM35.3367 38.0775C36.0428 37.3714 36.4394 36.4138 36.4394 35.4153H34.0784C34.0784 35.7876 33.9305 36.1447 33.6672 36.4079L35.3367 38.0775ZM36.4394 35.4153V26.3702H34.0784V35.4153H36.4394Z" fill="#240934" mask="url(#path-2-inside-1_263_3101)"/>
<path d="M33.738 13.2202C34.1414 12.8169 34.6884 12.5903 35.2589 12.5903C35.8293 12.5903 36.3764 12.8169 36.7797 13.2202C37.1831 13.6236 37.4097 14.1707 37.4097 14.7411C37.4097 15.3115 37.1831 15.8586 36.7797 16.2619L24.6198 28.4219L20.5642 29.4358L21.5781 25.3802L33.738 13.2202Z" stroke="#240934" stroke-width="1.18053" stroke-linecap="round" stroke-linejoin="round"/>
</svg>
