<svg width="50" height="50" viewBox="0 0 50 50" fill="none" xmlns="http://www.w3.org/2000/svg">
<circle cx="25" cy="25" r="25" fill="#252523"/>
<mask id="path-2-inside-1_334_2017" fill="white">
<path d="M24.7349 16.5298H16.3855C15.7528 16.5298 15.1461 16.7811 14.6987 17.2285C14.2513 17.6759 14 18.2826 14 18.9153V35.614C14 36.2467 14.2513 36.8535 14.6987 37.3008C15.1461 37.7482 15.7528 37.9995 16.3855 37.9995H33.0842C33.7169 37.9995 34.3237 37.7482 34.7711 37.3008C35.2184 36.8535 35.4698 36.2467 35.4698 35.614V27.2647"/>
</mask>
<path d="M24.7349 17.7103C25.3869 17.7103 25.9154 17.1818 25.9154 16.5298C25.9154 15.8778 25.3869 15.3493 24.7349 15.3493V17.7103ZM16.3855 16.5298V15.3493V16.5298ZM14 18.9153H12.8195H14ZM14 35.614H12.8195H14ZM36.6503 27.2647C36.6503 26.6127 36.1218 26.0841 35.4698 26.0841C34.8178 26.0841 34.2892 26.6127 34.2892 27.2647H36.6503ZM24.7349 15.3493H16.3855V17.7103H24.7349V15.3493ZM16.3855 15.3493C15.4398 15.3493 14.5327 15.725 13.8639 16.3937L15.5335 18.0633C15.7594 17.8373 16.0659 17.7103 16.3855 17.7103V15.3493ZM13.8639 16.3937C13.1952 17.0625 12.8195 17.9695 12.8195 18.9153H15.1805C15.1805 18.5957 15.3075 18.2892 15.5335 18.0633L13.8639 16.3937ZM12.8195 18.9153V35.614H15.1805V18.9153H12.8195ZM12.8195 35.614C12.8195 36.5598 13.1952 37.4668 13.8639 38.1356L15.5335 36.4661C15.3075 36.2401 15.1805 35.9336 15.1805 35.614H12.8195ZM13.8639 38.1356C14.5327 38.8044 15.4397 39.1801 16.3855 39.1801V36.819C16.0659 36.819 15.7595 36.6921 15.5335 36.4661L13.8639 38.1356ZM16.3855 39.1801H33.0842V36.819H16.3855V39.1801ZM33.0842 39.1801C34.03 39.1801 34.9371 38.8044 35.6058 38.1356L33.9363 36.4661C33.7103 36.6921 33.4038 36.819 33.0842 36.819V39.1801ZM35.6058 38.1356C36.2746 37.4668 36.6503 36.5598 36.6503 35.614H34.2892C34.2892 35.9336 34.1623 36.2401 33.9363 36.4661L35.6058 38.1356ZM36.6503 35.614V27.2647H34.2892V35.614H36.6503Z" fill="#A0A0A0" mask="url(#path-2-inside-1_334_2017)"/>
<path d="M34.0977 15.1585C34.4615 14.7947 34.9549 14.5903 35.4694 14.5903C35.9839 14.5903 36.4774 14.7947 36.8412 15.1585C37.205 15.5223 37.4094 16.0157 37.4094 16.5302C37.4094 17.0447 37.205 17.5382 36.8412 17.902L25.6255 29.1177L21.9675 30.0322L22.882 26.3741L34.0977 15.1585Z" stroke="#A0A0A0" stroke-width="1.18053" stroke-linecap="round" stroke-linejoin="round"/>
</svg>
